<svg version="1.1" xmlns="http://www.w3.org/2000/svg" xmlns:xlink="http://www.w3.org/1999/xlink" width="640" height="400"><style xmlns="http://www.w3.org/1999/xhtml"></style><defs><linearGradient id="EzBMrrHWaGyM" x1="0px" x2="0px" y1="100px" y2="-50px" gradientUnits="userSpaceOnUse"><stop offset="0" stop-color="#666666"/><stop offset="1" stop-color="#FFFFFF"/></linearGradient><linearGradient id="gnwQNZLNXdPG" x1="0px" x2="0px" y1="100px" y2="-50px" gradientUnits="userSpaceOnUse"><stop offset="0" stop-color="#1155cc"/><stop offset="1" stop-color="#FFFFFF"/></linearGradient><linearGradient id="wmpgUghBSQHc" x1="0px" x2="0px" y1="100px" y2="-50px" gradientUnits="userSpaceOnUse"><stop offset="0" stop-color="#1155cc"/><stop offset="1" stop-color="#FFFFFF"/></linearGradient><linearGradient id="nDviJTgPzcKn" x1="0px" x2="0px" y1="100px" y2="-50px" gradientUnits="userSpaceOnUse"><stop offset="0" stop-color="#1155cc"/><stop offset="1" stop-color="#FFFFFF"/></linearGradient><linearGradient id="zDyIHTrpfoUh" x1="0px" x2="0px" y1="100px" y2="-50px" gradientUnits="userSpaceOnUse"><stop offset="0" stop-color="#1155cc"/><stop offset="1" stop-color="#FFFFFF"/></linearGradient><linearGradient id="CqNuTdezLMaC" x1="0px" x2="0px" y1="100px" y2="-50px" gradientUnits="userSpaceOnUse"><stop offset="0" stop-color="#1155cc"/><stop offset="1" stop-color="#FFFFFF"/></linearGradient><linearGradient id="yOKlwmWLlqcv" x1="0px" x2="0px" y1="100px" y2="-50px" gradientUnits="userSpaceOnUse"><stop offset="0" stop-color="#1155cc"/><stop offset="1" stop-color="#FFFFFF"/></linearGradient><linearGradient id="kaHZTWKFtRCM" x1="0px" x2="0px" y1="100px" y2="-50px" gradientUnits="userSpaceOnUse"><stop offset="0" stop-color="#1155cc"/><stop offset="1" stop-color="#FFFFFF"/></linearGradient></defs><g transform="translate(0,0)"><path fill="none" stroke="none" stroke-dasharray="undefined" vector-effect="non-scaling-stroke"/><g><rect fill="#FFFFFF" stroke="none" x="0" y="0" width="640" height="400"/></g><g data-width="150" data-height="130" data-layerId="i3afiBeV4uka" transform="translate(0,0) matrix(1,0,0,1,245,250)"><g><g transform="translate(0,0) scale(1.5,1.3)"><g><path fill="url(#EzBMrrHWaGyM)" stroke="#333333" stroke-dasharray="1.7976931348623157e+308" vector-effect="non-scaling-stroke" d="M 50 0 L 100 100 L 0 100 L 50 0 Z" stroke-miterlimit="10" stroke-width="2"/><g transform="scale(0.6666666666666666,0.7692307692307692)"/></g></g></g></g><g data-width="600" data-height="15" data-layerId="i3afiBeV4uka" transform="translate(0,0) matrix(1,0,0,1,20,235)"><g><g transform="translate(0,0) scale(6,0.15)"><g><path fill="#999999" stroke="#333333" stroke-dasharray="1.7976931348623157e+308" vector-effect="non-scaling-stroke" d="M 0 0 L 100 0 Q 100 0 100 0 L 100 100 Q 100 100 100 100 L 0 100 Q 0 100 0 100 L 0 0 Q 0 0 0 0 Z" stroke-miterlimit="10" stroke-width="2"/><g transform="scale(0.16666666666666666,6.666666666666667)"/></g></g></g></g><g data-width="80" data-height="80" data-layerId="i3afiBeV4uka" transform="translate(0,0) matrix(1,0,0,1,385,80)"><g><g transform="translate(0,0) scale(0.8,0.8)"><g><path fill="url(#gnwQNZLNXdPG)" stroke="#333333" stroke-dasharray="1.7976931348623157e+308" vector-effect="non-scaling-stroke" d="M 50 0 L 100 36.66667 L 83.33333 100 L 16.66667 100 L 0 36.66667 L 50 0 Z" stroke-miterlimit="10" stroke-width="2"/><g transform="scale(1.25,1.25)"/></g></g></g></g><g data-width="80" data-height="65" data-layerId="i3afiBeV4uka" transform="translate(0,0) matrix(1,0,0,1,500,10)"><g><g transform="translate(0,0) scale(0.8,0.65)"><g><path fill="url(#wmpgUghBSQHc)" stroke="#333333" stroke-dasharray="1.7976931348623157e+308" vector-effect="non-scaling-stroke" d="M 0 0 L 100 100 L 0 100 L 0 0 Z" stroke-miterlimit="10" stroke-width="2"/><g transform="scale(1.25,1.5384615384615383)"/></g></g></g></g><g data-width="100" data-height="75" data-layerId="i3afiBeV4uka" transform="translate(0,0) matrix(1,0,0,1,380,160)"><g><g transform="translate(0,0) scale(1,0.75)"><g><path fill="url(#nDviJTgPzcKn)" stroke="#333333" stroke-dasharray="1.7976931348623157e+308" vector-effect="non-scaling-stroke" d="M 0 0 L 100 0 Q 100 0 100 0 L 100 100 Q 100 100 100 100 L 0 100 Q 0 100 0 100 L 0 0 Q 0 0 0 0 Z" stroke-miterlimit="10" stroke-width="2"/><g transform="scale(1,1.3333333333333333)"/></g></g></g></g><g data-width="100" data-height="60" data-layerId="i3afiBeV4uka" transform="translate(0,0) matrix(1,0,0,1,490,175)"><g><g transform="translate(0,0) scale(1,0.6)"><g><path fill="url(#zDyIHTrpfoUh)" stroke="#333333" stroke-dasharray="1.7976931348623157e+308" vector-effect="non-scaling-stroke" d="M 0 0 L 100 0 Q 100 0 100 0 L 100 100 Q 100 100 100 100 L 0 100 Q 0 100 0 100 L 0 0 Q 0 0 0 0 Z" stroke-miterlimit="10" stroke-width="2"/><g transform="scale(1,1.6666666666666667)"/></g></g></g></g><g data-width="100" data-height="100" data-layerId="i3afiBeV4uka" transform="translate(0,0) matrix(1,0,0,1,490,75)"><g><g transform="translate(0,0) scale(1,1)"><g><path fill="url(#CqNuTdezLMaC)" stroke="#333333" stroke-dasharray="1.7976931348623157e+308" vector-effect="non-scaling-stroke" d="M 30 0 L 70 0 L 100 30 L 100 70 L 70 100 L 30 100 L 0 70 L 0 30 L 30 0 Z" stroke-miterlimit="10" stroke-width="2"/><g transform="scale(1,1)"/></g></g></g></g><g data-width="50" data-height="75" data-layerId="i3afiBeV4uka" transform="translate(0,0) matrix(1,0,0,1,20,160)"><g><g transform="translate(0,0) scale(0.5,0.75)"><g><path fill="#FFFFFF" stroke="#333333" stroke-dasharray="1.7976931348623157e+308" vector-effect="non-scaling-stroke" d="M 20 0 L 80 0 Q 100 0 100 13.333333333333334 L 100 86.66666666666667 Q 100 100 80 100 L 20 100 Q 0 100 0 86.66666666666667 L 0 13.333333333333334 Q 0 0 20 0 Z" stroke-miterlimit="10" stroke-width="2"/><g transform="scale(2,1.3333333333333333)"/></g></g></g></g><g data-width="50" data-height="75" data-layerId="i3afiBeV4uka" transform="translate(0,0) matrix(1,0,0,1,80,160)"><g><g transform="translate(0,0) scale(0.5,0.75)"><g><path fill="#FFFFFF" stroke="#333333" stroke-dasharray="1.7976931348623157e+308" vector-effect="non-scaling-stroke" d="M 20 0 L 80 0 Q 100 0 100 13.333333333333334 L 100 86.66666666666667 Q 100 100 80 100 L 20 100 Q 0 100 0 86.66666666666667 L 0 13.333333333333334 Q 0 0 20 0 Z" stroke-miterlimit="10" stroke-width="2"/><g transform="scale(2,1.3333333333333333)"/></g></g></g></g><g data-width="50" data-height="75" data-layerId="i3afiBeV4uka" transform="translate(0,0) matrix(1,0,0,1,140,160)"><g><g transform="translate(0,0) scale(0.5,0.75)"><g><path fill="#FFFFFF" stroke="#333333" stroke-dasharray="1.7976931348623157e+308" vector-effect="non-scaling-stroke" d="M 20 0 L 80 0 Q 100 0 100 13.333333333333334 L 100 86.66666666666667 Q 100 100 80 100 L 20 100 Q 0 100 0 86.66666666666667 L 0 13.333333333333334 Q 0 0 20 0 Z" stroke-miterlimit="10" stroke-width="2"/><g transform="scale(2,1.3333333333333333)"/></g></g></g></g><g data-width="50" data-height="75" data-layerId="i3afiBeV4uka" transform="translate(0,0) matrix(1,0,0,1,20,82.5)"><g><g transform="translate(0,0) scale(0.5,0.75)"><g><path fill="#FFFFFF" stroke="#333333" stroke-dasharray="1.7976931348623157e+308" vector-effect="non-scaling-stroke" d="M 20 0 L 80 0 Q 100 0 100 13.333333333333334 L 100 86.66666666666667 Q 100 100 80 100 L 20 100 Q 0 100 0 86.66666666666667 L 0 13.333333333333334 Q 0 0 20 0 Z" stroke-miterlimit="10" stroke-width="2"/><g transform="scale(2,1.3333333333333333)"/></g></g></g></g><g data-width="50" data-height="75" data-layerId="i3afiBeV4uka" transform="translate(0,0) matrix(1,0,0,1,80,82.5)"><g><g transform="translate(0,0) scale(0.5,0.75)"><g><path fill="#FFFFFF" stroke="#333333" stroke-dasharray="1.7976931348623157e+308" vector-effect="non-scaling-stroke" d="M 20 0 L 80 0 Q 100 0 100 13.333333333333334 L 100 86.66666666666667 Q 100 100 80 100 L 20 100 Q 0 100 0 86.66666666666667 L 0 13.333333333333334 Q 0 0 20 0 Z" stroke-miterlimit="10" stroke-width="2"/><g transform="scale(2,1.3333333333333333)"/></g></g></g></g><g data-width="50" data-height="75" data-layerId="i3afiBeV4uka" transform="translate(0,0) matrix(1,0,0,1,140,82.5)"><g><g transform="translate(0,0) scale(0.5,0.75)"><g><path fill="#FFFFFF" stroke="#333333" stroke-dasharray="1.7976931348623157e+308" vector-effect="non-scaling-stroke" d="M 20 0 L 80 0 Q 100 0 100 13.333333333333334 L 100 86.66666666666667 Q 100 100 80 100 L 20 100 Q 0 100 0 86.66666666666667 L 0 13.333333333333334 Q 0 0 20 0 Z" stroke-miterlimit="10" stroke-width="2"/><g transform="scale(2,1.3333333333333333)"/></g></g></g></g><g data-width="70" data-height="73" data-layerId="i3afiBeV4uka" transform="translate(0,0) matrix(1,0,0,1,430,20)"><g><g transform="translate(0,0) scale(0.7,0.73)"><g><path fill="url(#yOKlwmWLlqcv)" stroke="#333333" stroke-dasharray="1.7976931348623157e+308" vector-effect="non-scaling-stroke" d="M 50 0 L 61.66667 38.33333 L 100 38.33333 L 70 61.66667 L 81.66667 100 L 50 76.66667 L 18.33333 100 L 31.66667 61.66667 L 0 38.33333 L 38.33333 38.33333 L 50 0 Z" stroke-miterlimit="10" stroke-width="2"/><g transform="scale(1.4285714285714286,1.36986301369863)"/></g></g></g></g><g data-width="70" data-height="73" data-layerId="i3afiBeV4uka" transform="translate(0,0) matrix(1,0,0,1,10,10)"><g><g transform="translate(0,0) scale(0.7,0.73)"><g><path fill="url(#kaHZTWKFtRCM)" stroke="#333333" stroke-dasharray="1.7976931348623157e+308" vector-effect="non-scaling-stroke" d="M 50 0 L 61.66667 38.33333 L 100 38.33333 L 70 61.66667 L 81.66667 100 L 50 76.66667 L 18.33333 100 L 31.66667 61.66667 L 0 38.33333 L 38.33333 38.33333 L 50 0 Z" stroke-miterlimit="10" stroke-width="2"/><g transform="scale(1.4285714285714286,1.36986301369863)"/></g></g></g></g><g transform="matrix(1,0,0,1,22,260)"><image width="300" height="150" preserveAspectRatio="none" xlink:href="data:image/svg+xml,%0A%20%20%20%20%20%20%20%20%20%20%20%20%3Csvg%20xmlns%3D%22http%3A%2F%2Fwww.w3.org%2F2000%2Fsvg%22%20%3E%0A%20%20%20%20%20%20%20%20%20%20%20%20%20%20%20%20%3Cstyle%3E%0A%20%20%20%20%20%20%20%20%20%20%20%20%20%20%20%20%20%20%20%20.gliffy-rte-text%20%7B%0A%20%20%20%20%20%20%20%20%20%20%20%20%20%20%20%20%20%20%20%20%20%20%20%20margin%3A0%200%3B%0A%20%20%20%20%20%20%20%20%20%20%20%20%20%20%20%20%20%20%20%20%20%20%20%20padding%3A0%200%3B%0A%20%20%20%20%20%20%20%20%20%20%20%20%20%20%20%20%20%20%20%20%20%20%20%20border%3A%200%20none%3B%0A%20%20%20%20%20%20%20%20%20%20%20%20%20%20%20%20%20%20%20%20%20%20%20%20line-height%3Anormal%3B%0A%20%20%20%20%20%20%20%20%20%20%20%20%20%20%20%20%20%20%20%20%20%20%20%20color%3Ablack%3B%0A%20%20%20%20%20%20%20%20%20%20%20%20%20%20%20%20%20%20%20%20%20%20%20%20background-color%3Atransparent%3B%0A%20%20%20%20%20%20%20%20%20%20%20%20%20%20%20%20%20%20%20%20%20%20%20%20text-align%3Acenter%3B%0A%20%20%20%20%20%20%20%20%20%20%20%20%20%20%20%20%20%20%20%20%7D%0A%0A%20%20%20%20%20%20%20%20%20%20%20%20%20%20%20%20%20%20%20%20.gliffy-rte-text%20p%20%7B%0A%20%20%20%20%20%20%20%20%20%20%20%20%20%20%20%20%20%20%20%20%20%20%20%20line-height%3A%200px%3B%0A%20%20%20%20%20%20%20%20%20%20%20%20%20%20%20%20%20%20%20%20%20%20%20%20white-space%3Anormal%3B%0A%20%20%20%20%20%20%20%20%20%20%20%20%20%20%20%20%20%20%20%20%20%20%20%20word-wrap%3A%20break-word%3B%0A%20%20%20%20%20%20%20%20%20%20%20%20%20%20%20%20%20%20%20%20%20%20%20%20margin%3A%200%200%3B%0A%20%20%20%20%20%20%20%20%20%20%20%20%20%20%20%20%20%20%20%20%20%20%20%20padding%3A%200%200%3B%0A%20%20%20%20%20%20%20%20%20%20%20%20%20%20%20%20%20%20%20%20%20%20%20%20border%3A%200%20none%3B%0A%20%20%20%20%20%20%20%20%20%20%20%20%20%20%20%20%20%20%20%20%20%20%20%20font-size%3A12px%3B%0A%20%20%20%20%20%20%20%20%20%20%20%20%20%20%20%20%20%20%20%20%20%20%20%20font-family%3AArial%3B%0A%20%20%20%20%20%20%20%20%20%20%20%20%20%20%20%20%20%20%20%20%7D%0A%0A%20%20%20%20%20%20%20%20%20%20%20%20%20%20%20%20%20%20%20%20%2F*otherwise%20we%20want%20to%20fix%20the%20color%20to%20blue*%2F%0A%20%20%20%20%20%20%20%20%20%20%20%20%20%20%20%20%20%20%20%20.gliffy-rte-text%20p%20a%20%7B%0A%20%20%20%20%20%20%20%20%20%20%20%20%20%20%20%20%20%20%20%20%20%20%20%20color%3A%20%230000FF%3B%0A%20%20%20%20%20%20%20%20%20%20%20%20%20%20%20%20%20%20%20%20%20%20%20%20text-decoration%3A%20underline%3B%0A%20%20%20%20%20%20%20%20%20%20%20%20%20%20%20%20%20%20%20%20%7D%0A%0A%20%20%20%20%20%20%20%20%20%20%20%20%20%20%20%20%20%20%20%20.gliffy-rte-text%20p%20a%20span%20%7B%0A%20%20%20%20%20%20%20%20%20%20%20%20%20%20%20%20%20%20%20%20%20%20%20%20%2F*this%20!important%20is%20actually%20required.%0A%20%20%20%20%20%20%20%20%20%20%20%20%20%20%20%20%20%20%20%20%20%20%20%20We%20need%20to%20override%20the%20text-decoration%20property%20that%20tinyMCE%20shoves%20into%20the%20span*%2F%0A%20%20%20%20%20%20%20%20%20%20%20%20%20%20%20%20%20%20%20%20%20%20%20%20text-decoration%3A%20underline%20!important%3B%0A%20%20%20%20%20%20%20%20%20%20%20%20%20%20%20%20%20%20%20%20%7D%0A%20%20%20%20%20%20%20%20%20%20%20%20%20%20%20%20%3C%2Fstyle%3E%0A%20%20%20%20%20%20%20%20%20%20%20%20%20%20%20%20%3CforeignObject%20width%3D%22100%25%22%20height%3D%22100%25%22%3E%0A%20%20%20%20%20%20%20%20%20%20%20%20%20%20%20%20%20%20%20%20%3Cdiv%20xmlns%3D%22http%3A%2F%2Fwww.w3.org%2F1999%2Fxhtml%22%20id%3D%22gliffy_node_23%22%20class%3D%22gliffy-text%20gliffy-graphic%20gliffy-rte-text%20n23%20gliffy-text-standalone%20gliffy_node_23%22%20style%3D%22width%3A%20195px%3B%20height%3A%2020.5px%3B%20visibility%3A%20visible%3B%20overflow%3A%20visible%3B%20margin%3A%200px%3B%20padding%3A%200px%3B%20background-color%3A%20transparent%3B%20transform%3A%20none%3B%20transform-origin%3A%200px%200px%3B%20top%3A%200px%3B%20left%3A%200px%3B%20position%3A%20absolute%3B%20z-index%3A%2015%3B%22%3E%3Cp%20style%3D%22text-align%3A%20left%3B%22%3E%3Cspan%20style%3D%22font-family%3A%20Arial%3B%20font-size%3A%2018px%3B%22%3E%3Cspan%20style%3D%22line-height%3A%2020.5px%3B%22%3EAbstractions%3C%2Fspan%3E%3C%2Fspan%3E%3C%2Fp%3E%3C%2Fdiv%3E%0A%20%20%20%20%20%20%20%20%20%20%20%20%20%20%20%20%3C%2FforeignObject%3E%0A%20%20%20%20%20%20%20%20%20%20%20%20%3C%2Fsvg%3E%0A%20%20%20%20%20%20%20%20" transform="translate(0,0)"/></g><g transform="matrix(1,0,0,1,423,260)"><image width="300" height="150" preserveAspectRatio="none" xlink:href="data:image/svg+xml,%0A%20%20%20%20%20%20%20%20%20%20%20%20%3Csvg%20xmlns%3D%22http%3A%2F%2Fwww.w3.org%2F2000%2Fsvg%22%20%3E%0A%20%20%20%20%20%20%20%20%20%20%20%20%20%20%20%20%3Cstyle%3E%0A%20%20%20%20%20%20%20%20%20%20%20%20%20%20%20%20%20%20%20%20.gliffy-rte-text%20%7B%0A%20%20%20%20%20%20%20%20%20%20%20%20%20%20%20%20%20%20%20%20%20%20%20%20margin%3A0%200%3B%0A%20%20%20%20%20%20%20%20%20%20%20%20%20%20%20%20%20%20%20%20%20%20%20%20padding%3A0%200%3B%0A%20%20%20%20%20%20%20%20%20%20%20%20%20%20%20%20%20%20%20%20%20%20%20%20border%3A%200%20none%3B%0A%20%20%20%20%20%20%20%20%20%20%20%20%20%20%20%20%20%20%20%20%20%20%20%20line-height%3Anormal%3B%0A%20%20%20%20%20%20%20%20%20%20%20%20%20%20%20%20%20%20%20%20%20%20%20%20color%3Ablack%3B%0A%20%20%20%20%20%20%20%20%20%20%20%20%20%20%20%20%20%20%20%20%20%20%20%20background-color%3Atransparent%3B%0A%20%20%20%20%20%20%20%20%20%20%20%20%20%20%20%20%20%20%20%20%20%20%20%20text-align%3Acenter%3B%0A%20%20%20%20%20%20%20%20%20%20%20%20%20%20%20%20%20%20%20%20%7D%0A%0A%20%20%20%20%20%20%20%20%20%20%20%20%20%20%20%20%20%20%20%20.gliffy-rte-text%20p%20%7B%0A%20%20%20%20%20%20%20%20%20%20%20%20%20%20%20%20%20%20%20%20%20%20%20%20line-height%3A%200px%3B%0A%20%20%20%20%20%20%20%20%20%20%20%20%20%20%20%20%20%20%20%20%20%20%20%20white-space%3Anormal%3B%0A%20%20%20%20%20%20%20%20%20%20%20%20%20%20%20%20%20%20%20%20%20%20%20%20word-wrap%3A%20break-word%3B%0A%20%20%20%20%20%20%20%20%20%20%20%20%20%20%20%20%20%20%20%20%20%20%20%20margin%3A%200%200%3B%0A%20%20%20%20%20%20%20%20%20%20%20%20%20%20%20%20%20%20%20%20%20%20%20%20padding%3A%200%200%3B%0A%20%20%20%20%20%20%20%20%20%20%20%20%20%20%20%20%20%20%20%20%20%20%20%20border%3A%200%20none%3B%0A%20%20%20%20%20%20%20%20%20%20%20%20%20%20%20%20%20%20%20%20%20%20%20%20font-size%3A12px%3B%0A%20%20%20%20%20%20%20%20%20%20%20%20%20%20%20%20%20%20%20%20%20%20%20%20font-family%3AArial%3B%0A%20%20%20%20%20%20%20%20%20%20%20%20%20%20%20%20%20%20%20%20%7D%0A%0A%20%20%20%20%20%20%20%20%20%20%20%20%20%20%20%20%20%20%20%20%2F*otherwise%20we%20want%20to%20fix%20the%20color%20to%20blue*%2F%0A%20%20%20%20%20%20%20%20%20%20%20%20%20%20%20%20%20%20%20%20.gliffy-rte-text%20p%20a%20%7B%0A%20%20%20%20%20%20%20%20%20%20%20%20%20%20%20%20%20%20%20%20%20%20%20%20color%3A%20%230000FF%3B%0A%20%20%20%20%20%20%20%20%20%20%20%20%20%20%20%20%20%20%20%20%20%20%20%20text-decoration%3A%20underline%3B%0A%20%20%20%20%20%20%20%20%20%20%20%20%20%20%20%20%20%20%20%20%7D%0A%0A%20%20%20%20%20%20%20%20%20%20%20%20%20%20%20%20%20%20%20%20.gliffy-rte-text%20p%20a%20span%20%7B%0A%20%20%20%20%20%20%20%20%20%20%20%20%20%20%20%20%20%20%20%20%20%20%20%20%2F*this%20!important%20is%20actually%20required.%0A%20%20%20%20%20%20%20%20%20%20%20%20%20%20%20%20%20%20%20%20%20%20%20%20We%20need%20to%20override%20the%20text-decoration%20property%20that%20tinyMCE%20shoves%20into%20the%20span*%2F%0A%20%20%20%20%20%20%20%20%20%20%20%20%20%20%20%20%20%20%20%20%20%20%20%20text-decoration%3A%20underline%20!important%3B%0A%20%20%20%20%20%20%20%20%20%20%20%20%20%20%20%20%20%20%20%20%7D%0A%20%20%20%20%20%20%20%20%20%20%20%20%20%20%20%20%3C%2Fstyle%3E%0A%20%20%20%20%20%20%20%20%20%20%20%20%20%20%20%20%3CforeignObject%20width%3D%22100%25%22%20height%3D%22100%25%22%3E%0A%20%20%20%20%20%20%20%20%20%20%20%20%20%20%20%20%20%20%20%20%3Cdiv%20xmlns%3D%22http%3A%2F%2Fwww.w3.org%2F1999%2Fxhtml%22%20id%3D%22gliffy_node_24%22%20class%3D%22gliffy-text%20gliffy-graphic%20gliffy-rte-text%20n24%20gliffy-text-standalone%20gliffy_node_24%22%20style%3D%22width%3A%20195px%3B%20height%3A%2020.5px%3B%20visibility%3A%20visible%3B%20overflow%3A%20visible%3B%20margin%3A%200px%3B%20padding%3A%200px%3B%20background-color%3A%20transparent%3B%20transform%3A%20none%3B%20transform-origin%3A%200px%200px%3B%20top%3A%200px%3B%20left%3A%200px%3B%20position%3A%20absolute%3B%20z-index%3A%2016%3B%22%3E%3Cp%20style%3D%22text-align%3A%20right%3B%22%3E%3Cspan%20style%3D%22font-family%3A%20Arial%3B%20font-size%3A%2018px%3B%22%3E%3Cspan%20style%3D%22line-height%3A%2020.5px%3B%22%3EComplexity%3C%2Fspan%3E%3C%2Fspan%3E%3C%2Fp%3E%3C%2Fdiv%3E%0A%20%20%20%20%20%20%20%20%20%20%20%20%20%20%20%20%3C%2FforeignObject%3E%0A%20%20%20%20%20%20%20%20%20%20%20%20%3C%2Fsvg%3E%0A%20%20%20%20%20%20%20%20" transform="translate(0,0)"/></g></g></svg>