<svg version="1.1" viewBox="0.0 0.0 486.0 545.0" fill="none" stroke="none" stroke-linecap="square" stroke-miterlimit="10" width="486" height="545" xmlns:xlink="http://www.w3.org/1999/xlink" xmlns="http://www.w3.org/2000/svg"><path fill="#ffffff" d="M0 0L486.0 0L486.0 545.0L0 545.0L0 0Z" fill-rule="nonzero"/><path stroke="#333333" stroke-width="1.0" stroke-linecap="butt" d="M94.5 493.5L461.5 493.5" fill-rule="nonzero"/><path stroke="#cccccc" stroke-width="1.0" stroke-linecap="butt" d="M94.5 474.5L461.5 474.5" fill-rule="nonzero"/><path stroke="#cccccc" stroke-width="1.0" stroke-linecap="butt" d="M94.5 455.5L461.5 455.5" fill-rule="nonzero"/><path stroke="#cccccc" stroke-width="1.0" stroke-linecap="butt" d="M94.5 436.5L461.5 436.5" fill-rule="nonzero"/><path stroke="#cccccc" stroke-width="1.0" stroke-linecap="butt" d="M94.5 416.5L461.5 416.5" fill-rule="nonzero"/><path stroke="#cccccc" stroke-width="1.0" stroke-linecap="butt" d="M94.5 397.5L461.5 397.5" fill-rule="nonzero"/><path stroke="#cccccc" stroke-width="1.0" stroke-linecap="butt" d="M94.5 378.5L461.5 378.5" fill-rule="nonzero"/><path stroke="#cccccc" stroke-width="1.0" stroke-linecap="butt" d="M94.5 359.5L461.5 359.5" fill-rule="nonzero"/><path stroke="#cccccc" stroke-width="1.0" stroke-linecap="butt" d="M94.5 340.5L461.5 340.5" fill-rule="nonzero"/><path stroke="#cccccc" stroke-width="1.0" stroke-linecap="butt" d="M94.5 320.5L461.5 320.5" fill-rule="nonzero"/><path stroke="#cccccc" stroke-width="1.0" stroke-linecap="butt" d="M94.5 301.5L461.5 301.5" fill-rule="nonzero"/><path stroke="#cccccc" stroke-width="1.0" stroke-linecap="butt" d="M94.5 282.5L461.5 282.5" fill-rule="nonzero"/><path stroke="#cccccc" stroke-width="1.0" stroke-linecap="butt" d="M94.5 263.5L461.5 263.5" fill-rule="nonzero"/><path stroke="#cccccc" stroke-width="1.0" stroke-linecap="butt" d="M94.5 244.5L461.5 244.5" fill-rule="nonzero"/><path stroke="#cccccc" stroke-width="1.0" stroke-linecap="butt" d="M94.5 225.5L461.5 225.5" fill-rule="nonzero"/><path stroke="#cccccc" stroke-width="1.0" stroke-linecap="butt" d="M94.5 205.5L461.5 205.5" fill-rule="nonzero"/><path stroke="#cccccc" stroke-width="1.0" stroke-linecap="butt" d="M94.5 186.5L461.5 186.5" fill-rule="nonzero"/><path stroke="#cccccc" stroke-width="1.0" stroke-linecap="butt" d="M94.5 167.5L461.5 167.5" fill-rule="nonzero"/><path stroke="#cccccc" stroke-width="1.0" stroke-linecap="butt" d="M94.5 148.5L461.5 148.5" fill-rule="nonzero"/><path stroke="#cccccc" stroke-width="1.0" stroke-linecap="butt" d="M94.5 129.5L461.5 129.5" fill-rule="nonzero"/><path stroke="#cccccc" stroke-width="1.0" stroke-linecap="butt" d="M94.5 109.5L461.5 109.5" fill-rule="nonzero"/><path stroke="#cccccc" stroke-width="1.0" stroke-linecap="butt" d="M94.5 90.5L461.5 90.5" fill-rule="nonzero"/><path stroke="#cccccc" stroke-width="1.0" stroke-linecap="butt" d="M94.5 71.5L461.5 71.5" fill-rule="nonzero"/><path stroke="#000000" stroke-width="1.0" stroke-linecap="butt" stroke-opacity="0.0" d="M94.5 487.5L461.5 487.5" fill-rule="nonzero"/><path stroke="#000000" stroke-width="1.0" stroke-linecap="butt" stroke-opacity="0.0" d="M94.5 480.5L461.5 480.5" fill-rule="nonzero"/><path stroke="#000000" stroke-width="1.0" stroke-linecap="butt" stroke-opacity="0.0" d="M94.5 468.5L461.5 468.5" fill-rule="nonzero"/><path stroke="#000000" stroke-width="1.0" stroke-linecap="butt" stroke-opacity="0.0" d="M94.5 461.5L461.5 461.5" fill-rule="nonzero"/><path stroke="#000000" stroke-width="1.0" stroke-linecap="butt" stroke-opacity="0.0" d="M94.5 448.5L461.5 448.5" fill-rule="nonzero"/><path stroke="#000000" stroke-width="1.0" stroke-linecap="butt" stroke-opacity="0.0" d="M94.5 442.5L461.5 442.5" fill-rule="nonzero"/><path stroke="#000000" stroke-width="1.0" stroke-linecap="butt" stroke-opacity="0.0" d="M94.5 429.5L461.5 429.5" fill-rule="nonzero"/><path stroke="#000000" stroke-width="1.0" stroke-linecap="butt" stroke-opacity="0.0" d="M94.5 423.5L461.5 423.5" fill-rule="nonzero"/><path stroke="#000000" stroke-width="1.0" stroke-linecap="butt" stroke-opacity="0.0" d="M94.5 410.5L461.5 410.5" fill-rule="nonzero"/><path stroke="#000000" stroke-width="1.0" stroke-linecap="butt" stroke-opacity="0.0" d="M94.5 404.5L461.5 404.5" fill-rule="nonzero"/><path stroke="#000000" stroke-width="1.0" stroke-linecap="butt" stroke-opacity="0.0" d="M94.5 391.5L461.5 391.5" fill-rule="nonzero"/><path stroke="#000000" stroke-width="1.0" stroke-linecap="butt" stroke-opacity="0.0" d="M94.5 384.5L461.5 384.5" fill-rule="nonzero"/><path stroke="#000000" stroke-width="1.0" stroke-linecap="butt" stroke-opacity="0.0" d="M94.5 372.5L461.5 372.5" fill-rule="nonzero"/><path stroke="#000000" stroke-width="1.0" stroke-linecap="butt" stroke-opacity="0.0" d="M94.5 365.5L461.5 365.5" fill-rule="nonzero"/><path stroke="#000000" stroke-width="1.0" stroke-linecap="butt" stroke-opacity="0.0" d="M94.5 352.5L461.5 352.5" fill-rule="nonzero"/><path stroke="#000000" stroke-width="1.0" stroke-linecap="butt" stroke-opacity="0.0" d="M94.5 346.5L461.5 346.5" fill-rule="nonzero"/><path stroke="#000000" stroke-width="1.0" stroke-linecap="butt" stroke-opacity="0.0" d="M94.5 333.5L461.5 333.5" fill-rule="nonzero"/><path stroke="#000000" stroke-width="1.0" stroke-linecap="butt" stroke-opacity="0.0" d="M94.5 327.5L461.5 327.5" fill-rule="nonzero"/><path stroke="#000000" stroke-width="1.0" stroke-linecap="butt" stroke-opacity="0.0" d="M94.5 314.5L461.5 314.5" fill-rule="nonzero"/><path stroke="#000000" stroke-width="1.0" stroke-linecap="butt" stroke-opacity="0.0" d="M94.5 308.5L461.5 308.5" fill-rule="nonzero"/><path stroke="#000000" stroke-width="1.0" stroke-linecap="butt" stroke-opacity="0.0" d="M94.5 295.5L461.5 295.5" fill-rule="nonzero"/><path stroke="#000000" stroke-width="1.0" stroke-linecap="butt" stroke-opacity="0.0" d="M94.5 288.5L461.5 288.5" fill-rule="nonzero"/><path stroke="#000000" stroke-width="1.0" stroke-linecap="butt" stroke-opacity="0.0" d="M94.5 276.5L461.5 276.5" fill-rule="nonzero"/><path stroke="#000000" stroke-width="1.0" stroke-linecap="butt" stroke-opacity="0.0" d="M94.5 269.5L461.5 269.5" fill-rule="nonzero"/><path stroke="#000000" stroke-width="1.0" stroke-linecap="butt" stroke-opacity="0.0" d="M94.5 257.5L461.5 257.5" fill-rule="nonzero"/><path stroke="#000000" stroke-width="1.0" stroke-linecap="butt" stroke-opacity="0.0" d="M94.5 250.5L461.5 250.5" fill-rule="nonzero"/><path stroke="#000000" stroke-width="1.0" stroke-linecap="butt" stroke-opacity="0.0" d="M94.5 237.5L461.5 237.5" fill-rule="nonzero"/><path stroke="#000000" stroke-width="1.0" stroke-linecap="butt" stroke-opacity="0.0" d="M94.5 231.5L461.5 231.5" fill-rule="nonzero"/><path stroke="#000000" stroke-width="1.0" stroke-linecap="butt" stroke-opacity="0.0" d="M94.5 218.5L461.5 218.5" fill-rule="nonzero"/><path stroke="#000000" stroke-width="1.0" stroke-linecap="butt" stroke-opacity="0.0" d="M94.5 212.5L461.5 212.5" fill-rule="nonzero"/><path stroke="#000000" stroke-width="1.0" stroke-linecap="butt" stroke-opacity="0.0" d="M94.5 199.5L461.5 199.5" fill-rule="nonzero"/><path stroke="#000000" stroke-width="1.0" stroke-linecap="butt" stroke-opacity="0.0" d="M94.5 193.5L461.5 193.5" fill-rule="nonzero"/><path stroke="#000000" stroke-width="1.0" stroke-linecap="butt" stroke-opacity="0.0" d="M94.5 180.5L461.5 180.5" fill-rule="nonzero"/><path stroke="#000000" stroke-width="1.0" stroke-linecap="butt" stroke-opacity="0.0" d="M94.5 173.5L461.5 173.5" fill-rule="nonzero"/><path stroke="#000000" stroke-width="1.0" stroke-linecap="butt" stroke-opacity="0.0" d="M94.5 161.5L461.5 161.5" fill-rule="nonzero"/><path stroke="#000000" stroke-width="1.0" stroke-linecap="butt" stroke-opacity="0.0" d="M94.5 154.5L461.5 154.5" fill-rule="nonzero"/><path stroke="#000000" stroke-width="1.0" stroke-linecap="butt" stroke-opacity="0.0" d="M94.5 141.5L461.5 141.5" fill-rule="nonzero"/><path stroke="#000000" stroke-width="1.0" stroke-linecap="butt" stroke-opacity="0.0" d="M94.5 135.5L461.5 135.5" fill-rule="nonzero"/><path stroke="#000000" stroke-width="1.0" stroke-linecap="butt" stroke-opacity="0.0" d="M94.5 122.5L461.5 122.5" fill-rule="nonzero"/><path stroke="#000000" stroke-width="1.0" stroke-linecap="butt" stroke-opacity="0.0" d="M94.5 116.5L461.5 116.5" fill-rule="nonzero"/><path stroke="#000000" stroke-width="1.0" stroke-linecap="butt" stroke-opacity="0.0" d="M94.5 103.5L461.5 103.5" fill-rule="nonzero"/><path stroke="#000000" stroke-width="1.0" stroke-linecap="butt" stroke-opacity="0.0" d="M94.5 97.5L461.5 97.5" fill-rule="nonzero"/><path stroke="#000000" stroke-width="1.0" stroke-linecap="butt" stroke-opacity="0.0" d="M94.5 84.5L461.5 84.5" fill-rule="nonzero"/><path stroke="#000000" stroke-width="1.0" stroke-linecap="butt" stroke-opacity="0.0" d="M94.5 77.5L461.5 77.5" fill-rule="nonzero"/><clipPath id="id_0"><path d="M94.3 71.5L461.7 71.5L461.7 493.7L94.3 493.7L94.3 71.5Z" clip-rule="nonzero"/></clipPath><path stroke="#000000" stroke-width="2.0" stroke-linecap="butt" stroke-opacity="0.0" clip-path="url(#id_0)" d="M152.0 494.0L114.0 494.0L114.0 447.0C114.0 445.89542 114.89543 445.0 116.0 445.0L150.0 445.0C151.10457 445.0 152.0 445.89542 152.0 447.0Z" fill-rule="nonzero"/><path fill="#6aa84f" clip-path="url(#id_0)" d="M152.0 494.0L114.0 494.0L114.0 447.0C114.0 445.89542 114.89543 445.0 116.0 445.0L150.0 445.0C151.10457 445.0 152.0 445.89542 152.0 447.0Z" fill-rule="nonzero"/><path stroke="#000000" stroke-width="2.0" stroke-linecap="butt" stroke-opacity="0.0" clip-path="url(#id_0)" d="M210.0 494.0L172.0 494.0L172.0 372.0C172.0 370.89542 172.89543 370.0 174.0 370.0L208.0 370.0C209.10457 370.0 210.0 370.89542 210.0 372.0Z" fill-rule="nonzero"/><path fill="#4285f4" clip-path="url(#id_0)" d="M210.0 494.0L172.0 494.0L172.0 372.0C172.0 370.89542 172.89543 370.0 174.0 370.0L208.0 370.0C209.10457 370.0 210.0 370.89542 210.0 372.0Z" fill-rule="nonzero"/><path stroke="#000000" stroke-width="2.0" stroke-linecap="butt" stroke-opacity="0.0" clip-path="url(#id_0)" d="M268.0 494.0L230.0 494.0L230.0 369.0C230.0 367.89542 230.89543 367.0 232.0 367.0L266.0 367.0C267.10458 367.0 268.0 367.89542 268.0 369.0Z" fill-rule="nonzero"/><path fill="#4285f4" clip-path="url(#id_0)" d="M268.0 494.0L230.0 494.0L230.0 369.0C230.0 367.89542 230.89543 367.0 232.0 367.0L266.0 367.0C267.10458 367.0 268.0 367.89542 268.0 369.0Z" fill-rule="nonzero"/><path stroke="#000000" stroke-width="2.0" stroke-linecap="butt" stroke-opacity="0.0" clip-path="url(#id_0)" d="M326.0 494.0L288.0 494.0L288.0 225.0C288.0 223.89543 288.89542 223.0 290.0 223.0L324.0 223.0C325.10458 223.0 326.0 223.89543 326.0 225.0Z" fill-rule="nonzero"/><path fill="#ff9900" clip-path="url(#id_0)" d="M326.0 494.0L288.0 494.0L288.0 225.0C288.0 223.89543 288.89542 223.0 290.0 223.0L324.0 223.0C325.10458 223.0 326.0 223.89543 326.0 225.0Z" fill-rule="nonzero"/><path stroke="#000000" stroke-width="2.0" stroke-linecap="butt" stroke-opacity="0.0" clip-path="url(#id_0)" d="M384.0 494.0L346.0 494.0L346.0 162.0C346.0 160.89543 346.89542 160.0 348.0 160.0L382.0 160.0C383.10458 160.0 384.0 160.89543 384.0 162.0Z" fill-rule="nonzero"/><path fill="#ff9900" clip-path="url(#id_0)" d="M384.0 494.0L346.0 494.0L346.0 162.0C346.0 160.89543 346.89542 160.0 348.0 160.0L382.0 160.0C383.10458 160.0 384.0 160.89543 384.0 162.0Z" fill-rule="nonzero"/><path stroke="#000000" stroke-width="2.0" stroke-linecap="butt" stroke-opacity="0.0" clip-path="url(#id_0)" d="M442.0 494.0L404.0 494.0L404.0 94.0C404.0 92.89543 404.89542 92.0 406.0 92.0L440.0 92.0C441.10458 92.0 442.0 92.89543 442.0 94.0Z" fill-rule="nonzero"/><path fill="#ff0000" clip-path="url(#id_0)" d="M442.0 494.0L404.0 494.0L404.0 94.0C404.0 92.89543 404.89542 92.0 406.0 92.0L440.0 92.0C441.10458 92.0 442.0 92.89543 442.0 94.0Z" fill-rule="nonzero"/><path fill="#000000" d="M39.30001 363.83438L27.846888 363.83438L27.846888 358.75626Q27.846888 357.225 28.159388 356.42813Q28.456263 355.63126 29.237513 355.1625Q30.018763 354.67813 30.971888 354.67813Q32.190636 354.67813 33.034386 355.475Q33.86251 356.25626 34.08126 357.9125Q34.378136 357.30313 34.659386 356.99063Q35.26876 356.33438 36.17501 355.74063L39.30001 353.74063L39.30001 355.64688L36.909386 357.1625Q35.878136 357.83438 35.33126 358.27188Q34.784386 358.69376 34.565636 359.0375Q34.346886 359.36563 34.26876 359.725Q34.20626 359.975 34.20626 360.56876L34.20626 362.31876L39.30001 362.31876L39.30001 363.83438ZM32.89376 362.31876L32.89376 359.06876Q32.89376 358.02188 32.690636 357.44376Q32.471886 356.85 32.003136 356.55313Q31.518763 356.24063 30.971888 356.24063Q30.159388 356.24063 29.643763 356.83438Q29.112513 357.42813 29.112513 358.69376L29.112513 362.31876L32.89376 362.31876ZM36.628136 347.36563L36.80001 345.9125Q38.08126 346.25626 38.784386 347.19376Q39.48751 348.11563 39.48751 349.55313Q39.48751 351.38126 38.36251 352.44376Q37.23751 353.50626 35.221886 353.50626Q33.128136 353.50626 31.971888 352.42813Q30.815638 351.35 30.815638 349.63126Q30.815638 347.975 31.956263 346.92813Q33.08126 345.86563 35.128136 345.86563Q35.253136 345.86563 35.503136 345.86563L35.503136 352.05313Q36.878136 351.975 37.61251 351.2875Q38.33126 350.58438 38.33126 349.55313Q38.33126 348.77188 37.92501 348.225Q37.51876 347.67813 36.628136 347.36563ZM34.346886 351.975L34.346886 347.35Q33.30001 347.44376 32.784386 347.88126Q31.971888 348.55313 31.971888 349.61563Q31.971888 350.58438 32.628136 351.25626Q33.26876 351.9125 34.346886 351.975ZM36.815636 344.6L36.596886 343.20938Q37.440636 343.1 37.89376 342.56876Q38.33126 342.02188 38.33126 341.06876Q38.33126 340.1 37.940636 339.63126Q37.534386 339.1625 37.003136 339.1625Q36.534386 339.1625 36.253136 339.56876Q36.065636 339.86563 35.784386 341.00626Q35.39376 342.55313 35.11251 343.1625Q34.815636 343.75626 34.315636 344.06876Q33.815636 344.36563 33.20626 344.36563Q32.64376 344.36563 32.17501 344.11563Q31.706263 343.86563 31.393763 343.42813Q31.143763 343.1 30.987513 342.5375Q30.815638 341.95938 30.815638 341.31876Q30.815638 340.33438 31.096888 339.6Q31.378138 338.86563 31.862513 338.52188Q32.33126 338.1625 33.14376 338.02188L33.33126 339.39688Q32.690636 339.49063 32.33126 339.94376Q31.971888 340.39688 31.971888 341.20938Q31.971888 342.17813 32.30001 342.6Q32.61251 343.00626 33.034386 343.00626Q33.315636 343.00626 33.534386 342.83438Q33.753136 342.6625 33.909386 342.30313Q33.98751 342.08438 34.26876 341.05313Q34.659386 339.56876 34.92501 338.975Q35.17501 338.38126 35.659386 338.05313Q36.14376 337.70938 36.86251 337.70938Q37.565636 337.70938 38.190636 338.13126Q38.80001 338.5375 39.14376 339.31876Q39.48751 340.08438 39.48751 341.05313Q39.48751 342.67813 38.815636 343.52188Q38.14376 344.36563 36.815636 344.6ZM42.48751 336.0375L31.003138 336.0375L31.003138 334.75626L32.08126 334.75626Q31.440638 334.30313 31.128138 333.74063Q30.815638 333.1625 30.815638 332.35Q30.815638 331.2875 31.362513 330.475Q31.909388 329.6625 32.909386 329.25626Q33.89376 328.83438 35.08126 328.83438Q36.36251 328.83438 37.378136 329.30313Q38.39376 329.75626 38.940636 330.63126Q39.48751 331.49063 39.48751 332.45938Q39.48751 333.1625 39.190636 333.725Q38.89376 334.27188 38.440636 334.63126L42.48751 334.63126L42.48751 336.0375ZM35.190636 334.77188Q36.80001 334.77188 37.565636 334.13126Q38.33126 333.475 38.33126 332.55313Q38.33126 331.61563 37.534386 330.94376Q36.73751 330.27188 35.08126 330.27188Q33.48751 330.27188 32.70626 330.92813Q31.909388 331.58438 31.909388 332.49063Q31.909388 333.38126 32.753136 334.08438Q33.596886 334.77188 35.190636 334.77188ZM35.14376 327.56876Q32.846886 327.56876 31.737513 326.2875Q30.815638 325.20938 30.815638 323.67813Q30.815638 321.95938 31.940638 320.88126Q33.05001 319.7875 35.034386 319.7875Q36.628136 319.7875 37.55001 320.27188Q38.471886 320.75626 38.98751 321.67813Q39.48751 322.58438 39.48751 323.67813Q39.48751 325.4125 38.378136 326.49063Q37.253136 327.56876 35.14376 327.56876ZM35.14376 326.11563Q36.73751 326.11563 37.534386 325.42813Q38.33126 324.725 38.33126 323.67813Q38.33126 322.63126 37.534386 321.94376Q36.73751 321.24063 35.096886 321.24063Q33.565636 321.24063 32.76876 321.94376Q31.971888 322.63126 31.971888 323.67813Q31.971888 324.725 32.76876 325.42813Q33.55001 326.11563 35.14376 326.11563ZM39.30001 318.0375L31.003138 318.0375L31.003138 316.77188L32.17501 316.77188Q30.815638 315.86563 30.815638 314.13126Q30.815638 313.38126 31.081263 312.75626Q31.346888 312.13126 31.784388 311.81876Q32.221886 311.50626 32.83126 311.38126Q33.221886 311.30313 34.190636 311.30313L39.30001 311.30313L39.30001 312.70938L34.253136 312.70938Q33.39376 312.70938 32.971886 312.88126Q32.534386 313.0375 32.284386 313.45938Q32.034386 313.86563 32.034386 314.42813Q32.034386 315.33438 32.61251 315.99063Q33.17501 316.63126 34.76876 316.63126L39.30001 316.63126L39.30001 318.0375ZM36.815636 310.6L36.596886 309.20938Q37.440636 309.1 37.89376 308.56876Q38.33126 308.02188 38.33126 307.06876Q38.33126 306.1 37.940636 305.63126Q37.534386 305.1625 37.003136 305.1625Q36.534386 305.1625 36.253136 305.56876Q36.065636 305.86563 35.784386 307.00626Q35.39376 308.55313 35.11251 309.1625Q34.815636 309.75626 34.315636 310.06876Q33.815636 310.36563 33.20626 310.36563Q32.64376 310.36563 32.17501 310.11563Q31.706263 309.86563 31.393763 309.42813Q31.143763 309.1 30.987513 308.5375Q30.815638 307.95938 30.815638 307.31876Q30.815638 306.33438 31.096888 305.6Q31.378138 304.86563 31.862513 304.52188Q32.33126 304.1625 33.14376 304.02188L33.33126 305.39688Q32.690636 305.49063 32.33126 305.94376Q31.971888 306.39688 31.971888 307.20938Q31.971888 308.17813 32.30001 308.6Q32.61251 309.00626 33.034386 309.00626Q33.315636 309.00626 33.534386 308.83438Q33.753136 308.6625 33.909386 308.30313Q33.98751 308.08438 34.26876 307.05313Q34.659386 305.56876 34.92501 304.975Q35.17501 304.38126 35.659386 304.05313Q36.14376 303.70938 36.86251 303.70938Q37.565636 303.70938 38.190636 304.13126Q38.80001 304.5375 39.14376 305.31876Q39.48751 306.08438 39.48751 307.05313Q39.48751 308.67813 38.815636 309.52188Q38.14376 310.36563 36.815636 310.6ZM36.628136 296.36563L36.80001 294.9125Q38.08126 295.25626 38.784386 296.19376Q39.48751 297.11563 39.48751 298.55313Q39.48751 300.38126 38.36251 301.44376Q37.23751 302.50626 35.221886 302.50626Q33.128136 302.50626 31.971888 301.42813Q30.815638 300.35 30.815638 298.63126Q30.815638 296.975 31.956263 295.92813Q33.08126 294.86563 35.128136 294.86563Q35.253136 294.86563 35.503136 294.86563L35.503136 301.05313Q36.878136 300.975 37.61251 300.2875Q38.33126 299.58438 38.33126 298.55313Q38.33126 297.77188 37.92501 297.225Q37.51876 296.67813 36.628136 296.36563ZM34.346886 300.975L34.346886 296.35Q33.30001 296.44376 32.784386 296.88126Q31.971888 297.55313 31.971888 298.61563Q31.971888 299.58438 32.628136 300.25626Q33.26876 300.9125 34.346886 300.975ZM39.30001 285.94376L29.190638 285.94376L29.190638 289.725L27.846888 289.725L27.846888 280.64688L29.190638 280.64688L29.190638 284.42813L39.30001 284.42813L39.30001 285.94376ZM29.456263 280.0375L27.846888 280.0375L27.846888 278.63126L29.456263 278.63126L29.456263 280.0375ZM39.30001 280.0375L31.003138 280.0375L31.003138 278.63126L39.30001 278.63126L39.30001 280.0375ZM39.30001 276.0375L31.003138 276.0375L31.003138 274.7875L32.159386 274.7875Q31.550013 274.39688 31.190638 273.75626Q30.815638 273.1 30.815638 272.27188Q30.815638 271.35 31.206263 270.75626Q31.581263 270.1625 32.26876 269.92813Q30.815638 268.94376 30.815638 267.36563Q30.815638 266.13126 31.503138 265.475Q32.17501 264.80313 33.596886 264.80313L39.30001 264.80313L39.30001 266.19376L34.065636 266.19376Q33.221886 266.19376 32.86251 266.33438Q32.48751 266.475 32.26876 266.83438Q32.034386 267.19376 32.034386 267.67813Q32.034386 268.55313 32.61251 269.13126Q33.190636 269.70938 34.471886 269.70938L39.30001 269.70938L39.30001 271.11563L33.909386 271.11563Q32.971886 271.11563 32.503136 271.45938Q32.034386 271.80313 32.034386 272.58438Q32.034386 273.17813 32.346886 273.67813Q32.659386 274.17813 33.26876 274.4125Q33.86251 274.63126 34.98751 274.63126L39.30001 274.63126L39.30001 276.0375ZM36.628136 257.36563L36.80001 255.9125Q38.08126 256.25626 38.784386 257.19376Q39.48751 258.11563 39.48751 259.55313Q39.48751 261.38126 38.36251 262.44376Q37.23751 263.50626 35.221886 263.50626Q33.128136 263.50626 31.971888 262.42813Q30.815638 261.35 30.815638 259.63126Q30.815638 257.975 31.956263 256.92813Q33.08126 255.86563 35.128136 255.86563Q35.253136 255.86563 35.503136 255.86563L35.503136 262.05313Q36.878136 261.975 37.61251 261.2875Q38.33126 260.58438 38.33126 259.55313Q38.33126 258.77188 37.92501 258.225Q37.51876 257.67813 36.628136 257.36563ZM34.346886 261.975L34.346886 257.35Q33.30001 257.44376 32.784386 257.88126Q31.971888 258.55313 31.971888 259.61563Q31.971888 260.58438 32.628136 261.25626Q33.26876 261.9125 34.346886 261.975ZM42.67501 247.35Q41.20626 248.52188 39.23751 249.33438Q37.253136 250.13126 35.14376 250.13126Q33.284386 250.13126 31.581263 249.52188Q29.612513 248.81876 27.643763 247.35L27.643763 246.35Q29.268763 247.2875 29.971888 247.6Q31.050013 248.06876 32.221886 248.35Q33.67501 248.67813 35.159386 248.67813Q38.909386 248.67813 42.67501 246.35L42.67501 247.35ZM39.30001 245.0375L31.003138 245.0375L31.003138 243.7875L32.159386 243.7875Q31.550013 243.39688 31.190638 242.75626Q30.815638 242.1 30.815638 241.27188Q30.815638 240.35 31.206263 239.75626Q31.581263 239.1625 32.26876 238.92813Q30.815638 237.94376 30.815638 236.36563Q30.815638 235.13126 31.503138 234.475Q32.17501 233.80313 33.596886 233.80313L39.30001 233.80313L39.30001 235.19376L34.065636 235.19376Q33.221886 235.19376 32.86251 235.33438Q32.48751 235.475 32.26876 235.83438Q32.034386 236.19376 32.034386 236.67813Q32.034386 237.55313 32.61251 238.13126Q33.190636 238.70938 34.471886 238.70938L39.30001 238.70938L39.30001 240.11563L33.909386 240.11563Q32.971886 240.11563 32.503136 240.45938Q32.034386 240.80313 32.034386 241.58438Q32.034386 242.17813 32.346886 242.67813Q32.659386 243.17813 33.26876 243.4125Q33.86251 243.63126 34.98751 243.63126L39.30001 243.63126L39.30001 245.0375ZM36.815636 232.6L36.596886 231.20938Q37.440636 231.1 37.89376 230.56876Q38.33126 230.02188 38.33126 229.06876Q38.33126 228.1 37.940636 227.63126Q37.534386 227.1625 37.003136 227.1625Q36.534386 227.1625 36.253136 227.56876Q36.065636 227.86563 35.784386 229.00626Q35.39376 230.55313 35.11251 231.1625Q34.815636 231.75626 34.315636 232.06876Q33.815636 232.36563 33.20626 232.36563Q32.64376 232.36563 32.17501 232.11563Q31.706263 231.86563 31.393763 231.42813Q31.143763 231.1 30.987513 230.5375Q30.815638 229.95938 30.815638 229.31876Q30.815638 228.33438 31.096888 227.6Q31.378138 226.86563 31.862513 226.52188Q32.33126 226.1625 33.14376 226.02188L33.33126 227.39688Q32.690636 227.49063 32.33126 227.94376Q31.971888 228.39688 31.971888 229.20938Q31.971888 230.17813 32.30001 230.6Q32.61251 231.00626 33.034386 231.00626Q33.315636 231.00626 33.534386 230.83438Q33.753136 230.6625 33.909386 230.30313Q33.98751 230.08438 34.26876 229.05313Q34.659386 227.56876 34.92501 226.975Q35.17501 226.38126 35.659386 226.05313Q36.14376 225.70938 36.86251 225.70938Q37.565636 225.70938 38.190636 226.13126Q38.80001 226.5375 39.14376 227.31876Q39.48751 228.08438 39.48751 229.05313Q39.48751 230.67813 38.815636 231.52188Q38.14376 232.36563 36.815636 232.6ZM42.67501 223.11563L42.67501 224.13126Q38.909386 221.7875 35.159386 221.7875Q33.690636 221.7875 32.23751 222.13126Q31.065638 222.39688 29.987513 222.86563Q29.284388 223.17813 27.643763 224.13126L27.643763 223.11563Q29.612513 221.64688 31.581263 220.94376Q33.284386 220.35 35.14376 220.35Q37.253136 220.35 39.23751 221.1625Q41.20626 221.95938 42.67501 223.11563Z" fill-rule="nonzero"/><path fill="#000000" d="M81.8 493.46564Q81.8 491.9344 82.1125 491.0125Q82.425 490.075 83.03438 489.575Q83.65938 489.075 84.59688 489.075Q85.28438 489.075 85.8 489.35626Q86.33125 489.6375 86.675 490.16876Q87.01875 490.6844 87.20625 491.4344Q87.39375 492.1844 87.39375 493.46564Q87.39375 494.98126 87.08125 495.90314Q86.78438 496.825 86.15938 497.34064Q85.55 497.84064 84.59688 497.84064Q83.3625 497.84064 82.64375 496.95Q81.8 495.8875 81.8 493.46564ZM82.87813 493.46564Q82.87813 495.575 83.37813 496.27814Q83.87813 496.98126 84.59688 496.98126Q85.33125 496.98126 85.81563 496.27814Q86.31563 495.575 86.31563 493.46564Q86.31563 491.34064 85.81563 490.65314Q85.33125 489.95 84.58125 489.95Q83.8625 489.95 83.425 490.5594Q82.87813 491.34064 82.87813 493.46564Z" fill-rule="nonzero"/><path fill="#000000" d="M85.76875 478.5091L84.72188 478.5091L84.72188 471.79034Q84.33125 472.14972 83.70625 472.52472Q83.09688 472.8841 82.6125 473.05597L82.6125 472.04034Q83.4875 471.61847 84.14375 471.04034Q84.81563 470.4466 85.09688 469.8841L85.76875 469.8841L85.76875 478.5091Z" fill-rule="nonzero"/><path fill="#000000" d="M87.34688 458.30255L87.34688 459.31818L81.65938 459.31818Q81.65938 458.94318 81.78438 458.5838Q82.00313 458.00568 82.47188 457.44318Q82.95625 456.88068 83.8625 456.1463Q85.26875 454.99005 85.75313 454.31818Q86.25313 453.6463 86.25313 453.05255Q86.25313 452.42755 85.8 452.00568Q85.34688 451.56818 84.62813 451.56818Q83.8625 451.56818 83.40938 452.0213Q82.95625 452.47443 82.94063 453.28693L81.8625 453.17755Q81.97188 451.9588 82.69063 451.3338Q83.425 450.69318 84.65938 450.69318Q85.89375 450.69318 86.6125 451.38068Q87.33125 452.06818 87.33125 453.0838Q87.33125 453.59943 87.1125 454.09943Q86.90938 454.5838 86.40938 455.1463Q85.925 455.69318 84.8 456.6463Q83.84688 457.44318 83.56563 457.74005Q83.3 458.0213 83.12813 458.30255L87.34688 458.30255Z" fill-rule="nonzero"/><path fill="#000000" d="M81.8 437.86163L82.8625 437.721Q83.03438 438.61163 83.47188 439.01788Q83.90938 439.4085 84.53438 439.4085Q85.28438 439.4085 85.8 438.89288Q86.31563 438.37726 86.31563 437.61163Q86.31563 436.89288 85.83125 436.42413Q85.3625 435.93976 84.62813 435.93976Q84.33125 435.93976 83.87813 436.06476L84.00313 435.12726Q84.1125 435.14288 84.175 435.14288Q84.84688 435.14288 85.37813 434.79913Q85.925 434.43976 85.925 433.70538Q85.925 433.12726 85.53438 432.75226Q85.14375 432.36163 84.51875 432.36163Q83.90938 432.36163 83.4875 432.75226Q83.08125 433.14288 82.97188 433.9085L81.90938 433.721Q82.09688 432.67413 82.78438 432.096Q83.47188 431.50226 84.4875 431.50226Q85.19063 431.50226 85.78438 431.81476Q86.37813 432.11163 86.69063 432.62726Q87.00313 433.14288 87.00313 433.73663Q87.00313 434.2835 86.70625 434.75226Q86.40938 435.20538 85.83125 435.471Q86.58125 435.64288 87.00313 436.20538Q87.425 436.75226 87.425 437.596Q87.425 438.721 86.59688 439.50226Q85.78438 440.2835 84.53438 440.2835Q83.40938 440.2835 82.65938 439.61163Q81.90938 438.92413 81.8 437.86163Z" fill-rule="nonzero"/><path fill="#000000" d="M85.175 420.93637L85.175 418.87387L81.45625 418.87387L81.45625 417.90512L85.37813 412.34262L86.2375 412.34262L86.2375 417.90512L87.39375 417.90512L87.39375 418.87387L86.2375 418.87387L86.2375 420.93637L85.175 420.93637ZM85.175 417.90512L85.175 414.04575L82.4875 417.90512L85.175 417.90512Z" fill-rule="nonzero"/><path fill="#000000" d="M81.8 399.49545L82.90938 399.4017Q83.03438 400.2142 83.47188 400.62045Q83.925 401.0267 84.56563 401.0267Q85.31563 401.0267 85.84688 400.44858Q86.37813 399.87045 86.37813 398.93295Q86.37813 398.0267 85.8625 397.51108Q85.3625 396.97983 84.53438 396.97983Q84.03438 396.97983 83.6125 397.2142Q83.20625 397.44858 82.97188 397.80795L81.9875 397.68295L82.81563 393.2767L87.09688 393.2767L87.09688 394.2767L83.65938 394.2767L83.20625 396.5892Q83.97188 396.04233 84.81563 396.04233Q85.94063 396.04233 86.70625 396.82358Q87.4875 397.60483 87.4875 398.8392Q87.4875 399.99545 86.81563 400.85483Q85.9875 401.88608 84.56563 401.88608Q83.39375 401.88608 82.64375 401.22983Q81.90938 400.57358 81.8 399.49545Z" fill-rule="nonzero"/><path fill="#000000" d="M87.26875 376.07016L86.22188 376.1483Q86.08125 375.5233 85.83125 375.24203Q85.39375 374.7889 84.76875 374.7889Q84.26875 374.7889 83.87813 375.07016Q83.39375 375.44516 83.09688 376.1483Q82.81563 376.8358 82.8 378.11703Q83.175 377.5389 83.72188 377.25766Q84.28438 376.9764 84.89375 376.9764Q85.94063 376.9764 86.675 377.75766Q87.425 378.5389 87.425 379.75766Q87.425 380.57016 87.06563 381.2733Q86.72188 381.9608 86.1125 382.3358Q85.50313 382.69516 84.7375 382.69516Q83.40938 382.69516 82.58125 381.7264Q81.75313 380.75766 81.75313 378.5389Q81.75313 376.0389 82.675 374.9139Q83.47188 373.92953 84.83125 373.92953Q85.84688 373.92953 86.4875 374.50766Q87.14375 375.07016 87.26875 376.07016ZM82.97188 379.7733Q82.97188 380.32016 83.19063 380.82016Q83.425 381.30453 83.83125 381.57016Q84.25313 381.8358 84.72188 381.8358Q85.37813 381.8358 85.8625 381.30453Q86.34688 380.75766 86.34688 379.8358Q86.34688 378.94516 85.8625 378.42953Q85.39375 377.9139 84.675 377.9139Q83.95625 377.9139 83.45625 378.42953Q82.97188 378.94516 82.97188 379.7733Z" fill-rule="nonzero"/><path fill="#000000" d="M81.8625 355.8949L81.8625 354.87927L87.425 354.87927L87.425 355.7074Q86.6125 356.5824 85.8 358.03552Q85.00313 359.47302 84.56563 361.00427Q84.2375 362.0824 84.15938 363.36365L83.06563 363.36365Q83.08125 362.34802 83.45625 360.91052Q83.84688 359.47302 84.55 358.1449Q85.26875 356.81677 86.08125 355.8949L81.8625 355.8949Z" fill-rule="nonzero"/><path fill="#000000" d="M83.425 339.51648Q82.76875 339.26648 82.44063 338.82898Q82.12813 338.37585 82.12813 337.76648Q82.12813 336.82898 82.8 336.18835Q83.4875 335.54773 84.59688 335.54773Q85.72188 335.54773 86.40938 336.20398Q87.09688 336.86023 87.09688 337.79773Q87.09688 338.39148 86.78438 338.82898Q86.47188 339.26648 85.83125 339.51648Q86.62813 339.76648 87.03438 340.3446Q87.44063 340.92273 87.44063 341.7196Q87.44063 342.81335 86.65938 343.56335Q85.89375 344.31335 84.6125 344.31335Q83.34688 344.31335 82.56563 343.56335Q81.78438 342.81335 81.78438 341.68835Q81.78438 340.8446 82.20625 340.2821Q82.64375 339.7196 83.425 339.51648ZM83.20625 337.7196Q83.20625 338.32898 83.59688 338.7196Q84.00313 339.11023 84.62813 339.11023Q85.2375 339.11023 85.62813 338.73523Q86.01875 338.3446 86.01875 337.7821Q86.01875 337.20398 85.6125 336.81335Q85.20625 336.4071 84.6125 336.4071Q84.00313 336.4071 83.59688 336.79773Q83.20625 337.18835 83.20625 337.7196ZM82.87813 341.68835Q82.87813 342.14148 83.08125 342.56335Q83.3 342.98523 83.72188 343.2196Q84.14375 343.45398 84.62813 343.45398Q85.37813 343.45398 85.8625 342.9696Q86.3625 342.48523 86.3625 341.73523Q86.3625 340.9696 85.8625 340.4696Q85.3625 339.9696 84.59688 339.9696Q83.84688 339.9696 83.3625 340.4696Q82.87813 340.95398 82.87813 341.68835Z" fill-rule="nonzero"/><path fill="#000000" d="M81.95625 322.99744L82.97188 322.9037Q83.09688 323.62244 83.45625 323.95056Q83.83125 324.26306 84.39375 324.26306Q84.87813 324.26306 85.2375 324.0443Q85.6125 323.80994 85.84688 323.45056Q86.08125 323.07556 86.2375 322.45056Q86.39375 321.80994 86.39375 321.1537Q86.39375 321.07556 86.39375 320.93494Q86.08125 321.43494 85.53438 321.76306Q84.9875 322.07556 84.34688 322.07556Q83.26875 322.07556 82.53438 321.30994Q81.8 320.5287 81.8 319.26306Q81.8 317.95056 82.56563 317.1537Q83.34688 316.3568 84.50313 316.3568Q85.33125 316.3568 86.01875 316.80994Q86.72188 317.26306 87.08125 318.1068Q87.44063 318.93494 87.44063 320.51306Q87.44063 322.1537 87.08125 323.13806Q86.7375 324.1068 86.01875 324.62244Q85.31563 325.12244 84.37813 325.12244Q83.3625 325.12244 82.72188 324.57556Q82.08125 324.01306 81.95625 322.99744ZM86.26875 319.20056Q86.26875 318.2943 85.78438 317.76306Q85.31563 317.2318 84.62813 317.2318Q83.925 317.2318 83.39375 317.80994Q82.87813 318.37244 82.87813 319.2943Q82.87813 320.1068 83.37813 320.62244Q83.87813 321.13806 84.59688 321.13806Q85.33125 321.13806 85.8 320.62244Q86.26875 320.1068 86.26875 319.20056Z" fill-rule="nonzero"/><path fill="#000000" d="M78.76875 305.79092L77.72188 305.79092L77.72188 299.07217Q77.33125 299.43155 76.70625 299.80655Q76.09688 300.16592 75.6125 300.3378L75.6125 299.32217Q76.4875 298.9003 77.14375 298.32217Q77.81563 297.72842 78.09688 297.16592L78.76875 297.16592L78.76875 305.79092ZM81.8 301.55655Q81.8 300.0253 82.1125 299.10342Q82.425 298.16592 83.03438 297.66592Q83.65938 297.16592 84.59688 297.16592Q85.28438 297.16592 85.8 297.44717Q86.33125 297.72842 86.675 298.25967Q87.01875 298.7753 87.20625 299.5253Q87.39375 300.2753 87.39375 301.55655Q87.39375 303.07217 87.08125 303.99405Q86.78438 304.91592 86.15938 305.43155Q85.55 305.93155 84.59688 305.93155Q83.3625 305.93155 82.64375 305.04092Q81.8 303.97842 81.8 301.55655ZM82.87813 301.55655Q82.87813 303.66592 83.37813 304.36905Q83.87813 305.07217 84.59688 305.07217Q85.33125 305.07217 85.81563 304.36905Q86.31563 303.66592 86.31563 301.55655Q86.31563 299.43155 85.81563 298.74405Q85.33125 298.04092 84.58125 298.04092Q83.8625 298.04092 83.425 298.6503Q82.87813 299.43155 82.87813 301.55655Z" fill-rule="nonzero"/><path fill="#000000" d="M78.76875 286.6L77.72188 286.6L77.72188 279.88126Q77.33125 280.24063 76.70625 280.61563Q76.09688 280.975 75.6125 281.14688L75.6125 280.13126Q76.4875 279.70938 77.14375 279.13126Q77.81563 278.5375 78.09688 277.975L78.76875 277.975L78.76875 286.6ZM85.76875 286.6L84.72188 286.6L84.72188 279.88126Q84.33125 280.24063 83.70625 280.61563Q83.09688 280.975 82.6125 281.14688L82.6125 280.13126Q83.4875 279.70938 84.14375 279.13126Q84.81563 278.5375 85.09688 277.975L85.76875 277.975L85.76875 286.6Z" fill-rule="nonzero"/><path fill="#000000" d="M78.76875 267.4091L77.72188 267.4091L77.72188 260.69034Q77.33125 261.0497 76.70625 261.4247Q76.09688 261.7841 75.6125 261.95596L75.6125 260.94034Q76.4875 260.51846 77.14375 259.94034Q77.81563 259.3466 78.09688 258.7841L78.76875 258.7841L78.76875 267.4091ZM87.34688 266.39346L87.34688 267.4091L81.65938 267.4091Q81.65938 267.0341 81.78438 266.6747Q82.00313 266.0966 82.47188 265.5341Q82.95625 264.9716 83.8625 264.2372Q85.26875 263.08096 85.75313 262.4091Q86.25313 261.7372 86.25313 261.14346Q86.25313 260.51846 85.8 260.0966Q85.34688 259.6591 84.62813 259.6591Q83.8625 259.6591 83.40938 260.1122Q82.95625 260.56534 82.94063 261.37784L81.8625 261.26846Q81.97188 260.0497 82.69063 259.4247Q83.425 258.7841 84.65938 258.7841Q85.89375 258.7841 86.6125 259.4716Q87.33125 260.1591 87.33125 261.1747Q87.33125 261.69034 87.1125 262.19034Q86.90938 262.6747 86.40938 263.2372Q85.925 263.7841 84.8 264.7372Q83.84688 265.5341 83.56563 265.83096Q83.3 266.1122 83.12813 266.39346L87.34688 266.39346Z" fill-rule="nonzero"/><path fill="#000000" d="M78.76875 248.21819L77.72188 248.21819L77.72188 241.49944Q77.33125 241.85881 76.70625 242.23381Q76.09688 242.59319 75.6125 242.76506L75.6125 241.74944Q76.4875 241.32756 77.14375 240.74944Q77.81563 240.15569 78.09688 239.59319L78.76875 239.59319L78.76875 248.21819ZM81.8 245.95256L82.8625 245.81194Q83.03438 246.70256 83.47188 247.10881Q83.90938 247.49944 84.53438 247.49944Q85.28438 247.49944 85.8 246.98381Q86.31563 246.46819 86.31563 245.70256Q86.31563 244.98381 85.83125 244.51506Q85.3625 244.03069 84.62813 244.03069Q84.33125 244.03069 83.87813 244.15569L84.00313 243.21819Q84.1125 243.23381 84.175 243.23381Q84.84688 243.23381 85.37813 242.89006Q85.925 242.53069 85.925 241.79631Q85.925 241.21819 85.53438 240.84319Q85.14375 240.45256 84.51875 240.45256Q83.90938 240.45256 83.4875 240.84319Q83.08125 241.23381 82.97188 241.99944L81.90938 241.81194Q82.09688 240.76506 82.78438 240.18694Q83.47188 239.59319 84.4875 239.59319Q85.19063 239.59319 85.78438 239.90569Q86.37813 240.20256 86.69063 240.71819Q87.00313 241.23381 87.00313 241.82756Q87.00313 242.37444 86.70625 242.84319Q86.40938 243.29631 85.83125 243.56194Q86.58125 243.73381 87.00313 244.29631Q87.425 244.84319 87.425 245.68694Q87.425 246.81194 86.59688 247.59319Q85.78438 248.37444 84.53438 248.37444Q83.40938 248.37444 82.65938 247.70256Q81.90938 247.01506 81.8 245.95256Z" fill-rule="nonzero"/><path fill="#000000" d="M78.76875 229.02727L77.72188 229.02727L77.72188 222.30852Q77.33125 222.6679 76.70625 223.0429Q76.09688 223.40227 75.6125 223.57414L75.6125 222.55852Q76.4875 222.13664 77.14375 221.55852Q77.81563 220.96477 78.09688 220.40227L78.76875 220.40227L78.76875 229.02727ZM85.175 229.02727L85.175 226.96477L81.45625 226.96477L81.45625 225.99602L85.37813 220.43352L86.2375 220.43352L86.2375 225.99602L87.39375 225.99602L87.39375 226.96477L86.2375 226.96477L86.2375 229.02727L85.175 229.02727ZM85.175 225.99602L85.175 222.13664L82.4875 225.99602L85.175 225.99602Z" fill-rule="nonzero"/><path fill="#000000" d="M78.76875 209.83636L77.72188 209.83636L77.72188 203.11761Q77.33125 203.47699 76.70625 203.85199Q76.09688 204.21136 75.6125 204.38324L75.6125 203.36761Q76.4875 202.94574 77.14375 202.36761Q77.81563 201.77386 78.09688 201.21136L78.76875 201.21136L78.76875 209.83636ZM81.8 207.58636L82.90938 207.49261Q83.03438 208.30511 83.47188 208.71136Q83.925 209.11761 84.56563 209.11761Q85.31563 209.11761 85.84688 208.53949Q86.37813 207.96136 86.37813 207.02386Q86.37813 206.11761 85.8625 205.60199Q85.3625 205.07074 84.53438 205.07074Q84.03438 205.07074 83.6125 205.30511Q83.20625 205.53949 82.97188 205.89886L81.9875 205.77386L82.81563 201.36761L87.09688 201.36761L87.09688 202.36761L83.65938 202.36761L83.20625 204.68011Q83.97188 204.13324 84.81563 204.13324Q85.94063 204.13324 86.70625 204.91449Q87.4875 205.69574 87.4875 206.93011Q87.4875 208.08636 86.81563 208.94574Q85.9875 209.97699 84.56563 209.97699Q83.39375 209.97699 82.64375 209.32074Q81.90938 208.66449 81.8 207.58636Z" fill-rule="nonzero"/><path fill="#000000" d="M78.76875 190.64546L77.72188 190.64546L77.72188 183.92671Q77.33125 184.28609 76.70625 184.66109Q76.09688 185.02046 75.6125 185.19234L75.6125 184.17671Q76.4875 183.75484 77.14375 183.17671Q77.81563 182.58296 78.09688 182.02046L78.76875 182.02046L78.76875 190.64546ZM87.26875 184.16109L86.22188 184.23921Q86.08125 183.61421 85.83125 183.33296Q85.39375 182.87984 84.76875 182.87984Q84.26875 182.87984 83.87813 183.16109Q83.39375 183.53609 83.09688 184.23921Q82.81563 184.92671 82.8 186.20796Q83.175 185.62984 83.72188 185.34859Q84.28438 185.06734 84.89375 185.06734Q85.94063 185.06734 86.675 185.84859Q87.425 186.62984 87.425 187.84859Q87.425 188.66109 87.06563 189.36421Q86.72188 190.05171 86.1125 190.42671Q85.50313 190.78609 84.7375 190.78609Q83.40938 190.78609 82.58125 189.81734Q81.75313 188.84859 81.75313 186.62984Q81.75313 184.12984 82.675 183.00484Q83.47188 182.02046 84.83125 182.02046Q85.84688 182.02046 86.4875 182.59859Q87.14375 183.16109 87.26875 184.16109ZM82.97188 187.86421Q82.97188 188.41109 83.19063 188.91109Q83.425 189.39546 83.83125 189.66109Q84.25313 189.92671 84.72188 189.92671Q85.37813 189.92671 85.8625 189.39546Q86.34688 188.84859 86.34688 187.92671Q86.34688 187.03609 85.8625 186.52046Q85.39375 186.00484 84.675 186.00484Q83.95625 186.00484 83.45625 186.52046Q82.97188 187.03609 82.97188 187.86421Z" fill-rule="nonzero"/><path fill="#000000" d="M78.76875 171.45454L77.72188 171.45454L77.72188 164.7358Q77.33125 165.09517 76.70625 165.47017Q76.09688 165.82954 75.6125 166.00142L75.6125 164.9858Q76.4875 164.56392 77.14375 163.9858Q77.81563 163.39204 78.09688 162.82954L78.76875 162.82954L78.76875 171.45454ZM81.8625 163.9858L81.8625 162.97017L87.425 162.97017L87.425 163.7983Q86.6125 164.6733 85.8 166.12642Q85.00313 167.56392 84.56563 169.09517Q84.2375 170.1733 84.15938 171.45454L83.06563 171.45454Q83.08125 170.43892 83.45625 169.00142Q83.84688 167.56392 84.55 166.2358Q85.26875 164.90767 86.08125 163.9858L81.8625 163.9858Z" fill-rule="nonzero"/><path fill="#000000" d="M78.76875 152.26364L77.72188 152.26364L77.72188 145.54489Q77.33125 145.90427 76.70625 146.27927Q76.09688 146.63864 75.6125 146.81052L75.6125 145.79489Q76.4875 145.37302 77.14375 144.79489Q77.81563 144.20114 78.09688 143.63864L78.76875 143.63864L78.76875 152.26364ZM83.425 147.60739Q82.76875 147.35739 82.44063 146.91989Q82.12813 146.46677 82.12813 145.85739Q82.12813 144.91989 82.8 144.27927Q83.4875 143.63864 84.59688 143.63864Q85.72188 143.63864 86.40938 144.29489Q87.09688 144.95114 87.09688 145.88864Q87.09688 146.48239 86.78438 146.91989Q86.47188 147.35739 85.83125 147.60739Q86.62813 147.85739 87.03438 148.43552Q87.44063 149.01364 87.44063 149.81052Q87.44063 150.90427 86.65938 151.65427Q85.89375 152.40427 84.6125 152.40427Q83.34688 152.40427 82.56563 151.65427Q81.78438 150.90427 81.78438 149.77927Q81.78438 148.93552 82.20625 148.37302Q82.64375 147.81052 83.425 147.60739ZM83.20625 145.81052Q83.20625 146.41989 83.59688 146.81052Q84.00313 147.20114 84.62813 147.20114Q85.2375 147.20114 85.62813 146.82614Q86.01875 146.43552 86.01875 145.87302Q86.01875 145.29489 85.6125 144.90427Q85.20625 144.49802 84.6125 144.49802Q84.00313 144.49802 83.59688 144.88864Q83.20625 145.27927 83.20625 145.81052ZM82.87813 149.77927Q82.87813 150.23239 83.08125 150.65427Q83.3 151.07614 83.72188 151.31052Q84.14375 151.54489 84.62813 151.54489Q85.37813 151.54489 85.8625 151.06052Q86.3625 150.57614 86.3625 149.82614Q86.3625 149.06052 85.8625 148.56052Q85.3625 148.06052 84.59688 148.06052Q83.84688 148.06052 83.3625 148.56052Q82.87813 149.04489 82.87813 149.77927Z" fill-rule="nonzero"/><path fill="#000000" d="M78.76875 133.07272L77.72188 133.07272L77.72188 126.35397Q77.33125 126.71335 76.70625 127.08835Q76.09688 127.44772 75.6125 127.6196L75.6125 126.60397Q76.4875 126.1821 77.14375 125.60397Q77.81563 125.01022 78.09688 124.44772L78.76875 124.44772L78.76875 133.07272ZM81.95625 131.08835L82.97188 130.9946Q83.09688 131.71335 83.45625 132.04147Q83.83125 132.35397 84.39375 132.35397Q84.87813 132.35397 85.2375 132.13522Q85.6125 131.90085 85.84688 131.54147Q86.08125 131.16647 86.2375 130.54147Q86.39375 129.90085 86.39375 129.2446Q86.39375 129.16647 86.39375 129.02585Q86.08125 129.52585 85.53438 129.85397Q84.9875 130.16647 84.34688 130.16647Q83.26875 130.16647 82.53438 129.40085Q81.8 128.6196 81.8 127.35397Q81.8 126.04147 82.56563 125.2446Q83.34688 124.44772 84.50313 124.44772Q85.33125 124.44772 86.01875 124.90085Q86.72188 125.35397 87.08125 126.19772Q87.44063 127.02585 87.44063 128.60397Q87.44063 130.2446 87.08125 131.22897Q86.7375 132.19772 86.01875 132.71335Q85.31563 133.21335 84.37813 133.21335Q83.3625 133.21335 82.72188 132.66647Q82.08125 132.10397 81.95625 131.08835ZM86.26875 127.29147Q86.26875 126.38522 85.78438 125.85397Q85.31563 125.32272 84.62813 125.32272Q83.925 125.32272 83.39375 125.90085Q82.87813 126.46335 82.87813 127.38522Q82.87813 128.19772 83.37813 128.71335Q83.87813 129.22897 84.59688 129.22897Q85.33125 129.22897 85.8 128.71335Q86.26875 128.19772 86.26875 127.29147Z" fill-rule="nonzero"/><path fill="#000000" d="M80.34688 112.866196L80.34688 113.88182L74.65938 113.88182Q74.65938 113.50682 74.78438 113.147446Q75.00313 112.56932 75.47188 112.00682Q75.95625 111.44432 76.8625 110.709946Q78.26875 109.553696 78.75313 108.88182Q79.25313 108.209946 79.25313 107.616196Q79.25313 106.991196 78.8 106.56932Q78.34688 106.13182 77.62813 106.13182Q76.8625 106.13182 76.40938 106.584946Q75.95625 107.03807 75.94063 107.85057L74.8625 107.741196Q74.97188 106.522446 75.69063 105.897446Q76.425 105.25682 77.65938 105.25682Q78.89375 105.25682 79.6125 105.94432Q80.33125 106.63182 80.33125 107.647446Q80.33125 108.16307 80.1125 108.66307Q79.90938 109.147446 79.40938 109.709946Q78.925 110.25682 77.8 111.209946Q76.84688 112.00682 76.56563 112.303696Q76.3 112.584946 76.12813 112.866196L80.34688 112.866196ZM81.8 109.647446Q81.8 108.116196 82.1125 107.19432Q82.425 106.25682 83.03438 105.75682Q83.65938 105.25682 84.59688 105.25682Q85.28438 105.25682 85.8 105.53807Q86.33125 105.81932 86.675 106.35057Q87.01875 106.866196 87.20625 107.616196Q87.39375 108.366196 87.39375 109.647446Q87.39375 111.16307 87.08125 112.084946Q86.78438 113.00682 86.15938 113.522446Q85.55 114.022446 84.59688 114.022446Q83.3625 114.022446 82.64375 113.13182Q81.8 112.06932 81.8 109.647446ZM82.87813 109.647446Q82.87813 111.75682 83.37813 112.459946Q83.87813 113.16307 84.59688 113.16307Q85.33125 113.16307 85.81563 112.459946Q86.31563 111.75682 86.31563 109.647446Q86.31563 107.522446 85.81563 106.834946Q85.33125 106.13182 84.58125 106.13182Q83.8625 106.13182 83.425 106.741196Q82.87813 107.522446 82.87813 109.647446Z" fill-rule="nonzero"/><path fill="#000000" d="M80.34688 93.675285L80.34688 94.69091L74.65938 94.69091Q74.65938 94.31591 74.78438 93.956535Q75.00313 93.37841 75.47188 92.81591Q75.95625 92.25341 76.8625 91.519035Q78.26875 90.362785 78.75313 89.69091Q79.25313 89.019035 79.25313 88.425285Q79.25313 87.800285 78.8 87.37841Q78.34688 86.94091 77.62813 86.94091Q76.8625 86.94091 76.40938 87.394035Q75.95625 87.84716 75.94063 88.65966L74.8625 88.550285Q74.97188 87.331535 75.69063 86.706535Q76.425 86.06591 77.65938 86.06591Q78.89375 86.06591 79.6125 86.75341Q80.33125 87.44091 80.33125 88.456535Q80.33125 88.97216 80.1125 89.47216Q79.90938 89.956535 79.40938 90.519035Q78.925 91.06591 77.8 92.019035Q76.84688 92.81591 76.56563 93.112785Q76.3 93.394035 76.12813 93.675285L80.34688 93.675285ZM85.76875 94.69091L84.72188 94.69091L84.72188 87.97216Q84.33125 88.331535 83.70625 88.706535Q83.09688 89.06591 82.6125 89.237785L82.6125 88.22216Q83.4875 87.800285 84.14375 87.22216Q84.81563 86.62841 85.09688 86.06591L85.76875 86.06591L85.76875 94.69091Z" fill-rule="nonzero"/><path fill="#000000" d="M80.34688 74.484375L80.34688 75.5L74.65938 75.5Q74.65938 75.125 74.78438 74.765625Q75.00313 74.1875 75.47188 73.625Q75.95625 73.0625 76.8625 72.328125Q78.26875 71.171875 78.75313 70.5Q79.25313 69.828125 79.25313 69.234375Q79.25313 68.609375 78.8 68.1875Q78.34688 67.75 77.62813 67.75Q76.8625 67.75 76.40938 68.203125Q75.95625 68.65625 75.94063 69.46875L74.8625 69.359375Q74.97188 68.140625 75.69063 67.515625Q76.425 66.875 77.65938 66.875Q78.89375 66.875 79.6125 67.5625Q80.33125 68.25 80.33125 69.265625Q80.33125 69.78125 80.1125 70.28125Q79.90938 70.765625 79.40938 71.328125Q78.925 71.875 77.8 72.828125Q76.84688 73.625 76.56563 73.921875Q76.3 74.203125 76.12813 74.484375L80.34688 74.484375ZM87.34688 74.484375L87.34688 75.5L81.65938 75.5Q81.65938 75.125 81.78438 74.765625Q82.00313 74.1875 82.47188 73.625Q82.95625 73.0625 83.8625 72.328125Q85.26875 71.171875 85.75313 70.5Q86.25313 69.828125 86.25313 69.234375Q86.25313 68.609375 85.8 68.1875Q85.34688 67.75 84.62813 67.75Q83.8625 67.75 83.40938 68.203125Q82.95625 68.65625 82.94063 69.46875L81.8625 69.359375Q81.97188 68.140625 82.69063 67.515625Q83.425 66.875 84.65938 66.875Q85.89375 66.875 86.6125 67.5625Q87.33125 68.25 87.33125 69.265625Q87.33125 69.78125 87.1125 70.28125Q86.90938 70.765625 86.40938 71.328125Q85.925 71.875 84.8 72.828125Q83.84688 73.625 83.56563 73.921875Q83.3 74.203125 83.12813 74.484375L87.34688 74.484375Z" fill-rule="nonzero"/><path fill="#000000" d="M122.04183 516.7L122.04183 505.2469L124.32308 505.2469L127.04183 513.35626Q127.41683 514.48126 127.58871 515.04376Q127.77621 514.41876 128.19809 513.21564L130.93246 505.2469L132.97934 505.2469L132.97934 516.7L131.51059 516.7L131.51059 507.10626L128.18246 516.7L126.82308 516.7L123.51058 506.95L123.51058 516.7L122.04183 516.7ZM134.91684 506.85626L134.91684 505.2469L136.32309 505.2469L136.32309 506.85626L134.91684 506.85626ZM134.91684 516.7L134.91684 508.40314L136.32309 508.40314L136.32309 516.7L134.91684 516.7ZM138.91684 516.7L138.91684 508.40314L140.18246 508.40314L140.18246 509.575Q141.08871 508.21564 142.82309 508.21564Q143.57309 508.21564 144.19809 508.48126Q144.82309 508.7469 145.13559 509.1844Q145.44809 509.6219 145.57309 510.23126Q145.65121 510.6219 145.65121 511.59064L145.65121 516.7L144.24496 516.7L144.24496 511.65314Q144.24496 510.79376 144.07309 510.3719Q143.91684 509.9344 143.49496 509.6844Q143.08871 509.4344 142.52621 509.4344Q141.61996 509.4344 140.96371 510.0125Q140.32309 510.575 140.32309 512.16876L140.32309 516.7L138.91684 516.7Z" fill-rule="nonzero"/><path fill="#000000" d="M177.94698 516.7L177.94698 505.2469L182.2751 505.2469Q183.41573 505.2469 184.00948 505.35626Q184.85323 505.4969 185.41573 505.8875Q185.99385 506.27814 186.3376 506.9969Q186.69698 507.7 186.69698 508.5594Q186.69698 510.0125 185.75948 511.02814Q184.8376 512.04376 182.4001 512.04376L179.4626 512.04376L179.4626 516.7L177.94698 516.7ZM179.4626 510.6844L182.43135 510.6844Q183.9001 510.6844 184.50948 510.1375Q185.13448 509.59064 185.13448 508.60626Q185.13448 507.8875 184.75948 507.3719Q184.4001 506.85626 183.80635 506.7Q183.43135 506.59064 182.4001 506.59064L179.4626 506.59064L179.4626 510.6844ZM188.38448 513.7L189.85323 513.575Q190.0251 514.65314 190.61885 515.2Q191.2126 515.73126 192.05635 515.73126Q193.07198 515.73126 193.7751 514.96564Q194.47823 514.2 194.47823 512.9344Q194.47823 511.73126 193.80635 511.04376Q193.13448 510.34064 192.04073 510.34064Q191.35323 510.34064 190.80635 510.65314Q190.25948 510.96564 189.94698 511.45L188.63448 511.27814L189.74385 505.40314L195.43135 505.40314L195.43135 506.7469L190.86885 506.7469L190.24385 509.825Q191.2751 509.10626 192.41573 509.10626Q193.91573 509.10626 194.94698 510.15314Q195.97823 511.1844 195.97823 512.8094Q195.97823 514.3719 195.07198 515.4969Q193.9626 516.90314 192.05635 516.90314Q190.49385 516.90314 189.50948 516.02814Q188.5251 515.1375 188.38448 513.7ZM197.38448 511.04376Q197.38448 509.0125 197.79073 507.77814Q198.2126 506.54376 199.04073 505.8719Q199.86885 505.2 201.11885 505.2Q202.04073 505.2 202.72823 505.575Q203.43135 505.9344 203.88448 506.6375Q204.3376 507.34064 204.5876 508.34064Q204.85323 509.34064 204.85323 511.04376Q204.85323 513.0594 204.43135 514.3094Q204.0251 515.54376 203.19698 516.23126Q202.36885 516.90314 201.11885 516.90314Q199.4626 516.90314 198.50948 515.7Q197.38448 514.27814 197.38448 511.04376ZM198.82198 511.04376Q198.82198 513.8719 199.47823 514.8094Q200.1501 515.73126 201.11885 515.73126Q202.0876 515.73126 202.74385 514.79376Q203.4001 513.85626 203.4001 511.04376Q203.4001 508.21564 202.74385 507.29376Q202.0876 506.35626 201.10323 506.35626Q200.13448 506.35626 199.55635 507.1844Q198.82198 508.23126 198.82198 511.04376Z" fill-rule="nonzero"/><path fill="#000000" d="M234.32086 520.075Q233.14899 518.60626 232.33649 516.6375Q231.53961 514.65314 231.53961 512.54376Q231.53961 510.6844 232.14899 508.98126Q232.85211 507.0125 234.32086 505.04376L235.32086 505.04376Q234.38336 506.66876 234.07086 507.3719Q233.60211 508.45 233.32086 509.6219Q232.99274 511.075 232.99274 512.5594Q232.99274 516.3094 235.32086 520.075L234.32086 520.075ZM235.53961 516.7L239.94586 505.2469L241.58649 505.2469L246.27399 516.7L244.53961 516.7L243.21149 513.23126L238.41461 513.23126L237.16461 516.7L235.53961 516.7ZM238.85211 511.9969L242.74274 511.9969L241.53961 508.825Q240.99274 507.3719 240.72711 506.45Q240.50836 507.54376 240.11774 508.6375L238.85211 511.9969ZM249.93024 516.7L246.77399 508.40314L248.25836 508.40314L250.03961 513.3719Q250.33649 514.16876 250.57086 515.04376Q250.75836 514.3875 251.10211 513.46564L252.94586 508.40314L254.38336 508.40314L251.24274 516.7L249.93024 516.7ZM254.36774 517.3875L255.74274 517.59064Q255.82086 518.23126 256.2115 518.5125Q256.74274 518.90314 257.649 518.90314Q258.61774 518.90314 259.149 518.5125Q259.68024 518.1219 259.86774 517.41876Q259.9771 516.9969 259.9771 515.60626Q259.05524 516.7 257.68024 516.7Q255.96149 516.7 255.02399 515.46564Q254.08649 514.23126 254.08649 512.4969Q254.08649 511.3094 254.50836 510.3094Q254.94586 509.3094 255.75836 508.7625Q256.5865 508.21564 257.68024 508.21564Q259.149 508.21564 260.1021 509.40314L260.1021 508.40314L261.399 508.40314L261.399 515.575Q261.399 517.5125 261.00836 518.325Q260.61774 519.1375 259.75836 519.60626Q258.899 520.075 257.649 520.075Q256.1646 520.075 255.24274 519.40314Q254.33649 518.73126 254.36774 517.3875ZM255.53961 512.40314Q255.53961 514.02814 256.18024 514.77814Q256.8365 515.52814 257.80524 515.52814Q258.774 515.52814 259.43024 514.79376Q260.0865 514.04376 260.0865 512.45Q260.0865 510.91876 259.4146 510.15314Q258.74274 509.3719 257.7896 509.3719Q256.8521 509.3719 256.19586 510.1375Q255.53961 510.90314 255.53961 512.40314ZM264.55524 520.075L263.5396 520.075Q265.88336 516.3094 265.88336 512.5594Q265.88336 511.09064 265.5396 509.6375Q265.274 508.46564 264.80524 507.3875Q264.49274 506.6844 263.5396 505.04376L264.55524 505.04376Q266.024 507.0125 266.7271 508.98126Q267.32086 510.6844 267.32086 512.54376Q267.32086 514.65314 266.50836 516.6375Q265.7115 518.60626 264.55524 520.075Z" fill-rule="nonzero"/><path fill="#000000" d="M293.6635 516.7L293.6635 505.2469L297.99164 505.2469Q299.13226 505.2469 299.726 505.35626Q300.56976 505.4969 301.13226 505.8875Q301.7104 506.27814 302.05414 506.9969Q302.4135 507.7 302.4135 508.5594Q302.4135 510.0125 301.476 511.02814Q300.55414 512.04376 298.11664 512.04376L295.17914 512.04376L295.17914 516.7L293.6635 516.7ZM295.17914 510.6844L298.1479 510.6844Q299.61664 510.6844 300.226 510.1375Q300.851 509.59064 300.851 508.60626Q300.851 507.8875 300.476 507.3719Q300.11664 506.85626 299.5229 506.7Q299.1479 506.59064 298.11664 506.59064L295.17914 506.59064L295.17914 510.6844ZM304.30414 514.04376L305.6635 513.91876Q305.8354 514.8719 306.31976 515.3094Q306.80414 515.73126 307.55414 515.73126Q308.2104 515.73126 308.69476 515.4344Q309.17914 515.1375 309.49164 514.65314Q309.80414 514.15314 310.00726 513.3094Q310.226 512.46564 310.226 511.59064Q310.226 511.4969 310.226 511.3094Q309.80414 511.98126 309.06976 512.40314Q308.3354 512.8094 307.49164 512.8094Q306.06976 512.8094 305.0854 511.77814Q304.101 510.7469 304.101 509.0594Q304.101 507.325 305.11664 506.2625Q306.1479 505.2 307.69476 505.2Q308.81976 505.2 309.74164 505.8094Q310.6635 506.40314 311.1479 507.5125Q311.63226 508.6219 311.63226 510.73126Q311.63226 512.9344 311.1479 514.23126Q310.67914 515.52814 309.726 516.21564Q308.7885 516.90314 307.5229 516.90314Q306.17914 516.90314 305.31976 516.15314Q304.476 515.40314 304.30414 514.04376ZM310.06976 508.9969Q310.06976 507.77814 309.4135 507.075Q308.7729 506.35626 307.86664 506.35626Q306.92914 506.35626 306.226 507.1219Q305.5385 507.8875 305.5385 509.10626Q305.5385 510.2 306.19476 510.8875Q306.86664 511.575 307.8354 511.575Q308.80414 511.575 309.42914 510.8875Q310.06976 510.2 310.06976 508.9969ZM313.101 513.7L314.56976 513.575Q314.74164 514.65314 315.3354 515.2Q315.92914 515.73126 316.7729 515.73126Q317.7885 515.73126 318.49164 514.96564Q319.19476 514.2 319.19476 512.9344Q319.19476 511.73126 318.5229 511.04376Q317.851 510.34064 316.75726 510.34064Q316.06976 510.34064 315.5229 510.65314Q314.976 510.96564 314.6635 511.45L313.351 511.27814L314.4604 505.40314L320.1479 505.40314L320.1479 506.7469L315.5854 506.7469L314.9604 509.825Q315.99164 509.10626 317.13226 509.10626Q318.63226 509.10626 319.6635 510.15314Q320.69476 511.1844 320.69476 512.8094Q320.69476 514.3719 319.7885 515.4969Q318.67914 516.90314 316.7729 516.90314Q315.2104 516.90314 314.226 516.02814Q313.24164 515.1375 313.101 513.7Z" fill-rule="nonzero"/><path fill="#000000" d="M351.5218 516.7L351.5218 505.2469L355.8499 505.2469Q356.99054 505.2469 357.5843 505.35626Q358.42804 505.4969 358.99054 505.8875Q359.56866 506.27814 359.9124 506.9969Q360.2718 507.7 360.2718 508.5594Q360.2718 510.0125 359.3343 511.02814Q358.4124 512.04376 355.9749 512.04376L353.0374 512.04376L353.0374 516.7L351.5218 516.7ZM353.0374 510.6844L356.00616 510.6844Q357.4749 510.6844 358.0843 510.1375Q358.7093 509.59064 358.7093 508.60626Q358.7093 507.8875 358.3343 507.3719Q357.9749 506.85626 357.38116 506.7Q357.00616 506.59064 355.9749 506.59064L353.0374 506.59064L353.0374 510.6844ZM362.1624 514.04376L363.5218 513.91876Q363.69366 514.8719 364.17804 515.3094Q364.6624 515.73126 365.4124 515.73126Q366.06866 515.73126 366.55304 515.4344Q367.0374 515.1375 367.3499 514.65314Q367.6624 514.15314 367.86554 513.3094Q368.0843 512.46564 368.0843 511.59064Q368.0843 511.4969 368.0843 511.3094Q367.6624 511.98126 366.92804 512.40314Q366.19366 512.8094 365.3499 512.8094Q363.92804 512.8094 362.94366 511.77814Q361.9593 510.7469 361.9593 509.0594Q361.9593 507.325 362.9749 506.2625Q364.00616 505.2 365.55304 505.2Q366.67804 505.2 367.5999 505.8094Q368.5218 506.40314 369.00616 507.5125Q369.49054 508.6219 369.49054 510.73126Q369.49054 512.9344 369.00616 514.23126Q368.5374 515.52814 367.5843 516.21564Q366.6468 516.90314 365.38116 516.90314Q364.0374 516.90314 363.17804 516.15314Q362.3343 515.40314 362.1624 514.04376ZM367.92804 508.9969Q367.92804 507.77814 367.2718 507.075Q366.63116 506.35626 365.7249 506.35626Q364.7874 506.35626 364.0843 507.1219Q363.3968 507.8875 363.3968 509.10626Q363.3968 510.2 364.05304 510.8875Q364.7249 511.575 365.69366 511.575Q366.6624 511.575 367.2874 510.8875Q367.92804 510.2 367.92804 508.9969ZM371.1624 514.04376L372.5218 513.91876Q372.69366 514.8719 373.17804 515.3094Q373.6624 515.73126 374.4124 515.73126Q375.06866 515.73126 375.55304 515.4344Q376.0374 515.1375 376.3499 514.65314Q376.6624 514.15314 376.86554 513.3094Q377.0843 512.46564 377.0843 511.59064Q377.0843 511.4969 377.0843 511.3094Q376.6624 511.98126 375.92804 512.40314Q375.19366 512.8094 374.3499 512.8094Q372.92804 512.8094 371.94366 511.77814Q370.9593 510.7469 370.9593 509.0594Q370.9593 507.325 371.9749 506.2625Q373.00616 505.2 374.55304 505.2Q375.67804 505.2 376.5999 505.8094Q377.5218 506.40314 378.00616 507.5125Q378.49054 508.6219 378.49054 510.73126Q378.49054 512.9344 378.00616 514.23126Q377.5374 515.52814 376.5843 516.21564Q375.6468 516.90314 374.38116 516.90314Q373.0374 516.90314 372.17804 516.15314Q371.3343 515.40314 371.1624 514.04376ZM376.92804 508.9969Q376.92804 507.77814 376.2718 507.075Q375.63116 506.35626 374.7249 506.35626Q373.7874 506.35626 373.0843 507.1219Q372.3968 507.8875 372.3968 509.10626Q372.3968 510.2 373.05304 510.8875Q373.7249 511.575 374.69366 511.575Q375.6624 511.575 376.2874 510.8875Q376.92804 510.2 376.92804 508.9969Z" fill-rule="nonzero"/><path fill="#000000" d="M409.33316 516.7L409.33316 505.2469L411.6144 505.2469L414.33316 513.35626Q414.70816 514.48126 414.88004 515.04376Q415.06754 514.41876 415.4894 513.21564L418.2238 505.2469L420.27066 505.2469L420.27066 516.7L418.8019 516.7L418.8019 507.10626L415.4738 516.7L414.1144 516.7L410.8019 506.95L410.8019 516.7L409.33316 516.7ZM427.6144 515.66876Q426.83316 516.34064 426.1144 516.6219Q425.39566 516.8875 424.56754 516.8875Q423.19254 516.8875 422.45816 516.21564Q421.7238 515.54376 421.7238 514.5125Q421.7238 513.90314 422.00504 513.40314Q422.2863 512.8875 422.7238 512.59064Q423.1769 512.27814 423.7394 512.1219Q424.1613 512.0125 424.9894 511.91876Q426.69254 511.71564 427.50504 511.4344Q427.50504 511.1375 427.50504 511.0594Q427.50504 510.2 427.1144 509.85626Q426.56754 509.3719 425.50504 509.3719Q424.52066 509.3719 424.0363 509.73126Q423.56754 510.075 423.3488 510.95L421.9738 510.7625Q422.1613 509.8875 422.58316 509.34064Q423.02066 508.79376 423.83316 508.5125Q424.64566 508.21564 425.70816 508.21564Q426.77066 508.21564 427.4269 508.46564Q428.0988 508.71564 428.4113 509.09064Q428.7238 509.46564 428.8488 510.04376Q428.9269 510.40314 428.9269 511.34064L428.9269 513.21564Q428.9269 515.1844 429.00504 515.7Q429.0988 516.21564 429.3644 516.7L427.89566 516.7Q427.6769 516.2625 427.6144 515.66876ZM427.50504 512.52814Q426.7394 512.84064 425.20816 513.0594Q424.33316 513.1844 423.9738 513.34064Q423.6144 513.4969 423.4113 513.8094Q423.2238 514.10626 423.2238 514.46564Q423.2238 515.02814 423.64566 515.40314Q424.08316 515.77814 424.89566 515.77814Q425.70816 515.77814 426.33316 515.4344Q426.9738 515.075 427.27066 514.45Q427.50504 513.98126 427.50504 513.04376L427.50504 512.52814ZM430.27066 516.7L433.3019 512.3875L430.4894 508.40314L432.25504 508.40314L433.52066 510.34064Q433.88004 510.90314 434.0988 511.27814Q434.44254 510.7625 434.7394 510.35626L436.13004 508.40314L437.81754 508.40314L434.94254 512.3094L438.0363 516.7L436.3019 516.7L434.5988 514.1219L434.14566 513.41876L431.9738 516.7L430.27066 516.7Z" fill-rule="nonzero"/><path fill="#757575" d="M36.065624 38.284374L37.95625 38.753124Q37.3625 41.096874 35.815624 42.33125Q34.26875 43.55 32.01875 43.55Q29.70625 43.55 28.253124 42.6125Q26.815624 41.659374 26.05 39.878124Q25.3 38.08125 25.3 36.034374Q25.3 33.8 26.14375 32.14375Q27.003124 30.471874 28.58125 29.6125Q30.159374 28.7375 32.05 28.7375Q34.20625 28.7375 35.659374 29.83125Q37.128124 30.925 37.70625 32.909374L35.846874 33.346874Q35.346874 31.784374 34.39375 31.08125Q33.45625 30.3625 32.01875 30.3625Q30.3625 30.3625 29.253124 31.159374Q28.14375 31.940624 27.690624 33.284374Q27.253124 34.6125 27.253124 36.01875Q27.253124 37.846874 27.784374 39.221874Q28.315624 40.58125 29.440624 41.253124Q30.565624 41.925 31.8625 41.925Q33.45625 41.925 34.565624 41.003124Q35.675 40.08125 36.065624 38.284374ZM39.26875 36.33125Q39.26875 32.76875 41.175 30.753124Q43.096874 28.721874 46.128124 28.721874Q48.1125 28.721874 49.690624 29.675Q51.284374 30.628124 52.1125 32.33125Q52.95625 34.01875 52.95625 36.159374Q52.95625 38.33125 52.08125 40.05Q51.20625 41.76875 49.58125 42.659374Q47.971874 43.55 46.1125 43.55Q44.096874 43.55 42.503124 42.58125Q40.909374 41.596874 40.08125 39.909374Q39.26875 38.20625 39.26875 36.33125ZM41.221874 36.3625Q41.221874 38.940624 42.6125 40.440624Q44.003124 41.925 46.096874 41.925Q48.2375 41.925 49.6125 40.425Q51.003124 38.909374 51.003124 36.14375Q51.003124 34.409374 50.409374 33.1125Q49.83125 31.8 48.690624 31.08125Q47.55 30.3625 46.128124 30.3625Q44.128124 30.3625 42.675 31.753124Q41.221874 33.128124 41.221874 36.3625ZM55.784374 43.3L55.784374 28.9875L58.64375 28.9875L62.01875 39.1125Q62.4875 40.534374 62.70625 41.2375Q62.95625 40.45625 63.471874 38.940624L66.89375 28.9875L69.44063 28.9875L69.44063 43.3L67.62813 43.3L67.62813 31.315624L63.45625 43.3L61.753124 43.3L57.6125 31.1125L57.6125 43.3L55.784374 43.3ZM72.78438 43.3L72.78438 28.9875L75.64375 28.9875L79.01875 39.1125Q79.4875 40.534374 79.70625 41.2375Q79.95625 40.45625 80.47188 38.940624L83.89375 28.9875L86.44063 28.9875L86.44063 43.3L84.62813 43.3L84.62813 31.315624L80.45625 43.3L78.75313 43.3L74.6125 31.1125L74.6125 43.3L72.78438 43.3ZM90.15938 43.3L90.15938 28.9875L92.06563 28.9875L92.06563 43.3L90.15938 43.3ZM99.4875 43.3L99.4875 30.675L94.76875 30.675L94.76875 28.9875L106.1125 28.9875L106.1125 30.675L101.37813 30.675L101.37813 43.3L99.4875 43.3ZM113.87813 43.3L113.87813 28.9875L120.22188 28.9875Q122.12813 28.9875 123.12813 29.378124Q124.12813 29.753124 124.72188 30.7375Q125.31563 31.70625 125.31563 32.89375Q125.31563 34.409374 124.33125 35.45625Q123.34688 36.503124 121.28438 36.784374Q122.03438 37.14375 122.425 37.503124Q123.25313 38.253124 124.00313 39.409374L126.4875 43.3L124.1125 43.3L122.20625 40.315624Q121.37813 39.034374 120.84688 38.346874Q120.31563 37.659374 119.87813 37.39375Q119.45625 37.1125 119.01875 37.003124Q118.69063 36.940624 117.97188 36.940624L115.76875 36.940624L115.76875 43.3L113.87813 43.3ZM115.76875 35.3L119.84688 35.3Q121.14375 35.3 121.8625 35.034374Q122.59688 34.76875 122.97188 34.175Q123.3625 33.58125 123.3625 32.89375Q123.3625 31.878124 122.62813 31.221874Q121.89375 30.565624 120.3 30.565624L115.76875 30.565624L115.76875 35.3ZM134.72188 39.95625L136.53438 40.190624Q136.1125 41.76875 134.94063 42.659374Q133.78438 43.534374 131.97188 43.534374Q129.70625 43.534374 128.3625 42.14375Q127.03438 40.7375 127.03438 38.20625Q127.03438 35.58125 128.37813 34.14375Q129.72188 32.690624 131.87813 32.690624Q133.95625 32.690624 135.26875 34.1125Q136.59688 35.51875 136.59688 38.096874Q136.59688 38.253124 136.58125 38.565624L128.84688 38.565624Q128.94063 40.26875 129.81563 41.175Q130.69063 42.08125 131.9875 42.08125Q132.95625 42.08125 133.62813 41.58125Q134.31563 41.065624 134.72188 39.95625ZM128.94063 37.1125L134.7375 37.1125Q134.62813 35.815624 134.08125 35.159374Q133.2375 34.14375 131.89375 34.14375Q130.69063 34.14375 129.8625 34.95625Q129.03438 35.753124 128.94063 37.1125ZM137.90938 40.20625L139.65938 39.925Q139.8 40.971874 140.47188 41.534374Q141.14375 42.08125 142.34688 42.08125Q143.55 42.08125 144.12813 41.596874Q144.72188 41.096874 144.72188 40.440624Q144.72188 39.846874 144.20625 39.503124Q143.84688 39.26875 142.40938 38.909374Q140.47188 38.409374 139.72188 38.065624Q138.9875 37.70625 138.59688 37.08125Q138.20625 36.440624 138.20625 35.675Q138.20625 34.9875 138.51875 34.39375Q138.84688 33.8 139.39375 33.409374Q139.8 33.1125 140.50313 32.909374Q141.22188 32.690624 142.03438 32.690624Q143.25313 32.690624 144.175 33.05Q145.09688 33.39375 145.53438 34.003124Q145.97188 34.596874 146.14375 35.596874L144.425 35.83125Q144.3 35.034374 143.7375 34.596874Q143.175 34.14375 142.15938 34.14375Q140.94063 34.14375 140.425 34.55Q139.90938 34.940624 139.90938 35.471874Q139.90938 35.815624 140.12813 36.096874Q140.33125 36.378124 140.8 36.565624Q141.06563 36.659374 142.34688 37.003124Q144.22188 37.503124 144.95625 37.83125Q145.69063 38.14375 146.1125 38.753124Q146.53438 39.346874 146.53438 40.253124Q146.53438 41.128124 146.01875 41.909374Q145.50313 42.690624 144.53438 43.1125Q143.56563 43.534374 142.34688 43.534374Q140.33125 43.534374 139.26875 42.690624Q138.20625 41.846874 137.90938 40.20625ZM148.6125 47.26875L148.6125 32.925L150.22188 32.925L150.22188 34.26875Q150.78438 33.4875 151.4875 33.096874Q152.20625 32.690624 153.22188 32.690624Q154.55 32.690624 155.56563 33.378124Q156.58125 34.065624 157.09688 35.315624Q157.62813 36.55 157.62813 38.034374Q157.62813 39.628124 157.05 40.909374Q156.4875 42.175 155.39375 42.8625Q154.3 43.534374 153.09688 43.534374Q152.22188 43.534374 151.51875 43.159374Q150.83125 42.784374 150.37813 42.221874L150.37813 47.26875L148.6125 47.26875ZM150.20625 38.175Q150.20625 40.175 151.01875 41.128124Q151.83125 42.08125 152.9875 42.08125Q154.15938 42.08125 154.9875 41.096874Q155.83125 40.1125 155.83125 38.01875Q155.83125 36.05 155.00313 35.065624Q154.19063 34.065624 153.06563 34.065624Q151.94063 34.065624 151.06563 35.128124Q150.20625 36.175 150.20625 38.175ZM158.97188 38.1125Q158.97188 35.2375 160.56563 33.846874Q161.90938 32.690624 163.83125 32.690624Q165.97188 32.690624 167.31563 34.096874Q168.675 35.503124 168.675 37.971874Q168.675 39.971874 168.08125 41.128124Q167.4875 42.26875 166.33125 42.909374Q165.19063 43.534374 163.83125 43.534374Q161.64375 43.534374 160.3 42.14375Q158.97188 40.7375 158.97188 38.1125ZM160.76875 38.1125Q160.76875 40.1125 161.62813 41.096874Q162.50313 42.08125 163.83125 42.08125Q165.14375 42.08125 166.00313 41.096874Q166.87813 40.096874 166.87813 38.05Q166.87813 36.128124 166.00313 35.14375Q165.12813 34.14375 163.83125 34.14375Q162.50313 34.14375 161.62813 35.14375Q160.76875 36.128124 160.76875 38.1125ZM170.6125 43.3L170.6125 32.925L172.20625 32.925L172.20625 34.409374Q173.34688 32.690624 175.50313 32.690624Q176.44063 32.690624 177.22188 33.034374Q178.01875 33.3625 178.40938 33.909374Q178.8 34.45625 178.95625 35.20625Q179.05 35.70625 179.05 36.925L179.05 43.3L177.28438 43.3L177.28438 36.9875Q177.28438 35.909374 177.08125 35.378124Q176.87813 34.846874 176.34688 34.534374Q175.83125 34.221874 175.12813 34.221874Q174.00313 34.221874 173.19063 34.940624Q172.37813 35.64375 172.37813 37.628124L172.37813 43.3L170.6125 43.3ZM179.90938 40.20625L181.65938 39.925Q181.8 40.971874 182.47188 41.534374Q183.14375 42.08125 184.34688 42.08125Q185.55 42.08125 186.12813 41.596874Q186.72188 41.096874 186.72188 40.440624Q186.72188 39.846874 186.20625 39.503124Q185.84688 39.26875 184.40938 38.909374Q182.47188 38.409374 181.72188 38.065624Q180.9875 37.70625 180.59688 37.08125Q180.20625 36.440624 180.20625 35.675Q180.20625 34.9875 180.51875 34.39375Q180.84688 33.8 181.39375 33.409374Q181.8 33.1125 182.50313 32.909374Q183.22188 32.690624 184.03438 32.690624Q185.25313 32.690624 186.175 33.05Q187.09688 33.39375 187.53438 34.003124Q187.97188 34.596874 188.14375 35.596874L186.425 35.83125Q186.3 35.034374 185.7375 34.596874Q185.175 34.14375 184.15938 34.14375Q182.94063 34.14375 182.425 34.55Q181.90938 34.940624 181.90938 35.471874Q181.90938 35.815624 182.12813 36.096874Q182.33125 36.378124 182.8 36.565624Q183.06563 36.659374 184.34688 37.003124Q186.22188 37.503124 186.95625 37.83125Q187.69063 38.14375 188.1125 38.753124Q188.53438 39.346874 188.53438 40.253124Q188.53438 41.128124 188.01875 41.909374Q187.50313 42.690624 186.53438 43.1125Q185.56563 43.534374 184.34688 43.534374Q182.33125 43.534374 181.26875 42.690624Q180.20625 41.846874 179.90938 40.20625ZM197.72188 39.95625L199.53438 40.190624Q199.1125 41.76875 197.94063 42.659374Q196.78438 43.534374 194.97188 43.534374Q192.70625 43.534374 191.3625 42.14375Q190.03438 40.7375 190.03438 38.20625Q190.03438 35.58125 191.37813 34.14375Q192.72188 32.690624 194.87813 32.690624Q196.95625 32.690624 198.26875 34.1125Q199.59688 35.51875 199.59688 38.096874Q199.59688 38.253124 199.58125 38.565624L191.84688 38.565624Q191.94063 40.26875 192.81563 41.175Q193.69063 42.08125 194.9875 42.08125Q195.95625 42.08125 196.62813 41.58125Q197.31563 41.065624 197.72188 39.95625ZM191.94063 37.1125L197.7375 37.1125Q197.62813 35.815624 197.08125 35.159374Q196.2375 34.14375 194.89375 34.14375Q193.69063 34.14375 192.8625 34.95625Q192.03438 35.753124 191.94063 37.1125ZM211.4875 43.3L211.4875 30.675L206.76875 30.675L206.76875 28.9875L218.1125 28.9875L218.1125 30.675L213.37813 30.675L213.37813 43.3L211.4875 43.3ZM219.62813 31.003124L219.62813 28.9875L221.39375 28.9875L221.39375 31.003124L219.62813 31.003124ZM219.62813 43.3L219.62813 32.925L221.39375 32.925L221.39375 43.3L219.62813 43.3ZM223.6125 43.3L223.6125 32.925L225.19063 32.925L225.19063 34.378124Q225.675 33.628124 226.4875 33.159374Q227.3 32.690624 228.33125 32.690624Q229.4875 32.690624 230.22188 33.175Q230.95625 33.64375 231.26875 34.503124Q232.50313 32.690624 234.47188 32.690624Q236.01875 32.690624 236.84688 33.55Q237.675 34.409374 237.675 36.175L237.675 43.3L235.925 43.3L235.925 36.76875Q235.925 35.70625 235.75313 35.253124Q235.58125 34.784374 235.12813 34.503124Q234.69063 34.221874 234.08125 34.221874Q232.9875 34.221874 232.25313 34.95625Q231.53438 35.675 231.53438 37.26875L231.53438 43.3L229.78438 43.3L229.78438 36.565624Q229.78438 35.39375 229.34688 34.815624Q228.925 34.221874 227.94063 34.221874Q227.20625 34.221874 226.56563 34.6125Q225.94063 35.003124 225.65938 35.753124Q225.37813 36.503124 225.37813 37.925L225.37813 43.3L223.6125 43.3ZM246.72188 39.95625L248.53438 40.190624Q248.1125 41.76875 246.94063 42.659374Q245.78438 43.534374 243.97188 43.534374Q241.70625 43.534374 240.3625 42.14375Q239.03438 40.7375 239.03438 38.20625Q239.03438 35.58125 240.37813 34.14375Q241.72188 32.690624 243.87813 32.690624Q245.95625 32.690624 247.26875 34.1125Q248.59688 35.51875 248.59688 38.096874Q248.59688 38.253124 248.58125 38.565624L240.84688 38.565624Q240.94063 40.26875 241.81563 41.175Q242.69063 42.08125 243.9875 42.08125Q244.95625 42.08125 245.62813 41.58125Q246.31563 41.065624 246.72188 39.95625ZM240.94063 37.1125L246.7375 37.1125Q246.62813 35.815624 246.08125 35.159374Q245.2375 34.14375 243.89375 34.14375Q242.69063 34.14375 241.8625 34.95625Q241.03438 35.753124 240.94063 37.1125ZM259.97186 47.503124Q258.51874 45.675 257.51874 43.221874Q256.51874 40.753124 256.51874 38.1125Q256.51874 35.784374 257.26874 33.659374Q258.14374 31.190624 259.97186 28.7375L261.2375 28.7375Q260.05 30.76875 259.675 31.64375Q259.08124 32.9875 258.7375 34.45625Q258.3156 36.284374 258.3156 38.128124Q258.3156 42.815624 261.2375 47.503124L259.97186 47.503124ZM263.76874 43.3L263.76874 28.9875L265.65936 28.9875L265.65936 41.6125L272.70624 41.6125L272.70624 43.3L263.76874 43.3ZM273.97186 38.1125Q273.97186 35.2375 275.5656 33.846874Q276.90936 32.690624 278.83124 32.690624Q280.97186 32.690624 282.3156 34.096874Q283.675 35.503124 283.675 37.971874Q283.675 39.971874 283.08124 41.128124Q282.4875 42.26875 281.33124 42.909374Q280.1906 43.534374 278.83124 43.534374Q276.64374 43.534374 275.3 42.14375Q273.97186 40.7375 273.97186 38.1125ZM275.76874 38.1125Q275.76874 40.1125 276.6281 41.096874Q277.5031 42.08125 278.83124 42.08125Q280.14374 42.08125 281.0031 41.096874Q281.8781 40.096874 281.8781 38.05Q281.8781 36.128124 281.0031 35.14375Q280.1281 34.14375 278.83124 34.14375Q277.5031 34.14375 276.6281 35.14375Q275.76874 36.128124 275.76874 38.1125ZM287.53436 43.3L284.3625 32.925L286.175 32.925L287.83124 38.909374L288.4406 41.14375Q288.4875 40.971874 288.97186 39.003124L290.6281 32.925L292.4406 32.925L293.9875 38.940624L294.5031 40.925L295.09686 38.925L296.8781 32.925L298.58124 32.925L295.34686 43.3L293.51874 43.3L291.8625 37.08125L291.47186 35.315624L289.3625 43.3L287.53436 43.3ZM307.72186 39.95625L309.53436 40.190624Q309.1125 41.76875 307.9406 42.659374Q306.78436 43.534374 304.97186 43.534374Q302.70624 43.534374 301.3625 42.14375Q300.03436 40.7375 300.03436 38.20625Q300.03436 35.58125 301.3781 34.14375Q302.72186 32.690624 304.8781 32.690624Q306.95624 32.690624 308.26874 34.1125Q309.59686 35.51875 309.59686 38.096874Q309.59686 38.253124 309.58124 38.565624L301.84686 38.565624Q301.9406 40.26875 302.8156 41.175Q303.6906 42.08125 304.9875 42.08125Q305.95624 42.08125 306.6281 41.58125Q307.3156 41.065624 307.72186 39.95625ZM301.9406 37.1125L307.7375 37.1125Q307.6281 35.815624 307.08124 35.159374Q306.2375 34.14375 304.89374 34.14375Q303.6906 34.14375 302.8625 34.95625Q302.03436 35.753124 301.9406 37.1125ZM311.59686 43.3L311.59686 32.925L313.175 32.925L313.175 34.503124Q313.78436 33.39375 314.3 33.05Q314.8156 32.690624 315.425 32.690624Q316.3156 32.690624 317.2375 33.253124L316.6281 34.89375Q315.9875 34.503124 315.34686 34.503124Q314.76874 34.503124 314.3 34.8625Q313.84686 35.20625 313.64374 35.815624Q313.3625 36.753124 313.3625 37.8625L313.3625 43.3L311.59686 43.3ZM325.15936 43.3L325.15936 28.9875L327.0656 28.9875L327.0656 43.3L325.15936 43.3ZM329.90936 40.20625L331.65936 39.925Q331.8 40.971874 332.47186 41.534374Q333.14374 42.08125 334.34686 42.08125Q335.55 42.08125 336.1281 41.596874Q336.72186 41.096874 336.72186 40.440624Q336.72186 39.846874 336.20624 39.503124Q335.84686 39.26875 334.40936 38.909374Q332.47186 38.409374 331.72186 38.065624Q330.9875 37.70625 330.59686 37.08125Q330.20624 36.440624 330.20624 35.675Q330.20624 34.9875 330.51874 34.39375Q330.84686 33.8 331.39374 33.409374Q331.8 33.1125 332.5031 32.909374Q333.22186 32.690624 334.03436 32.690624Q335.2531 32.690624 336.175 33.05Q337.09686 33.39375 337.53436 34.003124Q337.97186 34.596874 338.14374 35.596874L336.425 35.83125Q336.3 35.034374 335.7375 34.596874Q335.175 34.14375 334.15936 34.14375Q332.9406 34.14375 332.425 34.55Q331.90936 34.940624 331.90936 35.471874Q331.90936 35.815624 332.1281 36.096874Q332.33124 36.378124 332.8 36.565624Q333.0656 36.659374 334.34686 37.003124Q336.22186 37.503124 336.95624 37.83125Q337.6906 38.14375 338.1125 38.753124Q338.53436 39.346874 338.53436 40.253124Q338.53436 41.128124 338.01874 41.909374Q337.5031 42.690624 336.53436 43.1125Q335.5656 43.534374 334.34686 43.534374Q332.33124 43.534374 331.26874 42.690624Q330.20624 41.846874 329.90936 40.20625ZM346.76874 43.3L346.76874 28.9875L352.14374 28.9875Q353.78436 28.9875 354.76874 29.425Q355.7531 29.846874 356.3156 30.753124Q356.8781 31.659374 356.8781 32.64375Q356.8781 33.565624 356.3781 34.378124Q355.89374 35.190624 354.8781 35.675Q356.175 36.065624 356.8781 36.9875Q357.58124 37.89375 357.58124 39.14375Q357.58124 40.159374 357.14374 41.01875Q356.72186 41.878124 356.09686 42.346874Q355.47186 42.815624 354.53436 43.065624Q353.59686 43.3 352.22186 43.3L346.76874 43.3ZM348.65936 35.003124L351.7531 35.003124Q353.01874 35.003124 353.5656 34.83125Q354.28436 34.6125 354.64374 34.128124Q355.01874 33.628124 355.01874 32.8625Q355.01874 32.159374 354.675 31.6125Q354.33124 31.065624 353.6906 30.878124Q353.0656 30.675 351.51874 30.675L348.65936 30.675L348.65936 35.003124ZM348.65936 41.6125L352.22186 41.6125Q353.14374 41.6125 353.51874 41.534374Q354.175 41.425 354.6125 41.159374Q355.05 40.878124 355.33124 40.3625Q355.6125 39.83125 355.6125 39.14375Q355.6125 38.346874 355.20624 37.753124Q354.8 37.159374 354.0656 36.925Q353.33124 36.690624 351.97186 36.690624L348.65936 36.690624L348.65936 41.6125ZM366.72186 39.95625L368.53436 40.190624Q368.1125 41.76875 366.9406 42.659374Q365.78436 43.534374 363.97186 43.534374Q361.70624 43.534374 360.3625 42.14375Q359.03436 40.7375 359.03436 38.20625Q359.03436 35.58125 360.3781 34.14375Q361.72186 32.690624 363.8781 32.690624Q365.95624 32.690624 367.26874 34.1125Q368.59686 35.51875 368.59686 38.096874Q368.59686 38.253124 368.58124 38.565624L360.84686 38.565624Q360.9406 40.26875 361.8156 41.175Q362.6906 42.08125 363.9875 42.08125Q364.95624 42.08125 365.6281 41.58125Q366.3156 41.065624 366.72186 39.95625ZM360.9406 37.1125L366.7375 37.1125Q366.6281 35.815624 366.08124 35.159374Q365.2375 34.14375 363.89374 34.14375Q362.6906 34.14375 361.8625 34.95625Q361.03436 35.753124 360.9406 37.1125ZM374.45624 41.721874L374.70624 43.284374Q373.97186 43.440624 373.3781 43.440624Q372.425 43.440624 371.89374 43.14375Q371.3781 42.83125 371.15936 42.346874Q370.9406 41.846874 370.9406 40.26875L370.9406 34.3L369.65936 34.3L369.65936 32.925L370.9406 32.925L370.9406 30.3625L372.6906 29.3L372.6906 32.925L374.45624 32.925L374.45624 34.3L372.6906 34.3L372.6906 40.3625Q372.6906 41.1125 372.78436 41.33125Q372.8781 41.534374 373.08124 41.675Q373.3 41.8 373.6906 41.8Q373.97186 41.8 374.45624 41.721874ZM380.45624 41.721874L380.70624 43.284374Q379.97186 43.440624 379.3781 43.440624Q378.425 43.440624 377.89374 43.14375Q377.3781 42.83125 377.15936 42.346874Q376.9406 41.846874 376.9406 40.26875L376.9406 34.3L375.65936 34.3L375.65936 32.925L376.9406 32.925L376.9406 30.3625L378.6906 29.3L378.6906 32.925L380.45624 32.925L380.45624 34.3L378.6906 34.3L378.6906 40.3625Q378.6906 41.1125 378.78436 41.33125Q378.8781 41.534374 379.08124 41.675Q379.3 41.8 379.6906 41.8Q379.97186 41.8 380.45624 41.721874ZM389.72186 39.95625L391.53436 40.190624Q391.1125 41.76875 389.9406 42.659374Q388.78436 43.534374 386.97186 43.534374Q384.70624 43.534374 383.3625 42.14375Q382.03436 40.7375 382.03436 38.20625Q382.03436 35.58125 383.3781 34.14375Q384.72186 32.690624 386.8781 32.690624Q388.95624 32.690624 390.26874 34.1125Q391.59686 35.51875 391.59686 38.096874Q391.59686 38.253124 391.58124 38.565624L383.84686 38.565624Q383.9406 40.26875 384.8156 41.175Q385.6906 42.08125 386.9875 42.08125Q387.95624 42.08125 388.6281 41.58125Q389.3156 41.065624 389.72186 39.95625ZM383.9406 37.1125L389.7375 37.1125Q389.6281 35.815624 389.08124 35.159374Q388.2375 34.14375 386.89374 34.14375Q385.6906 34.14375 384.8625 34.95625Q384.03436 35.753124 383.9406 37.1125ZM393.59686 43.3L393.59686 32.925L395.175 32.925L395.175 34.503124Q395.78436 33.39375 396.3 33.05Q396.8156 32.690624 397.425 32.690624Q398.3156 32.690624 399.2375 33.253124L398.6281 34.89375Q397.9875 34.503124 397.34686 34.503124Q396.76874 34.503124 396.3 34.8625Q395.84686 35.20625 395.64374 35.815624Q395.3625 36.753124 395.3625 37.8625L395.3625 43.3L393.59686 43.3ZM401.76874 47.503124L400.51874 47.503124Q403.425 42.815624 403.425 38.128124Q403.425 36.284374 403.01874 34.4875Q402.675 33.01875 402.08124 31.675Q401.70624 30.784374 400.51874 28.7375L401.76874 28.7375Q403.6125 31.190624 404.4875 33.659374Q405.2375 35.784374 405.2375 38.1125Q405.2375 40.753124 404.22186 43.221874Q403.22186 45.675 401.76874 47.503124Z" fill-rule="nonzero"/></svg>