<svg version="1.1" viewBox="0.0 0.0 851.0 357.0" fill="none" stroke="none" stroke-linecap="square" stroke-miterlimit="10" width="851" height="357" xmlns:xlink="http://www.w3.org/1999/xlink" xmlns="http://www.w3.org/2000/svg"><path fill="#ffffff" d="M0 0L851.0 0L851.0 357.0L0 357.0L0 0Z" fill-rule="nonzero"/><path stroke="#333333" stroke-width="1.0" stroke-linecap="butt" d="M77.5 285.5L833.5 285.5" fill-rule="nonzero"/><path stroke="#cccccc" stroke-width="1.0" stroke-linecap="butt" d="M77.5 229.5L833.5 229.5" fill-rule="nonzero"/><path stroke="#cccccc" stroke-width="1.0" stroke-linecap="butt" d="M77.5 173.5L833.5 173.5" fill-rule="nonzero"/><path stroke="#cccccc" stroke-width="1.0" stroke-linecap="butt" d="M77.5 117.5L833.5 117.5" fill-rule="nonzero"/><path stroke="#cccccc" stroke-width="1.0" stroke-linecap="butt" d="M77.5 61.5L833.5 61.5" fill-rule="nonzero"/><clipPath id="id_0"><path d="M77.85 61.25L833.15 61.25L833.15 285.15L77.85 285.15L77.85 61.25Z" clip-rule="nonzero"/></clipPath><path stroke="#000000" stroke-width="0.0" stroke-linecap="butt" stroke-opacity="0.0" clip-path="url(#id_0)" d="M115.0 285.0L91.0 285.0L91.0 285.0L115.0 285.0Z" fill-rule="nonzero"/><path fill="#4285f4" clip-path="url(#id_0)" d="M115.0 285.0L91.0 285.0L91.0 285.0L115.0 285.0Z" fill-rule="nonzero"/><path stroke="#000000" stroke-width="0.0" stroke-linecap="butt" stroke-opacity="0.0" clip-path="url(#id_0)" d="M152.0 285.0L128.0 285.0L128.0 285.0L152.0 285.0Z" fill-rule="nonzero"/><path fill="#4285f4" clip-path="url(#id_0)" d="M152.0 285.0L128.0 285.0L128.0 285.0L152.0 285.0Z" fill-rule="nonzero"/><path stroke="#000000" stroke-width="0.0" stroke-linecap="butt" stroke-opacity="0.0" clip-path="url(#id_0)" d="M189.0 285.0L165.0 285.0L165.0 68.0C165.0 66.89543 165.89543 66.0 167.0 66.0L187.0 66.0C188.10457 66.0 189.0 66.89543 189.0 68.0Z" fill-rule="nonzero"/><path fill="#4285f4" clip-path="url(#id_0)" d="M189.0 285.0L165.0 285.0L165.0 68.0C165.0 66.89543 165.89543 66.0 167.0 66.0L187.0 66.0C188.10457 66.0 189.0 66.89543 189.0 68.0Z" fill-rule="nonzero"/><path stroke="#000000" stroke-width="0.0" stroke-linecap="butt" stroke-opacity="0.0" clip-path="url(#id_0)" d="M226.0 285.0L202.0 285.0L202.0 285.0L226.0 285.0Z" fill-rule="nonzero"/><path fill="#4285f4" clip-path="url(#id_0)" d="M226.0 285.0L202.0 285.0L202.0 285.0L226.0 285.0Z" fill-rule="nonzero"/><path stroke="#000000" stroke-width="0.0" stroke-linecap="butt" stroke-opacity="0.0" clip-path="url(#id_0)" d="M263.0 285.0L239.0 285.0L239.0 285.0L263.0 285.0Z" fill-rule="nonzero"/><path fill="#4285f4" clip-path="url(#id_0)" d="M263.0 285.0L239.0 285.0L239.0 285.0L263.0 285.0Z" fill-rule="nonzero"/><path stroke="#000000" stroke-width="0.0" stroke-linecap="butt" stroke-opacity="0.0" clip-path="url(#id_0)" d="M300.0 285.0L276.0 285.0L276.0 285.0L300.0 285.0Z" fill-rule="nonzero"/><path fill="#4285f4" clip-path="url(#id_0)" d="M300.0 285.0L276.0 285.0L276.0 285.0L300.0 285.0Z" fill-rule="nonzero"/><path stroke="#000000" stroke-width="0.0" stroke-linecap="butt" stroke-opacity="0.0" clip-path="url(#id_0)" d="M338.0 285.0L314.0 285.0L314.0 285.0L338.0 285.0Z" fill-rule="nonzero"/><path fill="#4285f4" clip-path="url(#id_0)" d="M338.0 285.0L314.0 285.0L314.0 285.0L338.0 285.0Z" fill-rule="nonzero"/><path stroke="#000000" stroke-width="0.0" stroke-linecap="butt" stroke-opacity="0.0" clip-path="url(#id_0)" d="M375.0 285.0L351.0 285.0L351.0 285.0L375.0 285.0Z" fill-rule="nonzero"/><path fill="#4285f4" clip-path="url(#id_0)" d="M375.0 285.0L351.0 285.0L351.0 285.0L375.0 285.0Z" fill-rule="nonzero"/><path stroke="#000000" stroke-width="0.0" stroke-linecap="butt" stroke-opacity="0.0" clip-path="url(#id_0)" d="M412.0 285.0L388.0 285.0L388.0 285.0L412.0 285.0Z" fill-rule="nonzero"/><path fill="#4285f4" clip-path="url(#id_0)" d="M412.0 285.0L388.0 285.0L388.0 285.0L412.0 285.0Z" fill-rule="nonzero"/><path stroke="#000000" stroke-width="0.0" stroke-linecap="butt" stroke-opacity="0.0" clip-path="url(#id_0)" d="M449.0 285.0L425.0 285.0L425.0 285.0L449.0 285.0Z" fill-rule="nonzero"/><path fill="#4285f4" clip-path="url(#id_0)" d="M449.0 285.0L425.0 285.0L425.0 285.0L449.0 285.0Z" fill-rule="nonzero"/><path stroke="#000000" stroke-width="0.0" stroke-linecap="butt" stroke-opacity="0.0" clip-path="url(#id_0)" d="M486.0 285.0L462.0 285.0L462.0 285.0L486.0 285.0Z" fill-rule="nonzero"/><path fill="#4285f4" clip-path="url(#id_0)" d="M486.0 285.0L462.0 285.0L462.0 285.0L486.0 285.0Z" fill-rule="nonzero"/><path stroke="#000000" stroke-width="0.0" stroke-linecap="butt" stroke-opacity="0.0" clip-path="url(#id_0)" d="M523.0 285.0L499.0 285.0L499.0 285.0L523.0 285.0Z" fill-rule="nonzero"/><path fill="#4285f4" clip-path="url(#id_0)" d="M523.0 285.0L499.0 285.0L499.0 285.0L523.0 285.0Z" fill-rule="nonzero"/><path stroke="#000000" stroke-width="0.0" stroke-linecap="butt" stroke-opacity="0.0" clip-path="url(#id_0)" d="M560.0 285.0L536.0 285.0L536.0 285.0L560.0 285.0Z" fill-rule="nonzero"/><path fill="#4285f4" clip-path="url(#id_0)" d="M560.0 285.0L536.0 285.0L536.0 285.0L560.0 285.0Z" fill-rule="nonzero"/><path stroke="#000000" stroke-width="0.0" stroke-linecap="butt" stroke-opacity="0.0" clip-path="url(#id_0)" d="M597.0 285.0L573.0 285.0L573.0 285.0L597.0 285.0Z" fill-rule="nonzero"/><path fill="#4285f4" clip-path="url(#id_0)" d="M597.0 285.0L573.0 285.0L573.0 285.0L597.0 285.0Z" fill-rule="nonzero"/><path stroke="#000000" stroke-width="0.0" stroke-linecap="butt" stroke-opacity="0.0" clip-path="url(#id_0)" d="M635.0 285.0L611.0 285.0L611.0 285.0L635.0 285.0Z" fill-rule="nonzero"/><path fill="#4285f4" clip-path="url(#id_0)" d="M635.0 285.0L611.0 285.0L611.0 285.0L635.0 285.0Z" fill-rule="nonzero"/><path stroke="#000000" stroke-width="0.0" stroke-linecap="butt" stroke-opacity="0.0" clip-path="url(#id_0)" d="M672.0 285.0L648.0 285.0L648.0 283.0C648.0 281.89542 648.89545 281.0 650.0 281.0L670.0 281.0C671.10455 281.0 672.0 281.89542 672.0 283.0Z" fill-rule="nonzero"/><path fill="#4285f4" clip-path="url(#id_0)" d="M672.0 285.0L648.0 285.0L648.0 283.0C648.0 281.89542 648.89545 281.0 650.0 281.0L670.0 281.0C671.10455 281.0 672.0 281.89542 672.0 283.0Z" fill-rule="nonzero"/><path stroke="#000000" stroke-width="0.0" stroke-linecap="butt" stroke-opacity="0.0" clip-path="url(#id_0)" d="M709.0 285.0L685.0 285.0L685.0 285.0L709.0 285.0Z" fill-rule="nonzero"/><path fill="#4285f4" clip-path="url(#id_0)" d="M709.0 285.0L685.0 285.0L685.0 285.0L709.0 285.0Z" fill-rule="nonzero"/><path stroke="#000000" stroke-width="0.0" stroke-linecap="butt" stroke-opacity="0.0" clip-path="url(#id_0)" d="M746.0 285.0L722.0 285.0L722.0 285.0L746.0 285.0Z" fill-rule="nonzero"/><path fill="#4285f4" clip-path="url(#id_0)" d="M746.0 285.0L722.0 285.0L722.0 285.0L746.0 285.0Z" fill-rule="nonzero"/><path stroke="#000000" stroke-width="0.0" stroke-linecap="butt" stroke-opacity="0.0" clip-path="url(#id_0)" d="M783.0 285.0L759.0 285.0L759.0 285.0L783.0 285.0Z" fill-rule="nonzero"/><path fill="#4285f4" clip-path="url(#id_0)" d="M783.0 285.0L759.0 285.0L759.0 285.0L783.0 285.0Z" fill-rule="nonzero"/><path stroke="#000000" stroke-width="0.0" stroke-linecap="butt" stroke-opacity="0.0" clip-path="url(#id_0)" d="M820.0 285.0L796.0 285.0L796.0 285.0L820.0 285.0Z" fill-rule="nonzero"/><path fill="#4285f4" clip-path="url(#id_0)" d="M820.0 285.0L796.0 285.0L796.0 285.0L820.0 285.0Z" fill-rule="nonzero"/><path fill="#424242" d="M421.26562 336.15L420.1875 336.15L420.1875 328.93124L418.0 329.72812L418.0 328.74374L421.10938 327.57187L421.26562 327.57187L421.26562 336.15ZM430.0625 332.50937Q430.0625 334.41562 429.40625 335.35312Q428.76562 336.275 427.375 336.275Q426.01562 336.275 425.35938 335.36874Q424.70312 334.4625 424.67188 332.65L424.67188 331.2125Q424.67188 329.32187 425.3125 328.41562Q425.96875 327.49374 427.35938 327.49374Q428.73438 327.49374 429.39062 328.38437Q430.04688 329.25937 430.0625 331.10312L430.0625 332.50937ZM428.96875 331.025Q428.96875 329.65 428.57812 329.025Q428.20312 328.38437 427.35938 328.38437Q426.53125 328.38437 426.14062 329.025Q425.76562 329.65 425.76562 330.94687L425.76562 332.68124Q425.76562 334.05624 426.15625 334.72812Q426.5625 335.38437 427.375 335.38437Q428.17188 335.38437 428.5625 334.75937Q428.95312 334.13437 428.96875 332.80624L428.96875 331.025ZM437.0625 332.50937Q437.0625 334.41562 436.40625 335.35312Q435.76562 336.275 434.375 336.275Q433.01562 336.275 432.35938 335.36874Q431.70312 334.4625 431.67188 332.65L431.67188 331.2125Q431.67188 329.32187 432.3125 328.41562Q432.96875 327.49374 434.35938 327.49374Q435.73438 327.49374 436.39062 328.38437Q437.04688 329.25937 437.0625 331.10312L437.0625 332.50937ZM435.96875 331.025Q435.96875 329.65 435.57812 329.025Q435.20312 328.38437 434.35938 328.38437Q433.53125 328.38437 433.14062 329.025Q432.76562 329.65 432.76562 330.94687L432.76562 332.68124Q432.76562 334.05624 433.15625 334.72812Q433.5625 335.38437 434.375 335.38437Q435.17188 335.38437 435.5625 334.75937Q435.95312 334.13437 435.96875 332.80624L435.96875 331.025ZM439.84375 329.80624L439.875 330.50937Q440.5625 329.69687 441.75 329.69687Q443.07812 329.69687 443.5625 330.7125Q443.875 330.25937 444.375 329.97812Q444.89062 329.69687 445.57812 329.69687Q447.67188 329.69687 447.70312 331.9L447.70312 336.15L446.625 336.15L446.625 331.9625Q446.625 331.29062 446.3125 330.9625Q446.0 330.61874 445.26562 330.61874Q444.65625 330.61874 444.25 330.97812Q443.85938 331.3375 443.79688 331.94687L443.79688 336.15L442.71875 336.15L442.71875 331.99374Q442.71875 330.61874 441.35938 330.61874Q440.29688 330.61874 439.90625 331.525L439.90625 336.15L438.8125 336.15L438.8125 329.80624L439.84375 329.80624ZM453.51562 334.4625Q453.51562 334.025 453.17188 333.79062Q452.84375 333.54062 452.01562 333.36874Q451.20312 333.19687 450.71875 332.94687Q450.23438 332.69687 450.0 332.36874Q449.78125 332.025 449.78125 331.55624Q449.78125 330.775 450.4375 330.24374Q451.09375 329.69687 452.125 329.69687Q453.20312 329.69687 453.85938 330.25937Q454.53125 330.80624 454.53125 331.66562L453.45312 331.66562Q453.45312 331.22812 453.0625 330.91562Q452.6875 330.5875 452.125 330.5875Q451.53125 330.5875 451.1875 330.85312Q450.85938 331.10312 450.85938 331.50937Q450.85938 331.9 451.17188 332.10312Q451.48438 332.30624 452.29688 332.49374Q453.10938 332.66562 453.60938 332.91562Q454.10938 333.16562 454.34375 333.525Q454.59375 333.88437 454.59375 334.38437Q454.59375 335.24374 453.90625 335.75937Q453.23438 336.275 452.15625 336.275Q451.39062 336.275 450.79688 336.00937Q450.21875 335.72812 449.89062 335.24374Q449.5625 334.75937 449.5625 334.19687L450.64062 334.19687Q450.67188 334.74374 451.07812 335.07187Q451.48438 335.38437 452.15625 335.38437Q452.76562 335.38437 453.14062 335.13437Q453.51562 334.88437 453.51562 334.4625ZM458.98438 336.15L458.98438 327.61874L461.78125 327.61874Q463.17188 327.61874 463.85938 328.19687Q464.5625 328.75937 464.5625 329.88437Q464.5625 330.49374 464.21875 330.9625Q463.89062 331.41562 463.29688 331.66562Q464.0 331.85312 464.39062 332.4Q464.79688 332.93124 464.79688 333.68124Q464.79688 334.8375 464.04688 335.49374Q463.3125 336.15 461.95312 336.15L458.98438 336.15ZM460.10938 332.16562L460.10938 335.22812L461.96875 335.22812Q462.76562 335.22812 463.21875 334.82187Q463.67188 334.41562 463.67188 333.69687Q463.67188 332.16562 461.98438 332.16562L460.10938 332.16562ZM460.10938 331.25937L461.8125 331.25937Q462.54688 331.25937 462.98438 330.9Q463.4375 330.525 463.4375 329.88437Q463.4375 329.18124 463.03125 328.86874Q462.625 328.54062 461.78125 328.54062L460.10938 328.54062L460.10938 331.25937ZM469.73438 335.525Q469.10938 336.275 467.875 336.275Q466.85938 336.275 466.32812 335.68124Q465.79688 335.0875 465.79688 333.93124L465.79688 329.80624L466.875 329.80624L466.875 333.9Q466.875 335.35312 468.04688 335.35312Q469.29688 335.35312 469.70312 334.41562L469.70312 329.80624L470.79688 329.80624L470.79688 336.15L469.76562 336.15L469.73438 335.525ZM475.35938 335.38437Q475.9375 335.38437 476.375 335.04062Q476.8125 334.68124 476.85938 334.15L477.89062 334.15Q477.85938 334.69687 477.5 335.19687Q477.15625 335.68124 476.57812 335.97812Q476.01562 336.275 475.35938 336.275Q474.0625 336.275 473.29688 335.41562Q472.54688 334.54062 472.54688 333.04062L472.54688 332.85312Q472.54688 331.93124 472.875 331.2125Q473.21875 330.49374 473.84375 330.10312Q474.48438 329.69687 475.35938 329.69687Q476.42188 329.69687 477.125 330.3375Q477.84375 330.9625 477.89062 331.99374L476.85938 331.99374Q476.8125 331.36874 476.39062 330.97812Q475.96875 330.5875 475.35938 330.5875Q474.53125 330.5875 474.07812 331.18124Q473.625 331.775 473.625 332.9L473.625 333.10312Q473.625 334.19687 474.07812 334.79062Q474.53125 335.38437 475.35938 335.38437ZM480.59375 333.2125L479.90625 333.91562L479.90625 336.15L478.82812 336.15L478.82812 327.15L479.90625 327.15L479.90625 332.5875L480.48438 331.9L482.46875 329.80624L483.78125 329.80624L481.3125 332.4625L484.07812 336.15L482.79688 336.15L480.59375 333.2125ZM487.45312 336.275Q486.15625 336.275 485.34375 335.43124Q484.54688 334.57187 484.54688 333.15L484.54688 332.9625Q484.54688 332.00937 484.90625 331.275Q485.26562 330.525 485.90625 330.11874Q486.5625 329.69687 487.3125 329.69687Q488.54688 329.69687 489.23438 330.50937Q489.92188 331.32187 489.92188 332.8375L489.92188 333.29062L485.625 333.29062Q485.65625 334.22812 486.17188 334.80624Q486.70312 335.38437 487.51562 335.38437Q488.07812 335.38437 488.46875 335.15Q488.875 334.91562 489.1875 334.525L489.84375 335.04062Q489.04688 336.275 487.45312 336.275ZM487.3125 330.5875Q486.65625 330.5875 486.20312 331.07187Q485.76562 331.54062 485.67188 332.4L488.84375 332.4L488.84375 332.32187Q488.79688 331.49374 488.39062 331.04062Q488.0 330.5875 487.3125 330.5875ZM492.29688 328.275L492.29688 329.80624L493.46875 329.80624L493.46875 330.65L492.29688 330.65L492.29688 334.57187Q492.29688 334.9625 492.45312 335.15Q492.60938 335.3375 492.98438 335.3375Q493.17188 335.3375 493.5 335.275L493.5 336.15Q493.07812 336.275 492.67188 336.275Q491.95312 336.275 491.57812 335.8375Q491.20312 335.38437 491.20312 334.57187L491.20312 330.65L490.04688 330.65L490.04688 329.80624L491.20312 329.80624L491.20312 328.275L492.29688 328.275Z" fill-rule="nonzero"/><path fill="#424242" d="M25.86562 205.95Q27.099995 205.95 27.99062 206.34062Q28.881245 206.73125 29.381245 207.43437L30.58437 205.91875L31.287495 206.68437L29.86562 208.48125Q29.974995 208.90312 29.974995 209.37187Q29.974995 210.37187 29.474995 211.15312Q28.974995 211.93437 28.068745 212.37187Q27.14687 212.79375 25.92812 212.80937L25.318745 212.80937Q24.08437 212.80937 23.14687 212.3875Q22.20937 211.95 21.70937 211.16875Q21.193745 210.3875 21.193745 209.3875Q21.193745 208.35625 21.693745 207.575Q22.193745 206.79375 23.131245 206.37187Q24.068745 205.95 25.318745 205.95L25.86562 205.95ZM25.30312 207.075Q23.80312 207.075 22.99062 207.66875Q22.162495 208.2625 22.162495 209.3875Q22.162495 210.45 22.974995 211.05937Q23.787495 211.66875 25.224995 211.68437L25.86562 211.68437Q27.318745 211.68437 28.162495 211.075Q29.006245 210.46562 29.006245 209.37187Q29.006245 208.27812 28.224995 207.68437Q27.42812 207.09062 25.943745 207.075L25.30312 207.075ZM29.224995 200.71562Q29.974995 201.34062 29.974995 202.575Q29.974995 203.59062 29.381245 204.12187Q28.787495 204.65312 27.631245 204.65312L23.506245 204.65312L23.506245 203.575L27.599995 203.575Q29.05312 203.575 29.05312 202.40312Q29.05312 201.15312 28.11562 200.74687L23.506245 200.74687L23.506245 199.65312L29.849995 199.65312L29.849995 200.68437L29.224995 200.71562ZM29.974995 194.99687Q29.974995 196.29375 29.131245 197.10625Q28.27187 197.90312 26.849995 197.90312L26.662495 197.90312Q25.70937 197.90312 24.974995 197.54375Q24.224995 197.18437 23.818745 196.54375Q23.39687 195.8875 23.39687 195.1375Q23.39687 193.90312 24.20937 193.21562Q25.02187 192.52812 26.537495 192.52812L26.99062 192.52812L26.99062 196.825Q27.92812 196.79375 28.506245 196.27812Q29.08437 195.74687 29.08437 194.93437Q29.08437 194.37187 28.849995 193.98125Q28.61562 193.575 28.224995 193.2625L28.74062 192.60625Q29.974995 193.40312 29.974995 194.99687ZM24.287495 195.1375Q24.287495 195.79375 24.77187 196.24687Q25.24062 196.68437 26.099995 196.77812L26.099995 193.60625L26.02187 193.60625Q25.193745 193.65312 24.74062 194.05937Q24.287495 194.45 24.287495 195.1375ZM24.474995 188.55937Q24.443745 188.80937 24.443745 189.09062Q24.443745 190.16875 25.349995 190.54375L29.849995 190.54375L29.849995 191.62187L23.506245 191.62187L23.506245 190.575L24.24062 190.55937Q23.39687 190.02812 23.39687 189.04375Q23.39687 188.73125 23.474995 188.55937L24.474995 188.55937ZM28.256245 185.55937L23.506245 184.075L23.506245 182.91875L30.83437 185.46562Q32.412495 186.05937 32.412495 187.34062L32.39687 187.55937L32.318745 187.95L31.443745 187.95L31.45937 187.66875Q31.45937 187.10625 31.24062 186.80937Q31.02187 186.49687 30.42812 186.29375L29.77187 186.05937L23.506245 188.325L23.506245 187.1375L28.256245 185.55937ZM27.14687 172.18437Q28.49062 172.34062 29.24062 173.18437Q29.974995 174.02812 29.974995 175.41875Q29.974995 176.93437 28.89687 177.84062Q27.80312 178.74687 25.974995 178.74687L25.162495 178.74687Q23.974995 178.74687 23.068745 178.325Q22.162495 177.90312 21.67812 177.12187Q21.193745 176.34062 21.193745 175.325Q21.193745 173.96562 21.95937 173.15312Q22.724995 172.325 24.05312 172.18437L24.05312 173.30937Q23.037495 173.46562 22.58437 173.95Q22.131245 174.43437 22.131245 175.325Q22.131245 176.40312 22.92812 177.0125Q23.724995 177.62187 25.193745 177.62187L26.02187 177.62187Q27.412495 177.62187 28.24062 177.04375Q29.05312 176.46562 29.05312 175.41875Q29.05312 174.48125 28.631245 173.98125Q28.193745 173.48125 27.14687 173.30937L27.14687 172.18437ZM26.61562 170.91875Q25.693745 170.91875 24.943745 170.55937Q24.193745 170.18437 23.80312 169.52812Q23.39687 168.87187 23.39687 168.04375Q23.39687 166.74687 24.287495 165.95Q25.17812 165.1375 26.67812 165.1375L26.756245 165.1375Q27.67812 165.1375 28.412495 165.49687Q29.14687 165.85625 29.568745 166.5125Q29.974995 167.16875 29.974995 168.02812Q29.974995 169.30937 29.08437 170.12187Q28.17812 170.91875 26.693745 170.91875L26.61562 170.91875ZM26.756245 169.825Q27.80312 169.825 28.443745 169.34062Q29.08437 168.84062 29.08437 168.02812Q29.08437 167.2 28.443745 166.71562Q27.787495 166.23125 26.61562 166.23125Q25.58437 166.23125 24.943745 166.73125Q24.287495 167.21562 24.287495 168.04375Q24.287495 168.84062 24.92812 169.34062Q25.55312 169.825 26.756245 169.825ZM29.224995 159.71562Q29.974995 160.34062 29.974995 161.575Q29.974995 162.59062 29.381245 163.12187Q28.787495 163.65312 27.631245 163.65312L23.506245 163.65312L23.506245 162.575L27.599995 162.575Q29.05312 162.575 29.05312 161.40312Q29.05312 160.15312 28.11562 159.74687L23.506245 159.74687L23.506245 158.65312L29.849995 158.65312L29.849995 159.68437L29.224995 159.71562ZM23.506245 155.60625L24.30312 155.575Q23.39687 154.84062 23.39687 153.66875Q23.39687 151.65312 25.662495 151.6375L29.849995 151.6375L29.849995 152.73125L25.64687 152.73125Q24.974995 152.73125 24.64687 153.04375Q24.318745 153.34062 24.318745 153.99687Q24.318745 154.52812 24.599995 154.93437Q24.881245 155.325 25.33437 155.54375L29.849995 155.54375L29.849995 156.62187L23.506245 156.62187L23.506245 155.60625ZM21.974995 148.15312L23.506245 148.15312L23.506245 146.98125L24.349995 146.98125L24.349995 148.15312L28.27187 148.15312Q28.662495 148.15312 28.849995 147.99687Q29.037495 147.84062 29.037495 147.46562Q29.037495 147.27812 28.974995 146.95L29.849995 146.95Q29.974995 147.37187 29.974995 147.77812Q29.974995 148.49687 29.537495 148.87187Q29.08437 149.24687 28.27187 149.24687L24.349995 149.24687L24.349995 150.40312L23.506245 150.40312L23.506245 149.24687L21.974995 149.24687L21.974995 148.15312Z" fill-rule="nonzero"/><path fill="#757575" d="M70.9125 286.00937Q70.9125 287.91562 70.25625 288.85312Q69.61562 289.775 68.225 289.775Q66.86562 289.775 66.20937 288.86874Q65.55312 287.9625 65.52187 286.15L65.52187 284.7125Q65.52187 282.82187 66.1625 281.91562Q66.81875 280.99374 68.20937 280.99374Q69.58437 280.99374 70.24062 281.88437Q70.89687 282.75937 70.9125 284.60312L70.9125 286.00937ZM69.81875 284.525Q69.81875 283.15 69.42812 282.525Q69.05312 281.88437 68.20937 281.88437Q67.38125 281.88437 66.99062 282.525Q66.61562 283.15 66.61562 284.44687L66.61562 286.18124Q66.61562 287.55624 67.00625 288.22812Q67.4125 288.88437 68.225 288.88437Q69.02187 288.88437 69.4125 288.25937Q69.80312 287.63437 69.81875 286.30624L69.81875 284.525Z" fill-rule="nonzero"/><path fill="#757575" d="M64.14687 233.675L58.553123 233.675L58.553123 232.89375L61.50625 229.6125Q62.1625 228.8625 62.4125 228.40938Q62.6625 227.94063 62.6625 227.44063Q62.6625 226.76875 62.25625 226.34688Q61.865623 225.90938 61.178123 225.90938Q60.38125 225.90938 59.928123 226.37813Q59.475 226.83125 59.475 227.65938L58.396873 227.65938Q58.396873 226.47188 59.146873 225.75313Q59.9125 225.01875 61.178123 225.01875Q62.38125 225.01875 63.06875 225.64375Q63.75625 226.26875 63.75625 227.31563Q63.75625 228.56563 62.146873 230.31563L59.865623 232.78438L64.14687 232.78438L64.14687 233.675ZM66.05312 229.39375L66.49062 225.14375L70.86562 225.14375L70.86562 226.14375L67.4125 226.14375L67.14687 228.47188Q67.7875 228.09688 68.58437 228.09688Q69.74062 228.09688 70.42812 228.87813Q71.11562 229.64375 71.11562 230.95625Q71.11562 232.26875 70.39687 233.03438Q69.69375 233.8 68.4125 233.8Q67.2875 233.8 66.56875 233.175Q65.85 232.53438 65.75625 231.425L66.77187 231.425Q66.88125 232.15938 67.30312 232.53438Q67.725 232.90938 68.4125 232.90938Q69.1625 232.90938 69.6 232.39375Q70.0375 231.87813 70.0375 230.97188Q70.0375 230.1125 69.56875 229.59688Q69.1 229.08125 68.31875 229.08125Q67.61562 229.08125 67.20937 229.37813L66.92812 229.6125L66.05312 229.39375Z" fill-rule="nonzero"/><path fill="#757575" d="M59.053123 173.41875L59.490623 169.16875L63.865623 169.16875L63.865623 170.16875L60.4125 170.16875L60.146873 172.49687Q60.7875 172.12187 61.584373 172.12187Q62.740623 172.12187 63.428123 172.90312Q64.11562 173.66875 64.11562 174.98125Q64.11562 176.29375 63.396873 177.05937Q62.69375 177.825 61.4125 177.825Q60.2875 177.825 59.56875 177.2Q58.85 176.55937 58.75625 175.45L59.771873 175.45Q59.88125 176.18437 60.303123 176.55937Q60.725 176.93437 61.4125 176.93437Q62.1625 176.93437 62.6 176.41875Q63.0375 175.90312 63.0375 174.99687Q63.0375 174.1375 62.56875 173.62187Q62.1 173.10625 61.31875 173.10625Q60.615623 173.10625 60.209373 173.40312L59.928123 173.6375L59.053123 173.41875ZM70.9125 174.05937Q70.9125 175.96562 70.25625 176.90312Q69.61562 177.825 68.225 177.825Q66.86562 177.825 66.20937 176.91875Q65.55312 176.0125 65.52187 174.2L65.52187 172.7625Q65.52187 170.87187 66.1625 169.96562Q66.81875 169.04375 68.20937 169.04375Q69.58437 169.04375 70.24062 169.93437Q70.89687 170.80937 70.9125 172.65312L70.9125 174.05937ZM69.81875 172.575Q69.81875 171.2 69.42812 170.575Q69.05312 169.93437 68.20937 169.93437Q67.38125 169.93437 66.99062 170.575Q66.61562 171.2 66.61562 172.49687L66.61562 174.23125Q66.61562 175.60625 67.00625 176.27812Q67.4125 176.93437 68.225 176.93437Q69.02187 176.93437 69.4125 176.30937Q69.80312 175.68437 69.81875 174.35625L69.81875 172.575Z" fill-rule="nonzero"/><path fill="#757575" d="M64.06875 113.80312L60.5375 121.725L59.396873 121.725L62.9125 114.08437L58.303123 114.08437L58.303123 113.19375L64.06875 113.19375L64.06875 113.80312ZM66.05312 117.44375L66.49062 113.19375L70.86562 113.19375L70.86562 114.19375L67.4125 114.19375L67.14687 116.52187Q67.7875 116.14687 68.58437 116.14687Q69.74062 116.14687 70.42812 116.92812Q71.11562 117.69375 71.11562 119.00625Q71.11562 120.31875 70.39687 121.08437Q69.69375 121.85 68.4125 121.85Q67.2875 121.85 66.56875 121.225Q65.85 120.58437 65.75625 119.475L66.77187 119.475Q66.88125 120.20937 67.30312 120.58437Q67.725 120.95937 68.4125 120.95937Q69.1625 120.95937 69.6 120.44375Q70.0375 119.92812 70.0375 119.02187Q70.0375 118.1625 69.56875 117.64687Q69.1 117.13125 68.31875 117.13125Q67.61562 117.13125 67.20937 117.42812L66.92812 117.6625L66.05312 117.44375Z" fill-rule="nonzero"/><path fill="#757575" d="M55.115623 65.75L54.0375 65.75L54.0375 58.53125L51.85 59.328125L51.85 58.34375L54.959373 57.171875L55.115623 57.171875L55.115623 65.75ZM63.9125 62.109375Q63.9125 64.015625 63.25625 64.953125Q62.615623 65.875 61.225 65.875Q59.865623 65.875 59.209373 64.96875Q58.553123 64.0625 58.521873 62.25L58.521873 60.8125Q58.521873 58.921875 59.1625 58.015625Q59.81875 57.09375 61.209373 57.09375Q62.584373 57.09375 63.240623 57.984375Q63.896873 58.859375 63.9125 60.703125L63.9125 62.109375ZM62.81875 60.625Q62.81875 59.25 62.428123 58.625Q62.053123 57.984375 61.209373 57.984375Q60.38125 57.984375 59.990623 58.625Q59.615623 59.25 59.615623 60.546875L59.615623 62.28125Q59.615623 63.65625 60.00625 64.328125Q60.4125 64.984375 61.225 64.984375Q62.021873 64.984375 62.4125 64.359375Q62.803123 63.734375 62.81875 62.40625L62.81875 60.625ZM70.9125 62.109375Q70.9125 64.015625 70.25625 64.953125Q69.61562 65.875 68.225 65.875Q66.86562 65.875 66.20937 64.96875Q65.55312 64.0625 65.52187 62.25L65.52187 60.8125Q65.52187 58.921875 66.1625 58.015625Q66.81875 57.09375 68.20937 57.09375Q69.58437 57.09375 70.24062 57.984375Q70.89687 58.859375 70.9125 60.703125L70.9125 62.109375ZM69.81875 60.625Q69.81875 59.25 69.42812 58.625Q69.05312 57.984375 68.20937 57.984375Q67.38125 57.984375 66.99062 58.625Q66.61562 59.25 66.61562 60.546875L66.61562 62.28125Q66.61562 63.65625 67.00625 64.328125Q67.4125 64.984375 68.225 64.984375Q69.02187 64.984375 69.4125 64.359375Q69.80312 63.734375 69.81875 62.40625L69.81875 60.625Z" fill-rule="nonzero"/><path fill="#757575" d="M105.46545 299.50937Q105.46545 301.41562 104.8092 302.35312Q104.16857 303.275 102.77795 303.275Q101.41857 303.275 100.76232 302.36874Q100.10607 301.4625 100.07482 299.65L100.07482 298.2125Q100.07482 296.32187 100.71545 295.41562Q101.3717 294.49374 102.76232 294.49374Q104.13732 294.49374 104.79357 295.38437Q105.44982 296.25937 105.46545 298.10312L105.46545 299.50937ZM104.3717 298.025Q104.3717 296.65 103.98107 296.025Q103.60607 295.38437 102.76232 295.38437Q101.9342 295.38437 101.54357 296.025Q101.16857 296.65 101.16857 297.94687L101.16857 299.68124Q101.16857 301.05624 101.5592 301.72812Q101.96545 302.38437 102.77795 302.38437Q103.57482 302.38437 103.96545 301.75937Q104.35607 301.13437 104.3717 299.80624L104.3717 298.025Z" fill-rule="nonzero"/><path fill="#757575" d="M133.78406 303.15L132.70593 303.15L132.70593 295.93124L130.51843 296.72812L130.51843 295.74374L133.6278 294.57187L133.78406 294.57187L133.78406 303.15ZM142.58093 299.50937Q142.58093 301.41562 141.92468 302.35312Q141.28406 303.275 139.89343 303.275Q138.53406 303.275 137.8778 302.36874Q137.22156 301.4625 137.1903 299.65L137.1903 298.2125Q137.1903 296.32187 137.83093 295.41562Q138.48718 294.49374 139.8778 294.49374Q141.2528 294.49374 141.90906 295.38437Q142.5653 296.25937 142.58093 298.10312L142.58093 299.50937ZM141.48718 298.025Q141.48718 296.65 141.09656 296.025Q140.72156 295.38437 139.8778 295.38437Q139.04968 295.38437 138.65906 296.025Q138.28406 296.65 138.28406 297.94687L138.28406 299.68124Q138.28406 301.05624 138.67468 301.72812Q139.08093 302.38437 139.89343 302.38437Q140.6903 302.38437 141.08093 301.75937Q141.47156 301.13437 141.48718 299.80624L141.48718 298.025ZM149.58093 299.50937Q149.58093 301.41562 148.92468 302.35312Q148.28406 303.275 146.89343 303.275Q145.53406 303.275 144.8778 302.36874Q144.22156 301.4625 144.1903 299.65L144.1903 298.2125Q144.1903 296.32187 144.83093 295.41562Q145.48718 294.49374 146.8778 294.49374Q148.2528 294.49374 148.90906 295.38437Q149.5653 296.25937 149.58093 298.10312L149.58093 299.50937ZM148.48718 298.025Q148.48718 296.65 148.09656 296.025Q147.72156 295.38437 146.8778 295.38437Q146.04968 295.38437 145.65906 296.025Q145.28406 296.65 145.28406 297.94687L145.28406 299.68124Q145.28406 301.05624 145.67468 301.72812Q146.08093 302.38437 146.89343 302.38437Q147.6903 302.38437 148.08093 301.75937Q148.47156 301.13437 148.48718 299.80624L148.48718 298.025Z" fill-rule="nonzero"/><path fill="#757575" d="M172.93079 303.15L167.33704 303.15L167.33704 302.36874L170.29016 299.0875Q170.94641 298.3375 171.19641 297.88437Q171.44641 297.41562 171.44641 296.91562Q171.44641 296.24374 171.04016 295.82187Q170.64954 295.38437 169.96204 295.38437Q169.16516 295.38437 168.71204 295.85312Q168.25891 296.30624 168.25891 297.13437L167.18079 297.13437Q167.18079 295.94687 167.93079 295.22812Q168.69641 294.49374 169.96204 294.49374Q171.16516 294.49374 171.85266 295.11874Q172.54016 295.74374 172.54016 296.79062Q172.54016 298.04062 170.93079 299.79062L168.64954 302.25937L172.93079 302.25937L172.93079 303.15ZM179.69641 299.50937Q179.69641 301.41562 179.04016 302.35312Q178.39954 303.275 177.00891 303.275Q175.64954 303.275 174.99329 302.36874Q174.33704 301.4625 174.30579 299.65L174.30579 298.2125Q174.30579 296.32187 174.94641 295.41562Q175.60266 294.49374 176.99329 294.49374Q178.36829 294.49374 179.02454 295.38437Q179.68079 296.25937 179.69641 298.10312L179.69641 299.50937ZM178.60266 298.025Q178.60266 296.65 178.21204 296.025Q177.83704 295.38437 176.99329 295.38437Q176.16516 295.38437 175.77454 296.025Q175.39954 296.65 175.39954 297.94687L175.39954 299.68124Q175.39954 301.05624 175.79016 301.72812Q176.19641 302.38437 177.00891 302.38437Q177.80579 302.38437 178.19641 301.75937Q178.58704 301.13437 178.60266 299.80624L178.60266 298.025ZM186.69641 299.50937Q186.69641 301.41562 186.04016 302.35312Q185.39954 303.275 184.00891 303.275Q182.64954 303.275 181.99329 302.36874Q181.33704 301.4625 181.30579 299.65L181.30579 298.2125Q181.30579 296.32187 181.94641 295.41562Q182.60266 294.49374 183.99329 294.49374Q185.36829 294.49374 186.02454 295.38437Q186.68079 296.25937 186.69641 298.10312L186.69641 299.50937ZM185.60266 298.025Q185.60266 296.65 185.21204 296.025Q184.83704 295.38437 183.99329 295.38437Q183.16516 295.38437 182.77454 296.025Q182.39954 296.65 182.39954 297.94687L182.39954 299.68124Q182.39954 301.05624 182.79016 301.72812Q183.19641 302.38437 184.00891 302.38437Q184.80579 302.38437 185.19641 301.75937Q185.58704 301.13437 185.60266 299.80624L185.60266 298.025Z" fill-rule="nonzero"/><path fill="#757575" d="M206.03064 298.35312L206.84314 298.35312Q207.62439 298.3375 208.06189 297.94687Q208.49939 297.55624 208.49939 296.88437Q208.49939 295.38437 206.99939 295.38437Q206.29626 295.38437 205.87439 295.79062Q205.46814 296.19687 205.46814 296.85312L204.37439 296.85312Q204.37439 295.8375 205.10876 295.16562Q205.85876 294.49374 206.99939 294.49374Q208.20251 294.49374 208.89001 295.13437Q209.57751 295.775 209.57751 296.91562Q209.57751 297.47812 209.21814 297.99374Q208.85876 298.50937 208.23376 298.775Q208.93689 298.99374 209.31189 299.50937Q209.70251 300.025 209.70251 300.775Q209.70251 301.91562 208.95251 302.60312Q208.20251 303.275 206.99939 303.275Q205.81189 303.275 205.04626 302.61874Q204.29626 301.9625 204.29626 300.9L205.39001 300.9Q205.39001 301.57187 205.82751 301.97812Q206.26501 302.38437 207.01501 302.38437Q207.79626 302.38437 208.20251 301.97812Q208.62439 301.55624 208.62439 300.79062Q208.62439 300.05624 208.17126 299.66562Q207.71814 299.25937 206.84314 299.24374L206.03064 299.24374L206.03064 298.35312ZM216.81189 299.50937Q216.81189 301.41562 216.15564 302.35312Q215.51501 303.275 214.12439 303.275Q212.76501 303.275 212.10876 302.36874Q211.45251 301.4625 211.42126 299.65L211.42126 298.2125Q211.42126 296.32187 212.06189 295.41562Q212.71814 294.49374 214.10876 294.49374Q215.48376 294.49374 216.14001 295.38437Q216.79626 296.25937 216.81189 298.10312L216.81189 299.50937ZM215.71814 298.025Q215.71814 296.65 215.32751 296.025Q214.95251 295.38437 214.10876 295.38437Q213.28064 295.38437 212.89001 296.025Q212.51501 296.65 212.51501 297.94687L212.51501 299.68124Q212.51501 301.05624 212.90564 301.72812Q213.31189 302.38437 214.12439 302.38437Q214.92126 302.38437 215.31189 301.75937Q215.70251 301.13437 215.71814 299.80624L215.71814 298.025ZM223.81189 299.50937Q223.81189 301.41562 223.15564 302.35312Q222.51501 303.275 221.12439 303.275Q219.76501 303.275 219.10876 302.36874Q218.45251 301.4625 218.42126 299.65L218.42126 298.2125Q218.42126 296.32187 219.06189 295.41562Q219.71814 294.49374 221.10876 294.49374Q222.48376 294.49374 223.14001 295.38437Q223.79626 296.25937 223.81189 298.10312L223.81189 299.50937ZM222.71814 298.025Q222.71814 296.65 222.32751 296.025Q221.95251 295.38437 221.10876 295.38437Q220.28064 295.38437 219.89001 296.025Q219.51501 296.65 219.51501 297.94687L219.51501 299.68124Q219.51501 301.05624 219.90564 301.72812Q220.31189 302.38437 221.12439 302.38437Q221.92126 302.38437 222.31189 301.75937Q222.70251 301.13437 222.71814 299.80624L222.71814 298.025Z" fill-rule="nonzero"/><path fill="#757575" d="M246.14612 300.29062L247.33362 300.29062L247.33362 301.16562L246.14612 301.16562L246.14612 303.15L245.068 303.15L245.068 301.16562L241.17737 301.16562L241.17737 300.525L244.98987 294.61874L246.14612 294.61874L246.14612 300.29062ZM242.41174 300.29062L245.068 300.29062L245.068 296.10312L244.92737 296.3375L242.41174 300.29062ZM253.92737 299.50937Q253.92737 301.41562 253.27112 302.35312Q252.6305 303.275 251.23987 303.275Q249.8805 303.275 249.22424 302.36874Q248.568 301.4625 248.53674 299.65L248.53674 298.2125Q248.53674 296.32187 249.17737 295.41562Q249.83362 294.49374 251.22424 294.49374Q252.59924 294.49374 253.2555 295.38437Q253.91174 296.25937 253.92737 298.10312L253.92737 299.50937ZM252.83362 298.025Q252.83362 296.65 252.443 296.025Q252.068 295.38437 251.22424 295.38437Q250.39612 295.38437 250.0055 296.025Q249.6305 296.65 249.6305 297.94687L249.6305 299.68124Q249.6305 301.05624 250.02112 301.72812Q250.42737 302.38437 251.23987 302.38437Q252.03674 302.38437 252.42737 301.75937Q252.818 301.13437 252.83362 299.80624L252.83362 298.025ZM260.92737 299.50937Q260.92737 301.41562 260.27112 302.35312Q259.6305 303.275 258.23987 303.275Q256.8805 303.275 256.22424 302.36874Q255.568 301.4625 255.53674 299.65L255.53674 298.2125Q255.53674 296.32187 256.17737 295.41562Q256.83362 294.49374 258.22424 294.49374Q259.59924 294.49374 260.2555 295.38437Q260.91174 296.25937 260.92737 298.10312L260.92737 299.50937ZM259.83362 298.025Q259.83362 296.65 259.443 296.025Q259.068 295.38437 258.22424 295.38437Q257.39612 295.38437 257.0055 296.025Q256.6305 296.65 256.6305 297.94687L256.6305 299.68124Q256.6305 301.05624 257.02112 301.72812Q257.42737 302.38437 258.23987 302.38437Q259.03674 302.38437 259.42737 301.75937Q259.818 301.13437 259.83362 299.80624L259.83362 298.025Z" fill-rule="nonzero"/><path fill="#757575" d="M279.18347 298.86874L279.62097 294.61874L283.99597 294.61874L283.99597 295.61874L280.54285 295.61874L280.27722 297.94687Q280.91785 297.57187 281.71472 297.57187Q282.87097 297.57187 283.55847 298.35312Q284.24597 299.11874 284.24597 300.43124Q284.24597 301.74374 283.52722 302.50937Q282.8241 303.275 281.54285 303.275Q280.41785 303.275 279.6991 302.65Q278.98035 302.00937 278.8866 300.9L279.90222 300.9Q280.0116 301.63437 280.43347 302.00937Q280.85535 302.38437 281.54285 302.38437Q282.29285 302.38437 282.73035 301.86874Q283.16785 301.35312 283.16785 300.44687Q283.16785 299.5875 282.6991 299.07187Q282.23035 298.55624 281.4491 298.55624Q280.74597 298.55624 280.33972 298.85312L280.05847 299.0875L279.18347 298.86874ZM291.04285 299.50937Q291.04285 301.41562 290.3866 302.35312Q289.74597 303.275 288.35535 303.275Q286.99597 303.275 286.33972 302.36874Q285.68347 301.4625 285.65222 299.65L285.65222 298.2125Q285.65222 296.32187 286.29285 295.41562Q286.9491 294.49374 288.33972 294.49374Q289.71472 294.49374 290.37097 295.38437Q291.02722 296.25937 291.04285 298.10312L291.04285 299.50937ZM289.9491 298.025Q289.9491 296.65 289.55847 296.025Q289.18347 295.38437 288.33972 295.38437Q287.5116 295.38437 287.12097 296.025Q286.74597 296.65 286.74597 297.94687L286.74597 299.68124Q286.74597 301.05624 287.1366 301.72812Q287.54285 302.38437 288.35535 302.38437Q289.15222 302.38437 289.54285 301.75937Q289.93347 301.13437 289.9491 299.80624L289.9491 298.025ZM298.04285 299.50937Q298.04285 301.41562 297.3866 302.35312Q296.74597 303.275 295.35535 303.275Q293.99597 303.275 293.33972 302.36874Q292.68347 301.4625 292.65222 299.65L292.65222 298.2125Q292.65222 296.32187 293.29285 295.41562Q293.9491 294.49374 295.33972 294.49374Q296.71472 294.49374 297.37097 295.38437Q298.02722 296.25937 298.04285 298.10312L298.04285 299.50937ZM296.9491 298.025Q296.9491 296.65 296.55847 296.025Q296.18347 295.38437 295.33972 295.38437Q294.5116 295.38437 294.12097 296.025Q293.74597 296.65 293.74597 297.94687L293.74597 299.68124Q293.74597 301.05624 294.1366 301.72812Q294.54285 302.38437 295.35535 302.38437Q296.15222 302.38437 296.54285 301.75937Q296.93347 301.13437 296.9491 299.80624L296.9491 298.025Z" fill-rule="nonzero"/><path fill="#757575" d="M320.06458 294.61874L320.06458 295.525L319.86145 295.525Q318.59583 295.55624 317.84583 296.29062Q317.09583 297.00937 316.97083 298.32187Q317.65833 297.55624 318.81458 297.55624Q319.92395 297.55624 320.59583 298.3375Q321.2677 299.11874 321.2677 300.36874Q321.2677 301.68124 320.54895 302.47812Q319.8302 303.275 318.61145 303.275Q317.3927 303.275 316.62708 302.3375Q315.87708 301.38437 315.87708 299.9L315.87708 299.49374Q315.87708 297.13437 316.87708 295.88437Q317.87708 294.63437 319.86145 294.61874L320.06458 294.61874ZM318.6427 298.4625Q318.0802 298.4625 317.61145 298.79062Q317.1427 299.11874 316.9552 299.63437L316.9552 300.025Q316.9552 301.0875 317.42395 301.72812Q317.90833 302.36874 318.61145 302.36874Q319.34583 302.36874 319.7677 301.8375Q320.18958 301.29062 320.18958 300.41562Q320.18958 299.54062 319.7677 299.00937Q319.34583 298.4625 318.6427 298.4625ZM328.15833 299.50937Q328.15833 301.41562 327.50208 302.35312Q326.86145 303.275 325.47083 303.275Q324.11145 303.275 323.4552 302.36874Q322.79895 301.4625 322.7677 299.65L322.7677 298.2125Q322.7677 296.32187 323.40833 295.41562Q324.06458 294.49374 325.4552 294.49374Q326.8302 294.49374 327.48645 295.38437Q328.1427 296.25937 328.15833 298.10312L328.15833 299.50937ZM327.06458 298.025Q327.06458 296.65 326.67395 296.025Q326.29895 295.38437 325.4552 295.38437Q324.62708 295.38437 324.23645 296.025Q323.86145 296.65 323.86145 297.94687L323.86145 299.68124Q323.86145 301.05624 324.25208 301.72812Q324.65833 302.38437 325.47083 302.38437Q326.2677 302.38437 326.65833 301.75937Q327.04895 301.13437 327.06458 299.80624L327.06458 298.025ZM335.15833 299.50937Q335.15833 301.41562 334.50208 302.35312Q333.86145 303.275 332.47083 303.275Q331.11145 303.275 330.4552 302.36874Q329.79895 301.4625 329.7677 299.65L329.7677 298.2125Q329.7677 296.32187 330.40833 295.41562Q331.06458 294.49374 332.4552 294.49374Q333.8302 294.49374 334.48645 295.38437Q335.1427 296.25937 335.15833 298.10312L335.15833 299.50937ZM334.06458 298.025Q334.06458 296.65 333.67395 296.025Q333.29895 295.38437 332.4552 295.38437Q331.62708 295.38437 331.23645 296.025Q330.86145 296.65 330.86145 297.94687L330.86145 299.68124Q330.86145 301.05624 331.25208 301.72812Q331.65833 302.38437 332.47083 302.38437Q333.2677 302.38437 333.65833 301.75937Q334.04895 301.13437 334.06458 299.80624L334.06458 298.025Z" fill-rule="nonzero"/><path fill="#757575" d="M358.43005 295.22812L354.8988 303.15L353.75818 303.15L357.2738 295.50937L352.66443 295.50937L352.66443 294.61874L358.43005 294.61874L358.43005 295.22812ZM365.2738 299.50937Q365.2738 301.41562 364.61755 302.35312Q363.97693 303.275 362.5863 303.275Q361.22693 303.275 360.57068 302.36874Q359.91443 301.4625 359.88318 299.65L359.88318 298.2125Q359.88318 296.32187 360.5238 295.41562Q361.18005 294.49374 362.57068 294.49374Q363.94568 294.49374 364.60193 295.38437Q365.25818 296.25937 365.2738 298.10312L365.2738 299.50937ZM364.18005 298.025Q364.18005 296.65 363.78943 296.025Q363.41443 295.38437 362.57068 295.38437Q361.74255 295.38437 361.35193 296.025Q360.97693 296.65 360.97693 297.94687L360.97693 299.68124Q360.97693 301.05624 361.36755 301.72812Q361.7738 302.38437 362.5863 302.38437Q363.38318 302.38437 363.7738 301.75937Q364.16443 301.13437 364.18005 299.80624L364.18005 298.025ZM372.2738 299.50937Q372.2738 301.41562 371.61755 302.35312Q370.97693 303.275 369.5863 303.275Q368.22693 303.275 367.57068 302.36874Q366.91443 301.4625 366.88318 299.65L366.88318 298.2125Q366.88318 296.32187 367.5238 295.41562Q368.18005 294.49374 369.57068 294.49374Q370.94568 294.49374 371.60193 295.38437Q372.25818 296.25937 372.2738 298.10312L372.2738 299.50937ZM371.18005 298.025Q371.18005 296.65 370.78943 296.025Q370.41443 295.38437 369.57068 295.38437Q368.74255 295.38437 368.35193 296.025Q367.97693 296.65 367.97693 297.94687L367.97693 299.68124Q367.97693 301.05624 368.36755 301.72812Q368.7738 302.38437 369.5863 302.38437Q370.38318 302.38437 370.7738 301.75937Q371.16443 301.13437 371.18005 299.80624L371.18005 298.025Z" fill-rule="nonzero"/><path fill="#757575" d="M395.2174 296.8375Q395.2174 297.47812 394.87366 297.97812Q394.5299 298.47812 393.9674 298.75937Q394.62366 299.04062 395.01428 299.60312Q395.4049 300.15 395.4049 300.85312Q395.4049 301.94687 394.6549 302.61874Q393.92053 303.275 392.70178 303.275Q391.4674 303.275 390.7174 302.61874Q389.98303 301.94687 389.98303 300.85312Q389.98303 300.15 390.35803 299.60312Q390.73303 299.04062 391.4049 298.75937Q390.8424 298.47812 390.51428 297.97812Q390.18616 297.47812 390.18616 296.8375Q390.18616 295.75937 390.87366 295.13437Q391.56116 294.49374 392.70178 294.49374Q393.82678 294.49374 394.51428 295.13437Q395.2174 295.75937 395.2174 296.8375ZM394.32678 300.82187Q394.32678 300.10312 393.87366 299.66562Q393.42053 299.2125 392.68616 299.2125Q391.95178 299.2125 391.49866 299.66562Q391.06116 300.10312 391.06116 300.8375Q391.06116 301.55624 391.49866 301.97812Q391.93616 302.38437 392.70178 302.38437Q393.45178 302.38437 393.88928 301.9625Q394.32678 301.54062 394.32678 300.82187ZM392.70178 295.38437Q392.06116 295.38437 391.6549 295.79062Q391.26428 296.18124 391.26428 296.86874Q391.26428 297.50937 391.6549 297.91562Q392.04553 298.32187 392.68616 298.32187Q393.3424 298.32187 393.73303 297.91562Q394.12366 297.50937 394.12366 296.86874Q394.12366 296.2125 393.7174 295.80624Q393.31116 295.38437 392.70178 295.38437ZM402.38928 299.50937Q402.38928 301.41562 401.73303 302.35312Q401.0924 303.275 399.70178 303.275Q398.3424 303.275 397.68616 302.36874Q397.0299 301.4625 396.99866 299.65L396.99866 298.2125Q396.99866 296.32187 397.63928 295.41562Q398.29553 294.49374 399.68616 294.49374Q401.06116 294.49374 401.7174 295.38437Q402.37366 296.25937 402.38928 298.10312L402.38928 299.50937ZM401.29553 298.025Q401.29553 296.65 400.9049 296.025Q400.5299 295.38437 399.68616 295.38437Q398.85803 295.38437 398.4674 296.025Q398.0924 296.65 398.0924 297.94687L398.0924 299.68124Q398.0924 301.05624 398.48303 301.72812Q398.88928 302.38437 399.70178 302.38437Q400.49866 302.38437 400.88928 301.75937Q401.2799 301.13437 401.29553 299.80624L401.29553 298.025ZM409.38928 299.50937Q409.38928 301.41562 408.73303 302.35312Q408.0924 303.275 406.70178 303.275Q405.3424 303.275 404.68616 302.36874Q404.0299 301.4625 403.99866 299.65L403.99866 298.2125Q403.99866 296.32187 404.63928 295.41562Q405.29553 294.49374 406.68616 294.49374Q408.06116 294.49374 408.7174 295.38437Q409.37366 296.25937 409.38928 298.10312L409.38928 299.50937ZM408.29553 298.025Q408.29553 296.65 407.9049 296.025Q407.5299 295.38437 406.68616 295.38437Q405.85803 295.38437 405.4674 296.025Q405.0924 296.65 405.0924 297.94687L405.0924 299.68124Q405.0924 301.05624 405.48303 301.72812Q405.88928 302.38437 406.70178 302.38437Q407.49866 302.38437 407.88928 301.75937Q408.2799 301.13437 408.29553 299.80624L408.29553 298.025Z" fill-rule="nonzero"/><path fill="#757575" d="M431.30164 299.4Q430.9735 299.80624 430.48914 300.05624Q430.0204 300.29062 429.4579 300.29062Q428.7235 300.29062 428.17664 299.93124Q427.62976 299.57187 427.3329 298.91562Q427.036 298.24374 427.036 297.44687Q427.036 296.60312 427.3485 295.91562Q427.67664 295.22812 428.2704 294.86874Q428.87976 294.49374 429.67664 294.49374Q430.94226 294.49374 431.661 295.44687Q432.3954 296.4 432.3954 298.025L432.3954 298.3375Q432.3954 300.8375 431.411 301.97812Q430.42664 303.11874 428.44226 303.15L428.2235 303.15L428.2235 302.24374L428.4579 302.24374Q429.80164 302.2125 430.5204 301.54062Q431.23914 300.86874 431.30164 299.4ZM429.62976 299.4Q430.17664 299.4 430.62976 299.07187Q431.0985 298.72812 431.31726 298.24374L431.31726 297.80624Q431.31726 296.74374 430.8485 296.07187Q430.37976 295.4 429.67664 295.4Q428.9579 295.4 428.5204 295.94687Q428.0985 296.49374 428.0985 297.4Q428.0985 298.275 428.50476 298.8375Q428.92664 299.4 429.62976 299.4ZM439.50476 299.50937Q439.50476 301.41562 438.8485 302.35312Q438.2079 303.275 436.81726 303.275Q435.4579 303.275 434.80164 302.36874Q434.1454 301.4625 434.11414 299.65L434.11414 298.2125Q434.11414 296.32187 434.75476 295.41562Q435.411 294.49374 436.80164 294.49374Q438.17664 294.49374 438.8329 295.38437Q439.48914 296.25937 439.50476 298.10312L439.50476 299.50937ZM438.411 298.025Q438.411 296.65 438.0204 296.025Q437.6454 295.38437 436.80164 295.38437Q435.9735 295.38437 435.5829 296.025Q435.2079 296.65 435.2079 297.94687L435.2079 299.68124Q435.2079 301.05624 435.5985 301.72812Q436.00476 302.38437 436.81726 302.38437Q437.61414 302.38437 438.00476 301.75937Q438.3954 301.13437 438.411 299.80624L438.411 298.025ZM446.50476 299.50937Q446.50476 301.41562 445.8485 302.35312Q445.2079 303.275 443.81726 303.275Q442.4579 303.275 441.80164 302.36874Q441.1454 301.4625 441.11414 299.65L441.11414 298.2125Q441.11414 296.32187 441.75476 295.41562Q442.411 294.49374 443.80164 294.49374Q445.17664 294.49374 445.8329 295.38437Q446.48914 296.25937 446.50476 298.10312L446.50476 299.50937ZM445.411 298.025Q445.411 296.65 445.0204 296.025Q444.6454 295.38437 443.80164 295.38437Q442.9735 295.38437 442.5829 296.025Q442.2079 296.65 442.2079 297.94687L442.2079 299.68124Q442.2079 301.05624 442.5985 301.72812Q443.00476 302.38437 443.81726 302.38437Q444.61414 302.38437 445.00476 301.75937Q445.3954 301.13437 445.411 299.80624L445.411 298.025Z" fill-rule="nonzero"/><path fill="#757575" d="M464.32336 303.15L463.24524 303.15L463.24524 295.93124L461.05774 296.72812L461.05774 295.74374L464.1671 294.57187L464.32336 294.57187L464.32336 303.15ZM473.12024 299.50937Q473.12024 301.41562 472.464 302.35312Q471.82336 303.275 470.43274 303.275Q469.07336 303.275 468.4171 302.36874Q467.76086 301.4625 467.7296 299.65L467.7296 298.2125Q467.7296 296.32187 468.37024 295.41562Q469.0265 294.49374 470.4171 294.49374Q471.7921 294.49374 472.44836 295.38437Q473.1046 296.25937 473.12024 298.10312L473.12024 299.50937ZM472.0265 298.025Q472.0265 296.65 471.63586 296.025Q471.26086 295.38437 470.4171 295.38437Q469.589 295.38437 469.19836 296.025Q468.82336 296.65 468.82336 297.94687L468.82336 299.68124Q468.82336 301.05624 469.214 301.72812Q469.62024 302.38437 470.43274 302.38437Q471.2296 302.38437 471.62024 301.75937Q472.01086 301.13437 472.0265 299.80624L472.0265 298.025ZM480.12024 299.50937Q480.12024 301.41562 479.464 302.35312Q478.82336 303.275 477.43274 303.275Q476.07336 303.275 475.4171 302.36874Q474.76086 301.4625 474.7296 299.65L474.7296 298.2125Q474.7296 296.32187 475.37024 295.41562Q476.0265 294.49374 477.4171 294.49374Q478.7921 294.49374 479.44836 295.38437Q480.1046 296.25937 480.12024 298.10312L480.12024 299.50937ZM479.0265 298.025Q479.0265 296.65 478.63586 296.025Q478.26086 295.38437 477.4171 295.38437Q476.589 295.38437 476.19836 296.025Q475.82336 296.65 475.82336 297.94687L475.82336 299.68124Q475.82336 301.05624 476.214 301.72812Q476.62024 302.38437 477.43274 302.38437Q478.2296 302.38437 478.62024 301.75937Q479.01086 301.13437 479.0265 299.80624L479.0265 298.025ZM487.12024 299.50937Q487.12024 301.41562 486.464 302.35312Q485.82336 303.275 484.43274 303.275Q483.07336 303.275 482.4171 302.36874Q481.76086 301.4625 481.7296 299.65L481.7296 298.2125Q481.7296 296.32187 482.37024 295.41562Q483.0265 294.49374 484.4171 294.49374Q485.7921 294.49374 486.44836 295.38437Q487.1046 296.25937 487.12024 298.10312L487.12024 299.50937ZM486.0265 298.025Q486.0265 296.65 485.63586 296.025Q485.26086 295.38437 484.4171 295.38437Q483.589 295.38437 483.19836 296.025Q482.82336 296.65 482.82336 297.94687L482.82336 299.68124Q482.82336 301.05624 483.214 301.72812Q483.62024 302.38437 484.43274 302.38437Q485.2296 302.38437 485.62024 301.75937Q486.01086 301.13437 486.0265 299.80624L486.0265 298.025Z" fill-rule="nonzero"/><path fill="#757575" d="M501.43884 303.15L500.36072 303.15L500.36072 295.93124L498.17322 296.72812L498.17322 295.74374L501.2826 294.57187L501.43884 294.57187L501.43884 303.15ZM508.43884 303.15L507.36072 303.15L507.36072 295.93124L505.17322 296.72812L505.17322 295.74374L508.2826 294.57187L508.43884 294.57187L508.43884 303.15ZM517.2357 299.50937Q517.2357 301.41562 516.57947 302.35312Q515.93884 303.275 514.5482 303.275Q513.18884 303.275 512.5326 302.36874Q511.87634 301.4625 511.8451 299.65L511.8451 298.2125Q511.8451 296.32187 512.4857 295.41562Q513.14197 294.49374 514.5326 294.49374Q515.9076 294.49374 516.56384 295.38437Q517.2201 296.25937 517.2357 298.10312L517.2357 299.50937ZM516.14197 298.025Q516.14197 296.65 515.75134 296.025Q515.37634 295.38437 514.5326 295.38437Q513.70447 295.38437 513.31384 296.025Q512.93884 296.65 512.93884 297.94687L512.93884 299.68124Q512.93884 301.05624 513.32947 301.72812Q513.7357 302.38437 514.5482 302.38437Q515.3451 302.38437 515.7357 301.75937Q516.12634 301.13437 516.14197 299.80624L516.14197 298.025ZM524.2357 299.50937Q524.2357 301.41562 523.57947 302.35312Q522.93884 303.275 521.5482 303.275Q520.18884 303.275 519.5326 302.36874Q518.87634 301.4625 518.8451 299.65L518.8451 298.2125Q518.8451 296.32187 519.4857 295.41562Q520.14197 294.49374 521.5326 294.49374Q522.9076 294.49374 523.56384 295.38437Q524.2201 296.25937 524.2357 298.10312L524.2357 299.50937ZM523.14197 298.025Q523.14197 296.65 522.75134 296.025Q522.37634 295.38437 521.5326 295.38437Q520.70447 295.38437 520.31384 296.025Q519.93884 296.65 519.93884 297.94687L519.93884 299.68124Q519.93884 301.05624 520.32947 301.72812Q520.7357 302.38437 521.5482 302.38437Q522.3451 302.38437 522.7357 301.75937Q523.12634 301.13437 523.14197 299.80624L523.14197 298.025Z" fill-rule="nonzero"/><path fill="#757575" d="M538.5543 303.15L537.4762 303.15L537.4762 295.93124L535.2887 296.72812L535.2887 295.74374L538.3981 294.57187L538.5543 294.57187L538.5543 303.15ZM547.5856 303.15L541.9918 303.15L541.9918 302.36874L544.94495 299.0875Q545.6012 298.3375 545.8512 297.88437Q546.1012 297.41562 546.1012 296.91562Q546.1012 296.24374 545.69495 295.82187Q545.3043 295.38437 544.6168 295.38437Q543.81995 295.38437 543.3668 295.85312Q542.9137 296.30624 542.9137 297.13437L541.8356 297.13437Q541.8356 295.94687 542.5856 295.22812Q543.3512 294.49374 544.6168 294.49374Q545.81995 294.49374 546.50745 295.11874Q547.19495 295.74374 547.19495 296.79062Q547.19495 298.04062 545.5856 299.79062L543.3043 302.25937L547.5856 302.25937L547.5856 303.15ZM554.3512 299.50937Q554.3512 301.41562 553.69495 302.35312Q553.0543 303.275 551.6637 303.275Q550.3043 303.275 549.6481 302.36874Q548.9918 301.4625 548.9606 299.65L548.9606 298.2125Q548.9606 296.32187 549.6012 295.41562Q550.25745 294.49374 551.6481 294.49374Q553.0231 294.49374 553.6793 295.38437Q554.3356 296.25937 554.3512 298.10312L554.3512 299.50937ZM553.25745 298.025Q553.25745 296.65 552.8668 296.025Q552.4918 295.38437 551.6481 295.38437Q550.81995 295.38437 550.4293 296.025Q550.0543 296.65 550.0543 297.94687L550.0543 299.68124Q550.0543 301.05624 550.44495 301.72812Q550.8512 302.38437 551.6637 302.38437Q552.4606 302.38437 552.8512 301.75937Q553.2418 301.13437 553.25745 299.80624L553.25745 298.025ZM561.3512 299.50937Q561.3512 301.41562 560.69495 302.35312Q560.0543 303.275 558.6637 303.275Q557.3043 303.275 556.6481 302.36874Q555.9918 301.4625 555.9606 299.65L555.9606 298.2125Q555.9606 296.32187 556.6012 295.41562Q557.25745 294.49374 558.6481 294.49374Q560.0231 294.49374 560.6793 295.38437Q561.3356 296.25937 561.3512 298.10312L561.3512 299.50937ZM560.25745 298.025Q560.25745 296.65 559.8668 296.025Q559.4918 295.38437 558.6481 295.38437Q557.81995 295.38437 557.4293 296.025Q557.0543 296.65 557.0543 297.94687L557.0543 299.68124Q557.0543 301.05624 557.44495 301.72812Q557.8512 302.38437 558.6637 302.38437Q559.4606 302.38437 559.8512 301.75937Q560.2418 301.13437 560.25745 299.80624L560.25745 298.025Z" fill-rule="nonzero"/><path fill="#757575" d="M575.6698 303.15L574.5917 303.15L574.5917 295.93124L572.4042 296.72812L572.4042 295.74374L575.51355 294.57187L575.6698 294.57187L575.6698 303.15ZM580.6854 298.35312L581.4979 298.35312Q582.2792 298.3375 582.7167 297.94687Q583.1542 297.55624 583.1542 296.88437Q583.1542 295.38437 581.6542 295.38437Q580.95105 295.38437 580.5292 295.79062Q580.1229 296.19687 580.1229 296.85312L579.0292 296.85312Q579.0292 295.8375 579.76355 295.16562Q580.51355 294.49374 581.6542 294.49374Q582.8573 294.49374 583.5448 295.13437Q584.2323 295.775 584.2323 296.91562Q584.2323 297.47812 583.8729 297.99374Q583.51355 298.50937 582.88855 298.775Q583.5917 298.99374 583.9667 299.50937Q584.3573 300.025 584.3573 300.775Q584.3573 301.91562 583.6073 302.60312Q582.8573 303.275 581.6542 303.275Q580.4667 303.275 579.70105 302.61874Q578.95105 301.9625 578.95105 300.9L580.0448 300.9Q580.0448 301.57187 580.4823 301.97812Q580.9198 302.38437 581.6698 302.38437Q582.45105 302.38437 582.8573 301.97812Q583.2792 301.55624 583.2792 300.79062Q583.2792 300.05624 582.82605 299.66562Q582.3729 299.25937 581.4979 299.24374L580.6854 299.24374L580.6854 298.35312ZM591.4667 299.50937Q591.4667 301.41562 590.8104 302.35312Q590.1698 303.275 588.7792 303.275Q587.4198 303.275 586.76355 302.36874Q586.1073 301.4625 586.07605 299.65L586.07605 298.2125Q586.07605 296.32187 586.7167 295.41562Q587.3729 294.49374 588.76355 294.49374Q590.13855 294.49374 590.7948 295.38437Q591.45105 296.25937 591.4667 298.10312L591.4667 299.50937ZM590.3729 298.025Q590.3729 296.65 589.9823 296.025Q589.6073 295.38437 588.76355 295.38437Q587.9354 295.38437 587.5448 296.025Q587.1698 296.65 587.1698 297.94687L587.1698 299.68124Q587.1698 301.05624 587.5604 301.72812Q587.9667 302.38437 588.7792 302.38437Q589.57605 302.38437 589.9667 301.75937Q590.3573 301.13437 590.3729 299.80624L590.3729 298.025ZM598.4667 299.50937Q598.4667 301.41562 597.8104 302.35312Q597.1698 303.275 595.7792 303.275Q594.4198 303.275 593.76355 302.36874Q593.1073 301.4625 593.07605 299.65L593.07605 298.2125Q593.07605 296.32187 593.7167 295.41562Q594.3729 294.49374 595.76355 294.49374Q597.13855 294.49374 597.7948 295.38437Q598.45105 296.25937 598.4667 298.10312L598.4667 299.50937ZM597.3729 298.025Q597.3729 296.65 596.9823 296.025Q596.6073 295.38437 595.76355 295.38437Q594.9354 295.38437 594.5448 296.025Q594.1698 296.65 594.1698 297.94687L594.1698 299.68124Q594.1698 301.05624 594.5604 301.72812Q594.9667 302.38437 595.7792 302.38437Q596.57605 302.38437 596.9667 301.75937Q597.3573 301.13437 597.3729 299.80624L597.3729 298.025Z" fill-rule="nonzero"/><path fill="#757575" d="M612.7853 303.15L611.70715 303.15L611.70715 295.93124L609.51965 296.72812L609.51965 295.74374L612.629 294.57187L612.7853 294.57187L612.7853 303.15ZM620.8009 300.29062L621.9884 300.29062L621.9884 301.16562L620.8009 301.16562L620.8009 303.15L619.7228 303.15L619.7228 301.16562L615.83215 301.16562L615.83215 300.525L619.64465 294.61874L620.8009 294.61874L620.8009 300.29062ZM617.0665 300.29062L619.7228 300.29062L619.7228 296.10312L619.58215 296.3375L617.0665 300.29062ZM628.58215 299.50937Q628.58215 301.41562 627.9259 302.35312Q627.2853 303.275 625.89465 303.275Q624.5353 303.275 623.879 302.36874Q623.2228 301.4625 623.1915 299.65L623.1915 298.2125Q623.1915 296.32187 623.83215 295.41562Q624.4884 294.49374 625.879 294.49374Q627.254 294.49374 627.9103 295.38437Q628.5665 296.25937 628.58215 298.10312L628.58215 299.50937ZM627.4884 298.025Q627.4884 296.65 627.0978 296.025Q626.7228 295.38437 625.879 295.38437Q625.0509 295.38437 624.6603 296.025Q624.2853 296.65 624.2853 297.94687L624.2853 299.68124Q624.2853 301.05624 624.6759 301.72812Q625.08215 302.38437 625.89465 302.38437Q626.6915 302.38437 627.08215 301.75937Q627.4728 301.13437 627.4884 299.80624L627.4884 298.025ZM635.58215 299.50937Q635.58215 301.41562 634.9259 302.35312Q634.2853 303.275 632.89465 303.275Q631.5353 303.275 630.879 302.36874Q630.2228 301.4625 630.1915 299.65L630.1915 298.2125Q630.1915 296.32187 630.83215 295.41562Q631.4884 294.49374 632.879 294.49374Q634.254 294.49374 634.9103 295.38437Q635.5665 296.25937 635.58215 298.10312L635.58215 299.50937ZM634.4884 298.025Q634.4884 296.65 634.0978 296.025Q633.7228 295.38437 632.879 295.38437Q632.0509 295.38437 631.6603 296.025Q631.2853 296.65 631.2853 297.94687L631.2853 299.68124Q631.2853 301.05624 631.6759 301.72812Q632.08215 302.38437 632.89465 302.38437Q633.6915 302.38437 634.08215 301.75937Q634.4728 301.13437 634.4884 299.80624L634.4884 298.025Z" fill-rule="nonzero"/><path fill="#757575" d="M649.90076 303.15L648.82263 303.15L648.82263 295.93124L646.63513 296.72812L646.63513 295.74374L649.7445 294.57187L649.90076 294.57187L649.90076 303.15ZM653.83826 298.86874L654.27576 294.61874L658.65076 294.61874L658.65076 295.61874L655.19763 295.61874L654.932 297.94687Q655.57263 297.57187 656.3695 297.57187Q657.52576 297.57187 658.21326 298.35312Q658.90076 299.11874 658.90076 300.43124Q658.90076 301.74374 658.182 302.50937Q657.4789 303.275 656.19763 303.275Q655.07263 303.275 654.3539 302.65Q653.63513 302.00937 653.5414 300.9L654.557 300.9Q654.6664 301.63437 655.08826 302.00937Q655.51013 302.38437 656.19763 302.38437Q656.94763 302.38437 657.38513 301.86874Q657.82263 301.35312 657.82263 300.44687Q657.82263 299.5875 657.3539 299.07187Q656.88513 298.55624 656.1039 298.55624Q655.40076 298.55624 654.9945 298.85312L654.71326 299.0875L653.83826 298.86874ZM665.69763 299.50937Q665.69763 301.41562 665.0414 302.35312Q664.40076 303.275 663.01013 303.275Q661.65076 303.275 660.9945 302.36874Q660.33826 301.4625 660.307 299.65L660.307 298.2125Q660.307 296.32187 660.94763 295.41562Q661.6039 294.49374 662.9945 294.49374Q664.3695 294.49374 665.02576 295.38437Q665.682 296.25937 665.69763 298.10312L665.69763 299.50937ZM664.6039 298.025Q664.6039 296.65 664.21326 296.025Q663.83826 295.38437 662.9945 295.38437Q662.1664 295.38437 661.77576 296.025Q661.40076 296.65 661.40076 297.94687L661.40076 299.68124Q661.40076 301.05624 661.7914 301.72812Q662.19763 302.38437 663.01013 302.38437Q663.807 302.38437 664.19763 301.75937Q664.58826 301.13437 664.6039 299.80624L664.6039 298.025ZM672.69763 299.50937Q672.69763 301.41562 672.0414 302.35312Q671.40076 303.275 670.01013 303.275Q668.65076 303.275 667.9945 302.36874Q667.33826 301.4625 667.307 299.65L667.307 298.2125Q667.307 296.32187 667.94763 295.41562Q668.6039 294.49374 669.9945 294.49374Q671.3695 294.49374 672.02576 295.38437Q672.682 296.25937 672.69763 298.10312L672.69763 299.50937ZM671.6039 298.025Q671.6039 296.65 671.21326 296.025Q670.83826 295.38437 669.9945 295.38437Q669.1664 295.38437 668.77576 296.025Q668.40076 296.65 668.40076 297.94687L668.40076 299.68124Q668.40076 301.05624 668.7914 301.72812Q669.19763 302.38437 670.01013 302.38437Q670.807 302.38437 671.19763 301.75937Q671.58826 301.13437 671.6039 299.80624L671.6039 298.025Z" fill-rule="nonzero"/><path fill="#757575" d="M687.01624 303.15L685.9381 303.15L685.9381 295.93124L683.7506 296.72812L683.7506 295.74374L686.86 294.57187L687.01624 294.57187L687.01624 303.15ZM694.71936 294.61874L694.71936 295.525L694.51624 295.525Q693.2506 295.55624 692.5006 296.29062Q691.7506 297.00937 691.6256 298.32187Q692.3131 297.55624 693.46936 297.55624Q694.57874 297.55624 695.2506 298.3375Q695.9225 299.11874 695.9225 300.36874Q695.9225 301.68124 695.20374 302.47812Q694.485 303.275 693.26624 303.275Q692.0475 303.275 691.28186 302.3375Q690.53186 301.38437 690.53186 299.9L690.53186 299.49374Q690.53186 297.13437 691.53186 295.88437Q692.53186 294.63437 694.51624 294.61874L694.71936 294.61874ZM693.2975 298.4625Q692.735 298.4625 692.26624 298.79062Q691.7975 299.11874 691.61 299.63437L691.61 300.025Q691.61 301.0875 692.07874 301.72812Q692.5631 302.36874 693.26624 302.36874Q694.0006 302.36874 694.4225 301.8375Q694.84436 301.29062 694.84436 300.41562Q694.84436 299.54062 694.4225 299.00937Q694.0006 298.4625 693.2975 298.4625ZM702.8131 299.50937Q702.8131 301.41562 702.15686 302.35312Q701.51624 303.275 700.1256 303.275Q698.76624 303.275 698.11 302.36874Q697.45374 301.4625 697.4225 299.65L697.4225 298.2125Q697.4225 296.32187 698.0631 295.41562Q698.71936 294.49374 700.11 294.49374Q701.485 294.49374 702.14124 295.38437Q702.7975 296.25937 702.8131 298.10312L702.8131 299.50937ZM701.71936 298.025Q701.71936 296.65 701.32874 296.025Q700.95374 295.38437 700.11 295.38437Q699.28186 295.38437 698.89124 296.025Q698.51624 296.65 698.51624 297.94687L698.51624 299.68124Q698.51624 301.05624 698.90686 301.72812Q699.3131 302.38437 700.1256 302.38437Q700.9225 302.38437 701.3131 301.75937Q701.70374 301.13437 701.71936 299.80624L701.71936 298.025ZM709.8131 299.50937Q709.8131 301.41562 709.15686 302.35312Q708.51624 303.275 707.1256 303.275Q705.76624 303.275 705.11 302.36874Q704.45374 301.4625 704.4225 299.65L704.4225 298.2125Q704.4225 296.32187 705.0631 295.41562Q705.71936 294.49374 707.11 294.49374Q708.485 294.49374 709.14124 295.38437Q709.7975 296.25937 709.8131 298.10312L709.8131 299.50937ZM708.71936 298.025Q708.71936 296.65 708.32874 296.025Q707.95374 295.38437 707.11 295.38437Q706.28186 295.38437 705.89124 296.025Q705.51624 296.65 705.51624 297.94687L705.51624 299.68124Q705.51624 301.05624 705.90686 301.72812Q706.3131 302.38437 707.1256 302.38437Q707.9225 302.38437 708.3131 301.75937Q708.70374 301.13437 708.71936 299.80624L708.71936 298.025Z" fill-rule="nonzero"/><path fill="#757575" d="M724.1317 303.15L723.0536 303.15L723.0536 295.93124L720.8661 296.72812L720.8661 295.74374L723.97546 294.57187L724.1317 294.57187L724.1317 303.15ZM733.08484 295.22812L729.5536 303.15L728.41296 303.15L731.9286 295.50937L727.3192 295.50937L727.3192 294.61874L733.08484 294.61874L733.08484 295.22812ZM739.9286 299.50937Q739.9286 301.41562 739.27234 302.35312Q738.6317 303.275 737.2411 303.275Q735.8817 303.275 735.22546 302.36874Q734.5692 301.4625 734.53796 299.65L734.53796 298.2125Q734.53796 296.32187 735.1786 295.41562Q735.83484 294.49374 737.22546 294.49374Q738.60046 294.49374 739.2567 295.38437Q739.91296 296.25937 739.9286 298.10312L739.9286 299.50937ZM738.83484 298.025Q738.83484 296.65 738.4442 296.025Q738.0692 295.38437 737.22546 295.38437Q736.39734 295.38437 736.0067 296.025Q735.6317 296.65 735.6317 297.94687L735.6317 299.68124Q735.6317 301.05624 736.02234 301.72812Q736.4286 302.38437 737.2411 302.38437Q738.03796 302.38437 738.4286 301.75937Q738.8192 301.13437 738.83484 299.80624L738.83484 298.025ZM746.9286 299.50937Q746.9286 301.41562 746.27234 302.35312Q745.6317 303.275 744.2411 303.275Q742.8817 303.275 742.22546 302.36874Q741.5692 301.4625 741.53796 299.65L741.53796 298.2125Q741.53796 296.32187 742.1786 295.41562Q742.83484 294.49374 744.22546 294.49374Q745.60046 294.49374 746.2567 295.38437Q746.91296 296.25937 746.9286 298.10312L746.9286 299.50937ZM745.83484 298.025Q745.83484 296.65 745.4442 296.025Q745.0692 295.38437 744.22546 295.38437Q743.39734 295.38437 743.0067 296.025Q742.6317 296.65 742.6317 297.94687L742.6317 299.68124Q742.6317 301.05624 743.02234 301.72812Q743.4286 302.38437 744.2411 302.38437Q745.03796 302.38437 745.4286 301.75937Q745.8192 301.13437 745.83484 299.80624L745.83484 298.025Z" fill-rule="nonzero"/><path fill="#757575" d="M761.2472 303.15L760.16907 303.15L760.16907 295.93124L757.98157 296.72812L757.98157 295.74374L761.09094 294.57187L761.2472 294.57187L761.2472 303.15ZM769.8722 296.8375Q769.8722 297.47812 769.52844 297.97812Q769.1847 298.47812 768.6222 298.75937Q769.27844 299.04062 769.66907 299.60312Q770.0597 300.15 770.0597 300.85312Q770.0597 301.94687 769.3097 302.61874Q768.5753 303.275 767.35657 303.275Q766.1222 303.275 765.3722 302.61874Q764.6378 301.94687 764.6378 300.85312Q764.6378 300.15 765.0128 299.60312Q765.3878 299.04062 766.0597 298.75937Q765.4972 298.47812 765.16907 297.97812Q764.84094 297.47812 764.84094 296.8375Q764.84094 295.75937 765.52844 295.13437Q766.21594 294.49374 767.35657 294.49374Q768.48157 294.49374 769.16907 295.13437Q769.8722 295.75937 769.8722 296.8375ZM768.98157 300.82187Q768.98157 300.10312 768.52844 299.66562Q768.0753 299.2125 767.34094 299.2125Q766.60657 299.2125 766.15344 299.66562Q765.71594 300.10312 765.71594 300.8375Q765.71594 301.55624 766.15344 301.97812Q766.59094 302.38437 767.35657 302.38437Q768.10657 302.38437 768.54407 301.9625Q768.98157 301.54062 768.98157 300.82187ZM767.35657 295.38437Q766.71594 295.38437 766.3097 295.79062Q765.91907 296.18124 765.91907 296.86874Q765.91907 297.50937 766.3097 297.91562Q766.7003 298.32187 767.34094 298.32187Q767.9972 298.32187 768.3878 297.91562Q768.77844 297.50937 768.77844 296.86874Q768.77844 296.2125 768.3722 295.80624Q767.96594 295.38437 767.35657 295.38437ZM777.04407 299.50937Q777.04407 301.41562 776.3878 302.35312Q775.7472 303.275 774.35657 303.275Q772.9972 303.275 772.34094 302.36874Q771.6847 301.4625 771.65344 299.65L771.65344 298.2125Q771.65344 296.32187 772.29407 295.41562Q772.9503 294.49374 774.34094 294.49374Q775.71594 294.49374 776.3722 295.38437Q777.02844 296.25937 777.04407 298.10312L777.04407 299.50937ZM775.9503 298.025Q775.9503 296.65 775.5597 296.025Q775.1847 295.38437 774.34094 295.38437Q773.5128 295.38437 773.1222 296.025Q772.7472 296.65 772.7472 297.94687L772.7472 299.68124Q772.7472 301.05624 773.1378 301.72812Q773.54407 302.38437 774.35657 302.38437Q775.15344 302.38437 775.54407 301.75937Q775.9347 301.13437 775.9503 299.80624L775.9503 298.025ZM784.04407 299.50937Q784.04407 301.41562 783.3878 302.35312Q782.7472 303.275 781.35657 303.275Q779.9972 303.275 779.34094 302.36874Q778.6847 301.4625 778.65344 299.65L778.65344 298.2125Q778.65344 296.32187 779.29407 295.41562Q779.9503 294.49374 781.34094 294.49374Q782.71594 294.49374 783.3722 295.38437Q784.02844 296.25937 784.04407 298.10312L784.04407 299.50937ZM782.9503 298.025Q782.9503 296.65 782.5597 296.025Q782.1847 295.38437 781.34094 295.38437Q780.5128 295.38437 780.1222 296.025Q779.7472 296.65 779.7472 297.94687L779.7472 299.68124Q779.7472 301.05624 780.1378 301.72812Q780.54407 302.38437 781.35657 302.38437Q782.15344 302.38437 782.54407 301.75937Q782.9347 301.13437 782.9503 299.80624L782.9503 298.025Z" fill-rule="nonzero"/><path fill="#757575" d="M800.3939 303.15L794.8002 303.15L794.8002 302.36874L797.7533 299.0875Q798.40955 298.3375 798.65955 297.88437Q798.90955 297.41562 798.90955 296.91562Q798.90955 296.24374 798.5033 295.82187Q798.1127 295.38437 797.4252 295.38437Q796.6283 295.38437 796.1752 295.85312Q795.72205 296.30624 795.72205 297.13437L794.6439 297.13437Q794.6439 295.94687 795.3939 295.22812Q796.15955 294.49374 797.4252 294.49374Q798.6283 294.49374 799.3158 295.11874Q800.0033 295.74374 800.0033 296.79062Q800.0033 298.04062 798.3939 299.79062L796.1127 302.25937L800.3939 302.25937L800.3939 303.15ZM807.15955 299.50937Q807.15955 301.41562 806.5033 302.35312Q805.8627 303.275 804.47205 303.275Q803.1127 303.275 802.4564 302.36874Q801.8002 301.4625 801.7689 299.65L801.7689 298.2125Q801.7689 296.32187 802.40955 295.41562Q803.0658 294.49374 804.4564 294.49374Q805.8314 294.49374 806.4877 295.38437Q807.1439 296.25937 807.15955 298.10312L807.15955 299.50937ZM806.0658 298.025Q806.0658 296.65 805.6752 296.025Q805.3002 295.38437 804.4564 295.38437Q803.6283 295.38437 803.2377 296.025Q802.8627 296.65 802.8627 297.94687L802.8627 299.68124Q802.8627 301.05624 803.2533 301.72812Q803.65955 302.38437 804.47205 302.38437Q805.2689 302.38437 805.65955 301.75937Q806.0502 301.13437 806.0658 299.80624L806.0658 298.025ZM814.15955 299.50937Q814.15955 301.41562 813.5033 302.35312Q812.8627 303.275 811.47205 303.275Q810.1127 303.275 809.4564 302.36874Q808.8002 301.4625 808.7689 299.65L808.7689 298.2125Q808.7689 296.32187 809.40955 295.41562Q810.0658 294.49374 811.4564 294.49374Q812.8314 294.49374 813.4877 295.38437Q814.1439 296.25937 814.15955 298.10312L814.15955 299.50937ZM813.0658 298.025Q813.0658 296.65 812.6752 296.025Q812.3002 295.38437 811.4564 295.38437Q810.6283 295.38437 810.2377 296.025Q809.8627 296.65 809.8627 297.94687L809.8627 299.68124Q809.8627 301.05624 810.2533 301.72812Q810.65955 302.38437 811.47205 302.38437Q812.2689 302.38437 812.65955 301.75937Q813.0502 301.13437 813.0658 299.80624L813.0658 298.025ZM821.15955 299.50937Q821.15955 301.41562 820.5033 302.35312Q819.8627 303.275 818.47205 303.275Q817.1127 303.275 816.4564 302.36874Q815.8002 301.4625 815.7689 299.65L815.7689 298.2125Q815.7689 296.32187 816.40955 295.41562Q817.0658 294.49374 818.4564 294.49374Q819.8314 294.49374 820.4877 295.38437Q821.1439 296.25937 821.15955 298.10312L821.15955 299.50937ZM820.0658 298.025Q820.0658 296.65 819.6752 296.025Q819.3002 295.38437 818.4564 295.38437Q817.6283 295.38437 817.2377 296.025Q816.8627 296.65 816.8627 297.94687L816.8627 299.68124Q816.8627 301.05624 817.2533 301.72812Q817.65955 302.38437 818.47205 302.38437Q819.2689 302.38437 819.65955 301.75937Q820.0502 301.13437 820.0658 299.80624L820.0658 298.025Z" fill-rule="nonzero"/><path fill="#757575" d="M24.709375 31.099998L21.38125 31.099998L21.38125 36.85L19.490625 36.85L19.490625 22.631248L24.19375 22.631248Q26.6 22.631248 27.896875 23.724998Q29.19375 24.818748 29.19375 26.912498Q29.19375 28.240623 28.475 29.224998Q27.75625 30.209373 26.475 30.693748L29.81875 36.725L29.81875 36.85L27.803125 36.85L24.709375 31.099998ZM21.38125 29.568748L24.25625 29.568748Q25.646875 29.568748 26.475 28.849998Q27.303125 28.115623 27.303125 26.912498Q27.303125 25.584373 26.50625 24.881248Q25.725 24.178123 24.240625 24.178123L21.38125 24.178123L21.38125 29.568748ZM35.6 37.053123Q33.459373 37.053123 32.1 35.646873Q30.75625 34.225 30.75625 31.865623L30.75625 31.521873Q30.75625 29.959373 31.35 28.724998Q31.959375 27.490623 33.0375 26.787498Q34.115623 26.084373 35.38125 26.084373Q37.44375 26.084373 38.584373 27.443748Q39.725 28.803123 39.725 31.334373L39.725 32.084373L32.56875 32.084373Q32.6 33.646873 33.475 34.615623Q34.35 35.56875 35.69375 35.56875Q36.6625 35.56875 37.31875 35.178123Q37.990623 34.7875 38.490623 34.146873L39.584373 35.00625Q38.25625 37.053123 35.6 37.053123ZM35.38125 27.568748Q34.2875 27.568748 33.5375 28.365623Q32.803123 29.162498 32.63125 30.599998L37.9125 30.599998L37.9125 30.459373Q37.834373 29.084373 37.1625 28.334373Q36.50625 27.568748 35.38125 27.568748ZM48.365623 34.053123Q48.365623 33.31875 47.81875 32.9125Q47.271873 32.50625 45.896873 32.209373Q44.521873 31.912498 43.709373 31.506248Q42.9125 31.099998 42.521873 30.537498Q42.146873 29.959373 42.146873 29.178123Q42.146873 27.881248 43.240623 26.990623Q44.334373 26.084373 46.053123 26.084373Q47.85 26.084373 48.959373 27.021873Q50.084373 27.943748 50.084373 29.381248L48.25625 29.381248Q48.25625 28.646873 47.63125 28.115623Q47.00625 27.568748 46.053123 27.568748Q45.053123 27.568748 44.490623 28.006248Q43.94375 28.428123 43.94375 29.131248Q43.94375 29.771873 44.459373 30.115623Q44.975 30.443748 46.334373 30.756248Q47.69375 31.053123 48.521873 31.474998Q49.365623 31.881248 49.771873 32.475Q50.178123 33.06875 50.178123 33.9125Q50.178123 35.334373 49.0375 36.19375Q47.9125 37.053123 46.1 37.053123Q44.834373 37.053123 43.85 36.6Q42.88125 36.146873 42.31875 35.35Q41.771873 34.5375 41.771873 33.6L43.584373 33.6Q43.63125 34.50625 44.303123 35.0375Q44.990623 35.56875 46.1 35.56875Q47.13125 35.56875 47.740623 35.1625Q48.365623 34.740623 48.365623 34.053123ZM61.146873 31.678123Q61.146873 34.1 60.0375 35.584373Q58.94375 37.053123 57.053123 37.053123Q55.13125 37.053123 54.021873 35.81875L54.021873 40.9125L52.225 40.9125L52.225 26.287498L53.865623 26.287498L53.959373 27.459373Q55.053123 26.084373 57.021873 26.084373Q58.928123 26.084373 60.0375 27.521873Q61.146873 28.959373 61.146873 31.521873L61.146873 31.678123ZM59.334373 31.474998Q59.334373 29.693748 58.56875 28.662498Q57.81875 27.615623 56.490623 27.615623Q54.85 27.615623 54.021873 29.068748L54.021873 34.13125Q54.834373 35.56875 56.50625 35.56875Q57.803123 35.56875 58.56875 34.5375Q59.334373 33.50625 59.334373 31.474998ZM62.740623 31.474998Q62.740623 29.912498 63.35 28.678123Q63.959373 27.428123 65.0375 26.756248Q66.13125 26.084373 67.5375 26.084373Q69.69375 26.084373 71.02187 27.584373Q72.36562 29.068748 72.36562 31.553123L72.36562 31.678123Q72.36562 33.225 71.77187 34.459373Q71.17812 35.678123 70.06875 36.365623Q68.975 37.053123 67.55312 37.053123Q65.4125 37.053123 64.06875 35.553123Q62.740623 34.053123 62.740623 31.599998L62.740623 31.474998ZM64.55312 31.678123Q64.55312 33.44375 65.36562 34.50625Q66.19375 35.56875 67.55312 35.56875Q68.92812 35.56875 69.74062 34.490623Q70.55312 33.4125 70.55312 31.474998Q70.55312 29.724998 69.725 28.646873Q68.89687 27.568748 67.5375 27.568748Q66.19375 27.568748 65.36562 28.631248Q64.55312 29.693748 64.55312 31.678123ZM75.92812 26.287498L75.99062 27.615623Q77.19375 26.084373 79.14687 26.084373Q82.50625 26.084373 82.52187 29.865623L82.52187 36.85L80.725 36.85L80.725 29.849998Q80.70937 28.709373 80.19375 28.162498Q79.69375 27.615623 78.6 27.615623Q77.725 27.615623 77.05312 28.084373Q76.39687 28.553123 76.02187 29.318748L76.02187 36.85L74.225 36.85L74.225 26.287498L75.92812 26.287498ZM91.36562 34.053123Q91.36562 33.31875 90.81875 32.9125Q90.27187 32.50625 88.89687 32.209373Q87.52187 31.912498 86.70937 31.506248Q85.9125 31.099998 85.52187 30.537498Q85.14687 29.959373 85.14687 29.178123Q85.14687 27.881248 86.24062 26.990623Q87.33437 26.084373 89.05312 26.084373Q90.85 26.084373 91.95937 27.021873Q93.08437 27.943748 93.08437 29.381248L91.25625 29.381248Q91.25625 28.646873 90.63125 28.115623Q90.00625 27.568748 89.05312 27.568748Q88.05312 27.568748 87.49062 28.006248Q86.94375 28.428123 86.94375 29.131248Q86.94375 29.771873 87.45937 30.115623Q87.975 30.443748 89.33437 30.756248Q90.69375 31.053123 91.52187 31.474998Q92.36562 31.881248 92.77187 32.475Q93.17812 33.06875 93.17812 33.9125Q93.17812 35.334373 92.0375 36.19375Q90.9125 37.053123 89.1 37.053123Q87.83437 37.053123 86.85 36.6Q85.88125 36.146873 85.31875 35.35Q84.77187 34.5375 84.77187 33.6L86.58437 33.6Q86.63125 34.50625 87.30312 35.0375Q87.99062 35.56875 89.1 35.56875Q90.13125 35.56875 90.74062 35.1625Q91.36562 34.740623 91.36562 34.053123ZM99.6 37.053123Q97.45937 37.053123 96.1 35.646873Q94.75625 34.225 94.75625 31.865623L94.75625 31.521873Q94.75625 29.959373 95.35 28.724998Q95.95937 27.490623 97.0375 26.787498Q98.11562 26.084373 99.38125 26.084373Q101.44375 26.084373 102.58437 27.443748Q103.725 28.803123 103.725 31.334373L103.725 32.084373L96.56875 32.084373Q96.6 33.646873 97.475 34.615623Q98.35 35.56875 99.69375 35.56875Q100.6625 35.56875 101.31875 35.178123Q101.99062 34.7875 102.49062 34.146873L103.58437 35.00625Q102.25625 37.053123 99.6 37.053123ZM99.38125 27.568748Q98.2875 27.568748 97.5375 28.365623Q96.80312 29.162498 96.63125 30.599998L101.9125 30.599998L101.9125 30.459373Q101.83437 29.084373 101.1625 28.334373Q100.50625 27.568748 99.38125 27.568748ZM121.31875 24.178123L116.75625 24.178123L116.75625 36.85L114.89687 36.85L114.89687 24.178123L110.33437 24.178123L110.33437 22.631248L121.31875 22.631248L121.31875 24.178123ZM125.17812 36.85L123.38125 36.85L123.38125 26.287498L125.17812 26.287498L125.17812 36.85ZM123.225 23.474998Q123.225 23.037498 123.49062 22.740623Q123.77187 22.428123 124.2875 22.428123Q124.81875 22.428123 125.08437 22.740623Q125.36562 23.037498 125.36562 23.474998Q125.36562 23.912498 125.08437 24.209373Q124.81875 24.506248 124.2875 24.506248Q123.77187 24.506248 123.49062 24.209373Q123.225 23.912498 123.225 23.474998ZM129.9125 26.287498L129.95938 27.459373Q131.13126 26.084373 133.1 26.084373Q135.31876 26.084373 136.11563 27.787498Q136.64688 27.021873 137.49063 26.553123Q138.33438 26.084373 139.49063 26.084373Q142.95938 26.084373 143.02188 29.771873L143.02188 36.85L141.20938 36.85L141.20938 29.881248Q141.20938 28.740623 140.69376 28.178123Q140.17813 27.615623 138.95938 27.615623Q137.95938 27.615623 137.2875 28.224998Q136.63126 28.818748 136.52188 29.834373L136.52188 36.85L134.70938 36.85L134.70938 29.928123Q134.70938 27.615623 132.44376 27.615623Q130.6625 27.615623 130.02188 29.131248L130.02188 36.85L128.20938 36.85L128.20938 26.287498L129.9125 26.287498ZM150.6 37.053123Q148.45938 37.053123 147.1 35.646873Q145.75626 34.225 145.75626 31.865623L145.75626 31.521873Q145.75626 29.959373 146.35 28.724998Q146.95938 27.490623 148.0375 26.787498Q149.11563 26.084373 150.38126 26.084373Q152.44376 26.084373 153.58438 27.443748Q154.725 28.803123 154.725 31.334373L154.725 32.084373L147.56876 32.084373Q147.6 33.646873 148.475 34.615623Q149.35 35.56875 150.69376 35.56875Q151.6625 35.56875 152.31876 35.178123Q152.99063 34.7875 153.49063 34.146873L154.58438 35.00625Q153.25626 37.053123 150.6 37.053123ZM150.38126 27.568748Q149.2875 27.568748 148.5375 28.365623Q147.80313 29.162498 147.63126 30.599998L152.9125 30.599998L152.9125 30.459373Q152.83438 29.084373 152.1625 28.334373Q151.50626 27.568748 150.38126 27.568748ZM173.42813 36.85L171.5375 36.85L171.5375 30.271873L164.38126 30.271873L164.38126 36.85L162.50626 36.85L162.50626 22.631248L164.38126 22.631248L164.38126 28.740623L171.5375 28.740623L171.5375 22.631248L173.42813 22.631248L173.42813 36.85ZM178.17813 36.85L176.38126 36.85L176.38126 26.287498L178.17813 26.287498L178.17813 36.85ZM176.225 23.474998Q176.225 23.037498 176.49063 22.740623Q176.77188 22.428123 177.2875 22.428123Q177.81876 22.428123 178.08438 22.740623Q178.36563 23.037498 178.36563 23.474998Q178.36563 23.912498 178.08438 24.209373Q177.81876 24.506248 177.2875 24.506248Q176.77188 24.506248 176.49063 24.209373Q176.225 23.912498 176.225 23.474998ZM187.36563 34.053123Q187.36563 33.31875 186.81876 32.9125Q186.27188 32.50625 184.89688 32.209373Q183.52188 31.912498 182.70938 31.506248Q181.9125 31.099998 181.52188 30.537498Q181.14688 29.959373 181.14688 29.178123Q181.14688 27.881248 182.24063 26.990623Q183.33438 26.084373 185.05313 26.084373Q186.85 26.084373 187.95938 27.021873Q189.08438 27.943748 189.08438 29.381248L187.25626 29.381248Q187.25626 28.646873 186.63126 28.115623Q186.00626 27.568748 185.05313 27.568748Q184.05313 27.568748 183.49063 28.006248Q182.94376 28.428123 182.94376 29.131248Q182.94376 29.771873 183.45938 30.115623Q183.975 30.443748 185.33438 30.756248Q186.69376 31.053123 187.52188 31.474998Q188.36563 31.881248 188.77188 32.475Q189.17813 33.06875 189.17813 33.9125Q189.17813 35.334373 188.0375 36.19375Q186.9125 37.053123 185.1 37.053123Q183.83438 37.053123 182.85 36.6Q181.88126 36.146873 181.31876 35.35Q180.77188 34.5375 180.77188 33.6L182.58438 33.6Q182.63126 34.50625 183.30313 35.0375Q183.99063 35.56875 185.1 35.56875Q186.13126 35.56875 186.74063 35.1625Q187.36563 34.740623 187.36563 34.053123ZM193.6625 23.724998L193.6625 26.287498L195.64688 26.287498L195.64688 27.678123L193.6625 27.678123L193.6625 34.225Q193.6625 34.865623 193.92813 35.19375Q194.19376 35.50625 194.83438 35.50625Q195.14688 35.50625 195.69376 35.38125L195.69376 36.85Q194.975 37.053123 194.30313 37.053123Q193.1 37.053123 192.475 36.31875Q191.86563 35.584373 191.86563 34.225L191.86563 27.678123L189.94376 27.678123L189.94376 26.287498L191.86563 26.287498L191.86563 23.724998L193.6625 23.724998ZM197.74063 31.474998Q197.74063 29.912498 198.35 28.678123Q198.95938 27.428123 200.0375 26.756248Q201.13126 26.084373 202.5375 26.084373Q204.69376 26.084373 206.02188 27.584373Q207.36563 29.068748 207.36563 31.553123L207.36563 31.678123Q207.36563 33.225 206.77188 34.459373Q206.17813 35.678123 205.06876 36.365623Q203.975 37.053123 202.55313 37.053123Q200.4125 37.053123 199.06876 35.553123Q197.74063 34.053123 197.74063 31.599998L197.74063 31.474998ZM199.55313 31.678123Q199.55313 33.44375 200.36563 34.50625Q201.19376 35.56875 202.55313 35.56875Q203.92813 35.56875 204.74063 34.490623Q205.55313 33.4125 205.55313 31.474998Q205.55313 29.724998 204.725 28.646873Q203.89688 27.568748 202.5375 27.568748Q201.19376 27.568748 200.36563 28.631248Q199.55313 29.693748 199.55313 31.678123ZM208.7875 31.474998Q208.7875 29.006248 209.92813 27.553123Q211.06876 26.084373 212.95938 26.084373Q214.89688 26.084373 215.975 27.459373L216.06876 26.287498L217.70938 26.287498L217.70938 36.6Q217.70938 38.646873 216.49063 39.81875Q215.2875 41.00625 213.225 41.00625Q212.08438 41.00625 210.99063 40.521873Q209.89688 40.0375 209.31876 39.178123L210.25626 38.1Q211.42813 39.5375 213.1 39.5375Q214.42813 39.5375 215.1625 38.7875Q215.89688 38.053123 215.89688 36.709373L215.89688 35.7875Q214.81876 37.053123 212.94376 37.053123Q211.08438 37.053123 209.92813 35.553123Q208.7875 34.053123 208.7875 31.474998ZM210.6 31.678123Q210.6 33.475 211.33438 34.490623Q212.06876 35.50625 213.38126 35.50625Q215.1 35.50625 215.89688 33.959373L215.89688 29.131248Q215.06876 27.615623 213.4125 27.615623Q212.08438 27.615623 211.33438 28.646873Q210.6 29.678123 210.6 31.678123ZM225.31876 27.896873Q224.9125 27.834373 224.44376 27.834373Q222.6625 27.834373 222.02188 29.349998L222.02188 36.85L220.225 36.85L220.225 26.287498L221.975 26.287498L222.00626 27.506248Q222.89688 26.084373 224.52188 26.084373Q225.05313 26.084373 225.31876 26.224998L225.31876 27.896873ZM233.74063 36.85Q233.58438 36.5375 233.49063 35.740623Q232.225 37.053123 230.475 37.053123Q228.9125 37.053123 227.9125 36.1625Q226.9125 35.271873 226.9125 33.9125Q226.9125 32.271873 228.1625 31.365623Q229.42813 30.443748 231.69376 30.443748L233.45938 30.443748L233.45938 29.615623Q233.45938 28.662498 232.88126 28.099998Q232.31876 27.537498 231.225 27.537498Q230.25626 27.537498 229.6 28.037498Q228.94376 28.521873 228.94376 29.209373L227.13126 29.209373Q227.13126 28.428123 227.69376 27.693748Q228.25626 26.943748 229.20938 26.521873Q230.17813 26.084373 231.33438 26.084373Q233.1625 26.084373 234.19376 27.006248Q235.225 27.912498 235.27188 29.521873L235.27188 34.38125Q235.27188 35.834373 235.63126 36.69375L235.63126 36.85L233.74063 36.85ZM230.74063 35.475Q231.6 35.475 232.35 35.0375Q233.11563 34.6 233.45938 33.896873L233.45938 31.724998L232.0375 31.724998Q228.725 31.724998 228.725 33.6625Q228.725 34.521873 229.2875 35.00625Q229.85 35.475 230.74063 35.475ZM239.9125 26.287498L239.95938 27.459373Q241.13126 26.084373 243.1 26.084373Q245.31876 26.084373 246.11563 27.787498Q246.64688 27.021873 247.49063 26.553123Q248.33438 26.084373 249.49063 26.084373Q252.95938 26.084373 253.02188 29.771873L253.02188 36.85L251.20938 36.85L251.20938 29.881248Q251.20938 28.740623 250.69376 28.178123Q250.17813 27.615623 248.95938 27.615623Q247.95938 27.615623 247.2875 28.224998Q246.63126 28.818748 246.52188 29.834373L246.52188 36.85L244.70938 36.85L244.70938 29.928123Q244.70938 27.615623 242.44376 27.615623Q240.6625 27.615623 240.02188 29.131248L240.02188 36.85L238.20938 36.85L238.20938 26.287498L239.9125 26.287498ZM266.975 36.85L265.14688 36.85L265.14688 24.803123L261.50626 26.146873L261.50626 24.506248L266.69376 22.568748L266.975 22.568748L266.975 36.85ZM277.14688 31.084373Q277.14688 28.865623 277.74063 26.834373Q278.33438 24.803123 279.50626 23.146873Q280.67813 21.490623 281.92813 20.803123L282.30313 21.990623Q280.88126 23.084373 279.95938 25.334373Q279.05313 27.584373 278.95938 30.365623L278.95938 31.193748Q278.95938 34.959373 280.33438 37.740623Q281.1625 39.396873 282.30313 40.334373L281.92813 41.44375Q280.63126 40.725 279.45938 39.021873Q277.14688 35.69375 277.14688 31.084373ZM286.38126 31.287498L286.38126 36.85L284.50626 36.85L284.50626 22.631248L289.74063 22.631248Q292.08438 22.631248 293.39688 23.818748Q294.725 25.006248 294.725 26.974998Q294.725 29.053123 293.42813 30.178123Q292.13126 31.287498 289.725 31.287498L286.38126 31.287498ZM286.38126 29.756248L289.74063 29.756248Q291.25626 29.756248 292.05313 29.053123Q292.85 28.334373 292.85 26.990623Q292.85 25.724998 292.05313 24.974998Q291.25626 24.209373 289.85 24.178123L286.38126 24.178123L286.38126 29.756248ZM303.95938 30.599998Q303.39688 31.271873 302.6 31.693748Q301.81876 32.1 300.88126 32.1Q299.64688 32.1 298.725 31.490623Q297.81876 30.881248 297.31876 29.787498Q296.83438 28.678123 296.83438 27.349998Q296.83438 25.928123 297.36563 24.787498Q297.9125 23.646873 298.89688 23.037498Q299.89688 22.428123 301.225 22.428123Q303.33438 22.428123 304.55313 24.006248Q305.77188 25.584373 305.77188 28.318748L305.77188 28.834373Q305.77188 32.990623 304.13126 34.896873Q302.49063 36.803123 299.17813 36.865623L298.83438 36.865623L298.83438 35.334373L299.20938 35.334373Q301.44376 35.303123 302.64688 34.178123Q303.85 33.0375 303.95938 30.599998ZM301.17813 30.599998Q302.08438 30.599998 302.85 30.053123Q303.61563 29.490623 303.95938 28.662498L303.95938 27.943748Q303.95938 26.162498 303.19376 25.053123Q302.42813 23.943748 301.24063 23.943748Q300.05313 23.943748 299.31876 24.865623Q298.6 25.771873 298.6 27.256248Q298.6 28.709373 299.30313 29.662498Q300.00626 30.599998 301.17813 30.599998ZM314.95938 30.599998Q314.39688 31.271873 313.6 31.693748Q312.81876 32.1 311.88126 32.1Q310.64688 32.1 309.725 31.490623Q308.81876 30.881248 308.31876 29.787498Q307.83438 28.678123 307.83438 27.349998Q307.83438 25.928123 308.36563 24.787498Q308.9125 23.646873 309.89688 23.037498Q310.89688 22.428123 312.225 22.428123Q314.33438 22.428123 315.55313 24.006248Q316.77188 25.584373 316.77188 28.318748L316.77188 28.834373Q316.77188 32.990623 315.13126 34.896873Q313.49063 36.803123 310.17813 36.865623L309.83438 36.865623L309.83438 35.334373L310.20938 35.334373Q312.44376 35.303123 313.64688 34.178123Q314.85 33.0375 314.95938 30.599998ZM312.17813 30.599998Q313.08438 30.599998 313.85 30.053123Q314.61563 29.490623 314.95938 28.662498L314.95938 27.943748Q314.95938 26.162498 314.19376 25.053123Q313.42813 23.943748 312.24063 23.943748Q311.05313 23.943748 310.31876 24.865623Q309.6 25.771873 309.6 27.256248Q309.6 28.709373 310.30313 29.662498Q311.00626 30.599998 312.17813 30.599998ZM325.95938 30.599998Q325.39688 31.271873 324.6 31.693748Q323.81876 32.1 322.88126 32.1Q321.64688 32.1 320.725 31.490623Q319.81876 30.881248 319.31876 29.787498Q318.83438 28.678123 318.83438 27.349998Q318.83438 25.928123 319.36563 24.787498Q319.9125 23.646873 320.89688 23.037498Q321.89688 22.428123 323.225 22.428123Q325.33438 22.428123 326.55313 24.006248Q327.77188 25.584373 327.77188 28.318748L327.77188 28.834373Q327.77188 32.990623 326.13126 34.896873Q324.49063 36.803123 321.17813 36.865623L320.83438 36.865623L320.83438 35.334373L321.20938 35.334373Q323.44376 35.303123 324.64688 34.178123Q325.85 33.0375 325.95938 30.599998ZM323.17813 30.599998Q324.08438 30.599998 324.85 30.053123Q325.61563 29.490623 325.95938 28.662498L325.95938 27.943748Q325.95938 26.162498 325.19376 25.053123Q324.42813 23.943748 323.24063 23.943748Q322.05313 23.943748 321.31876 24.865623Q320.6 25.771873 320.6 27.256248Q320.6 28.709373 321.30313 29.662498Q322.00626 30.599998 323.17813 30.599998ZM343.475 28.896873L335.33438 28.896873L335.33438 27.334373L343.475 27.334373L343.475 28.896873ZM343.475 32.959373L335.33438 32.959373L335.33438 31.396873L343.475 31.396873L343.475 32.959373ZM356.975 36.85L355.14688 36.85L355.14688 24.803123L351.50626 26.146873L351.50626 24.506248L356.69376 22.568748L356.975 22.568748L356.975 36.85ZM362.86563 29.724998L363.58438 22.631248L370.86563 22.631248L370.86563 24.303123L365.11563 24.303123L364.69376 28.178123Q365.74063 27.568748 367.06876 27.568748Q369.00626 27.568748 370.14688 28.849998Q371.2875 30.131248 371.2875 32.31875Q371.2875 34.521873 370.1 35.7875Q368.9125 37.053123 366.7875 37.053123Q364.89688 37.053123 363.70938 36.00625Q362.52188 34.959373 362.35 33.115623L364.06876 33.115623Q364.225 34.334373 364.92813 34.959373Q365.63126 35.56875 366.7875 35.56875Q368.05313 35.56875 368.77188 34.709373Q369.49063 33.85 369.49063 32.334373Q369.49063 30.912498 368.70938 30.053123Q367.92813 29.178123 366.64688 29.178123Q365.45938 29.178123 364.7875 29.693748L364.30313 30.084373L362.86563 29.724998ZM381.94376 30.787498Q381.94376 33.959373 380.86563 35.50625Q379.7875 37.053123 377.475 37.053123Q375.19376 37.053123 374.1 35.5375Q373.00626 34.021873 372.975 31.021873L372.975 28.615623Q372.975 25.474998 374.05313 23.959373Q375.14688 22.428123 377.45938 22.428123Q379.75626 22.428123 380.83438 23.912498Q381.9125 25.381248 381.94376 28.443748L381.94376 30.787498ZM380.14688 28.318748Q380.14688 26.021873 379.49063 24.974998Q378.85 23.912498 377.45938 23.912498Q376.06876 23.912498 375.42813 24.959373Q374.80313 26.006248 374.7875 28.178123L374.7875 31.068748Q374.7875 33.365623 375.44376 34.475Q376.11563 35.56875 377.475 35.56875Q378.81876 35.56875 379.45938 34.5375Q380.11563 33.50625 380.14688 31.271873L380.14688 28.318748ZM392.94376 30.787498Q392.94376 33.959373 391.86563 35.50625Q390.7875 37.053123 388.475 37.053123Q386.19376 37.053123 385.1 35.5375Q384.00626 34.021873 383.975 31.021873L383.975 28.615623Q383.975 25.474998 385.05313 23.959373Q386.14688 22.428123 388.45938 22.428123Q390.75626 22.428123 391.83438 23.912498Q392.9125 25.381248 392.94376 28.443748L392.94376 30.787498ZM391.14688 28.318748Q391.14688 26.021873 390.49063 24.974998Q389.85 23.912498 388.45938 23.912498Q387.06876 23.912498 386.42813 24.959373Q385.80313 26.006248 385.7875 28.178123L385.7875 31.068748Q385.7875 33.365623 386.44376 34.475Q387.11563 35.56875 388.475 35.56875Q389.81876 35.56875 390.45938 34.5375Q391.11563 33.50625 391.14688 31.271873L391.14688 28.318748ZM396.9125 26.287498L396.95938 27.459373Q398.13126 26.084373 400.1 26.084373Q402.31876 26.084373 403.11563 27.787498Q403.64688 27.021873 404.49063 26.553123Q405.33438 26.084373 406.49063 26.084373Q409.95938 26.084373 410.02188 29.771873L410.02188 36.85L408.20938 36.85L408.20938 29.881248Q408.20938 28.740623 407.69376 28.178123Q407.17813 27.615623 405.95938 27.615623Q404.95938 27.615623 404.2875 28.224998Q403.63126 28.818748 403.52188 29.834373L403.52188 36.85L401.70938 36.85L401.70938 29.928123Q401.70938 27.615623 399.44376 27.615623Q397.6625 27.615623 397.02188 29.131248L397.02188 36.85L395.20938 36.85L395.20938 26.287498L396.9125 26.287498ZM419.36563 34.053123Q419.36563 33.31875 418.81876 32.9125Q418.27188 32.50625 416.89688 32.209373Q415.52188 31.912498 414.70938 31.506248Q413.9125 31.099998 413.52188 30.537498Q413.14688 29.959373 413.14688 29.178123Q413.14688 27.881248 414.24063 26.990623Q415.33438 26.084373 417.05313 26.084373Q418.85 26.084373 419.95938 27.021873Q421.08438 27.943748 421.08438 29.381248L419.25626 29.381248Q419.25626 28.646873 418.63126 28.115623Q418.00626 27.568748 417.05313 27.568748Q416.05313 27.568748 415.49063 28.006248Q414.94376 28.428123 414.94376 29.131248Q414.94376 29.771873 415.45938 30.115623Q415.975 30.443748 417.33438 30.756248Q418.69376 31.053123 419.52188 31.474998Q420.36563 31.881248 420.77188 32.475Q421.17813 33.06875 421.17813 33.9125Q421.17813 35.334373 420.0375 36.19375Q418.9125 37.053123 417.1 37.053123Q415.83438 37.053123 414.85 36.6Q413.88126 36.146873 413.31876 35.35Q412.77188 34.5375 412.77188 33.6L414.58438 33.6Q414.63126 34.50625 415.30313 35.0375Q415.99063 35.56875 417.1 35.56875Q418.13126 35.56875 418.74063 35.1625Q419.36563 34.740623 419.36563 34.053123ZM427.38126 31.178123Q427.38126 33.35 426.80313 35.35Q426.24063 37.35 425.06876 39.0375Q423.89688 40.725 422.6 41.44375L422.225 40.334373Q423.725 39.178123 424.63126 36.75625Q425.55313 34.334373 425.56876 31.365623L425.56876 31.053123Q425.56876 29.006248 425.13126 27.240623Q424.70938 25.474998 423.94376 24.084373Q423.17813 22.693748 422.225 21.912498L422.6 20.803123Q423.89688 21.521873 425.05313 23.193748Q426.225 24.849998 426.80313 26.865623Q427.38126 28.881248 427.38126 31.178123Z" fill-rule="nonzero"/></svg>